<svg enable-background="new 0 0 24 24" height="512" viewBox="0 0 24 24" width="512" xmlns="http://www.w3.org/2000/svg"><path d="m13.5 16h-3v-4h3z" fill="#90a4ae"/><path d="m12 12h-1.5v4h1.5z" fill="#7d8f97"/><path d="m11 5.5c0-1.93-1.57-3.5-3.5-3.5-1.449 0-2.766.911-3.277 2.269l-.002.006-3.868 10.287-.001.001c-.234.62-.352 1.271-.352 1.937 0 3.033 2.468 5.5 5.5 5.5s5.5-2.467 5.5-5.5z" fill="#607d8b"/><path d="m11 5.5c0-1.93-1.57-3.5-3.5-3.5-1.449 0-2.766.911-3.277 2.269l-.002.006-3.868 10.287-.001.001c-.234.62-.352 1.271-.352 1.937 0 3.033 2.468 5.5 5.5 5.5s5.5-2.467 5.5-5.5z" fill="#546d79"/><path d="m23.648 14.564-3.869-10.289-.002-.006-.001-.001c-.51-1.357-1.827-2.268-3.276-2.268s-2.766.911-3.277 2.269c-.148.394-.223.809-.223 1.231v11c0 3.033 2.468 5.5 5.5 5.5s5.5-2.467 5.5-5.5c0-.666-.118-1.317-.352-1.936z" fill="#607d8b"/><path d="m5.5 20c-1.93 0-3.5-1.57-3.5-3.5 0-.424.075-.839.223-1.232.51-1.356 1.827-2.268 3.277-2.268 1.93 0 3.5 1.57 3.5 3.5s-1.57 3.5-3.5 3.5z" fill="#fff"/><path d="m5.5 13c-1.45 0-2.767.912-3.277 2.268-.148.393-.223.808-.223 1.232 0 1.93 1.57 3.5 3.5 3.5z" fill="#dedede"/><path d="m18.5 20c-1.93 0-3.5-1.57-3.5-3.5s1.57-3.5 3.5-3.5c1.45 0 2.767.912 3.277 2.268.148.393.223.808.223 1.232 0 1.93-1.57 3.5-3.5 3.5z" fill="#fff"/><path d="m18.5 13c-1.93 0-3.5 1.57-3.5 3.5s1.57 3.5 3.5 3.5z" fill="#dedede"/></svg>