<svg enable-background="new 0 0 24 24" height="512" viewBox="0 0 24 24" width="512" xmlns="http://www.w3.org/2000/svg"><g fill="#f44336"><path d="m4 4c0 1.104-.896 2-2 2s-2-.896-2-2c0-1.105.895-2 2-2 1.104 0 2 .896 2 2z"/><path d="m4 12c0 1.105-.896 2-2 2-1.105 0-2-.895-2-2s.895-2 2-2c1.104 0 2 .895 2 2z"/><path d="m4 20c0 1.105-.896 2-2 2-1.105 0-2-.895-2-2 0-1.104.895-2 2-2 1.104 0 2 .896 2 2z"/></g><g fill="#d43a2f"><path d="m2 2c-1.104 0-2 .896-2 2s.895 2 2 2z"/><path d="m2 10c-1.105 0-2 .895-2 2s.895 2 2 2z"/><path d="m2 18c-1.105 0-2 .896-2 2 0 1.105.895 2 2 2z"/></g><path d="m23 5h-15c-.553 0-1-.447-1-1s.447-1 1-1h15c.553 0 1 .447 1 1s-.447 1-1 1z" fill="#607d8b"/><path d="m23 13h-15c-.553 0-1-.447-1-1s.447-1 1-1h15c.553 0 1 .447 1 1s-.447 1-1 1z" fill="#607d8b"/><path d="m23 21h-15c-.553 0-1-.447-1-1s.447-1 1-1h15c.553 0 1 .447 1 1s-.447 1-1 1z" fill="#607d8b"/><path d="m16 3h-8c-.553 0-1 .447-1 1s.447 1 1 1h8z" fill="#546d79"/><path d="m16 11h-8c-.553 0-1 .447-1 1s.447 1 1 1h8z" fill="#546d79"/><path d="m16 19h-8c-.553 0-1 .447-1 1s.447 1 1 1h8z" fill="#546d79"/></svg>