<svg enable-background="new 0 0 24 24" height="512" viewBox="0 0 24 24" width="512" xmlns="http://www.w3.org/2000/svg"><path d="m21 1h-18c-1.654 0-3 1.346-3 3v16c0 1.654 1.346 3 3 3h18c1.654 0 3-1.346 3-3v-16c0-1.654-1.346-3-3-3z" fill="#eceff1"/><path d="m3 1h18c1.657 0 3 1.343 3 3v3.5h-24v-3.5c0-1.657 1.343-3 3-3z" fill="#4caf50"/><path d="m12 7.5h-12v12.5c0 1.654 1.346 3 3 3h9z" fill="#cdd0d2"/><path d="m12 1h-9c-1.657 0-3 1.343-3 3v3.5h12z" fill="#429846"/><g fill="#81c784"><path d="m18.5 14h3.5v2.5h-3.5z"/><path d="m18.5 12v-2.5h3.5v2.5z"/><path d="m21 21h-2.5v-2.5h3.5v1.5c0 .551-.449 1-1 1z"/></g><path d="m20.25 14h-1.75v2.5h1.75z" fill="#70ad73"/><path d="m20.25 9.5h-1.75v2.5h1.75z" fill="#70ad73"/><path d="m20.25 18.5h-1.75v2.5h1.75z" fill="#70ad73"/><g fill="#81c784"><path d="m16.5 9.5v2.5h-3.5v-2.5z"/><path d="m13 18.5h3.5v2.5h-3.5z"/><path d="m13 16.5v-2.5h3.5v2.5z"/></g><path d="m14.75 9.5h-1.75v2.5h1.75z" fill="#70ad73"/><path d="m14.75 18.5h-1.75v2.5h1.75z" fill="#70ad73"/><path d="m14.75 14h-1.75v2.5h1.75z" fill="#70ad73"/><path d="m11 12h-3.5v-2.5h3.5z" fill="#81c784"/><path d="m7.5 14h3.5v2.5h-3.5z" fill="#81c784"/><path d="m11 18.5v2.5h-3.5v-2.5z" fill="#81c784"/><path d="m9.25 9.5h-1.75v2.5h1.75z" fill="#70ad73"/><path d="m9.25 14h-1.75v2.5h1.75z" fill="#70ad73"/><path d="m9.25 18.5h-1.75v2.5h1.75z" fill="#70ad73"/><path d="m5.5 12h-3.5v-2.5h3.5z" fill="#81c784"/><path d="m5.5 14v2.5h-3.5v-2.5z" fill="#81c784"/><path d="m2 20v-1.5h3.5v2.5h-2.5c-.551 0-1-.449-1-1z" fill="#81c784"/><path d="m3.75 9.5h-1.75v2.5h1.75z" fill="#70ad73"/><path d="m3.75 14h-1.75v2.5h1.75z" fill="#70ad73"/><path d="m3.75 18.5h-1.75v1.5c0 .551.449 1 1 1h.75z" fill="#70ad73"/></svg>