<svg enable-background="new 0 0 24 24" height="512" viewBox="0 0 24 24" width="512" xmlns="http://www.w3.org/2000/svg"><path d="m11.75 0h-5.5c-.689 0-1.25.561-1.25 1.25v2.5c0 .689.561 1.25 1.25 1.25h5.5c.689 0 1.25-.561 1.25-1.25v-2.5c0-.689-.561-1.25-1.25-1.25z" fill="#1976d2"/><path d="m10.5 13.75c0-2.343 1.907-4.25 4.25-4.25h3.25v-4.75c0-1.517-1.233-2.75-2.75-2.75h-.75v1.75c0 1.517-1.233 2.75-2.75 2.75h-5.5c-1.517 0-2.75-1.233-2.75-2.75v-1.75h-.75c-1.517 0-2.75 1.233-2.75 2.75v12.5c0 1.517 1.233 2.75 2.75 2.75h7.75z" fill="#2196f3"/><path d="m9 0h-2.75c-.689 0-1.25.561-1.25 1.25v2.5c0 .689.561 1.25 1.25 1.25h2.75z" fill="#1667b7"/><path d="m3.5 2h-.75c-1.517 0-2.75 1.233-2.75 2.75v12.5c0 1.517 1.233 2.75 2.75 2.75h6.25v-13.5h-2.75c-1.517 0-2.75-1.233-2.75-2.75z" fill="#1d83d4"/><path d="m21.25 11h-6.5c-1.517 0-2.75 1.233-2.75 2.75v7.5c0 1.517 1.233 2.75 2.75 2.75h6.5c1.517 0 2.75-1.233 2.75-2.75v-7.5c0-1.517-1.233-2.75-2.75-2.75z" fill="#eceff1"/><g fill="#90a4ae"><path d="m20.25 21.25h-4.5c-.414 0-.75-.336-.75-.75s.336-.75.75-.75h4.5c.414 0 .75.336.75.75s-.336.75-.75.75z"/><path d="m20.25 18.25h-4.5c-.414 0-.75-.336-.75-.75s.336-.75.75-.75h4.5c.414 0 .75.336.75.75s-.336.75-.75.75z"/><path d="m20.25 15.25h-4.5c-.414 0-.75-.336-.75-.75s.336-.75.75-.75h4.5c.414 0 .75.336.75.75s-.336.75-.75.75z"/></g><path d="m18 11h-3.25c-1.517 0-2.75 1.233-2.75 2.75v7.5c0 1.517 1.233 2.75 2.75 2.75h3.25v-2.75h-2.25c-.414 0-.75-.336-.75-.75s.336-.75.75-.75h2.25v-1.5h-2.25c-.414 0-.75-.336-.75-.75s.336-.75.75-.75h2.25v-1.5h-2.25c-.414 0-.75-.336-.75-.75s.336-.75.75-.75h2.25z" fill="#cdd0d2"/><g fill="#7d8f97"><path d="m18 19.75h-2.25c-.414 0-.75.336-.75.75s.336.75.75.75h2.25z"/><path d="m18 16.75h-2.25c-.414 0-.75.336-.75.75s.336.75.75.75h2.25z"/><path d="m18 13.75h-2.25c-.414 0-.75.336-.75.75s.336.75.75.75h2.25z"/></g></svg>