<svg enable-background="new 0 0 24 24" height="512" viewBox="0 0 24 24" width="512" xmlns="http://www.w3.org/2000/svg"><path d="m9.75 19.5c-2.343 0-4.25-1.907-4.25-4.25v-10.25h-1.75c-1.517 0-2.75 1.233-2.75 2.75v13.5c0 1.517 1.233 2.75 2.75 2.75h12.5c1.517 0 2.75-1.233 2.75-2.75v-1.75z" fill="#1976d2"/><path d="m5.5 5h-1.75c-1.517 0-2.75 1.233-2.75 2.75v13.5c0 1.517 1.233 2.75 2.75 2.75h6.25v-4.5h-.25c-2.343 0-4.25-1.907-4.25-4.25z" fill="#1667b7"/><path d="m23 2.75c0-1.519-1.231-2.75-2.75-2.75h-10.5c-1.519 0-2.75 1.231-2.75 2.75v12.5c0 1.519 1.231 2.75 2.75 2.75h10.5c1.519 0 2.75-1.232 2.75-2.75z" fill="#2196f3"/><path d="m15 0h-5.25c-1.519 0-2.75 1.231-2.75 2.75v12.5c0 1.519 1.231 2.75 2.75 2.75h5.25z" fill="#1d83d4"/></svg>