<svg enable-background="new 0 0 24 24" height="512" viewBox="0 0 24 24" width="512" xmlns="http://www.w3.org/2000/svg"><path d="m21.25 4h-13.75c-.208 0-.407.086-.549.239l-6.75 7.25c-.269.288-.269.734 0 1.022l6.75 7.25c.142.153.341.239.549.239h13.75c1.517 0 2.75-1.233 2.75-2.75v-10.5c0-1.517-1.233-2.75-2.75-2.75z" fill="#607d8b"/><path d="m16.864 12 2.618-2.819c.376-.405.352-1.038-.052-1.414s-1.038-.352-1.413.052l-2.517 2.712-2.518-2.711c-.375-.405-1.01-.428-1.413-.052-.404.376-.428 1.009-.052 1.414l2.619 2.818-2.618 2.819c-.376.405-.353 1.038.052 1.414.192.179.437.267.681.267.269 0 .536-.107.732-.319l2.518-2.711 2.518 2.711c.196.212.464.319.732.319.244 0 .488-.088.681-.267.404-.376.428-1.009.052-1.414z" fill="#fff"/><path d="m24 12h-7.136l2.618 2.819c.376.405.352 1.038-.052 1.414-.192.179-.436.267-.681.267-.269 0-.536-.107-.732-.319l-2.517-2.712-2.518 2.711c-.196.212-.464.319-.732.319-.244 0-.488-.088-.681-.267-.404-.376-.428-1.009-.052-1.414l2.619-2.818h-14.136v.022c.005.176.072.351.201.49l6.75 7.25c.142.152.341.238.549.238h13.75c1.517 0 2.75-1.233 2.75-2.75z" fill="#546d79"/><path d="m16.864 12h-2.728l-2.618 2.819c-.376.405-.353 1.038.052 1.414.192.179.437.267.681.267.269 0 .536-.107.732-.319l2.518-2.711 2.518 2.711c.196.212.464.319.732.319.244 0 .488-.088.681-.267.404-.376.428-1.009.052-1.414z" fill="#dedede"/></svg>