<svg enable-background="new 0 0 24 24" height="512" viewBox="0 0 24 24" width="512" xmlns="http://www.w3.org/2000/svg"><path d="m17 24h-14c-1.654 0-3-1.346-3-3v-14c0-1.654 1.346-3 3-3h8c.553 0 1 .448 1 1s-.447 1-1 1h-8c-.552 0-1 .449-1 1v14c0 .551.448 1 1 1h14c.552 0 1-.449 1-1v-8c0-.552.447-1 1-1s1 .448 1 1v8c0 1.654-1.346 3-3 3z" fill="#607d8b"/><path d="m17.288 3.177-7.912 7.912c-.07.07-.117.159-.137.255l-.707 3.536c-.033.164.018.334.137.452.095.095.223.146.354.146l.098-.01 3.535-.707c.098-.019.186-.067.256-.137l7.912-7.912z" fill="#42a5f5"/><path d="m23.268.732c-.975-.975-2.561-.975-3.535 0l-1.384 1.384 3.535 3.535 1.384-1.384c.472-.471.732-1.099.732-1.767s-.26-1.296-.732-1.768z" fill="#42a5f5"/><path d="m19 12c-.553 0-1 .448-1 1v8c0 .551-.448 1-1 1h-14c-.276 0-.526-.112-.707-.293l-1.413 1.413c.543.544 1.293.88 2.12.88h14c1.654 0 3-1.346 3-3v-8c0-.553-.447-1-1-1z" fill="#546d79"/><g fill="#3990d5"><path d="m19.056 4.944-10.387 10.387c.095.095.223.146.354.146l.098-.01 3.535-.707c.098-.019.186-.067.256-.137l7.912-7.912z"/><path d="m23.268.732-3.151 3.151 1.768 1.768 1.384-1.384c.471-.471.731-1.099.731-1.767s-.26-1.296-.732-1.768z"/></g></svg>