<svg enable-background="new 0 0 24 24" height="512" viewBox="0 0 24 24" width="512" xmlns="http://www.w3.org/2000/svg"><path d="m22.92 9.67c0 .8-.31 1.55-.88 2.12l-3.71 3.71-9.16-9.16 3.71-3.71c1.11-1.13 3.14-1.13 4.26.01l4.9 4.9c.57.57.88 1.33.88 2.13z" fill="#42a5f5"/><path d="m18.33 15.5-4.51 4.5h-8.31l-2.88-2.87c-.56-.56-.88-1.31-.88-2.12 0-.82.32-1.57.89-2.14l6.53-6.53z" fill="#eceff1"/><path d="m15.001 1.784c-.784 0-1.567.283-2.121.846l-3.71 3.71 4.59 4.59 5.835-5.835-2.455-2.455c-.561-.571-1.351-.856-2.139-.856z" fill="#3990d5"/><path d="m9.17 6.34-6.53 6.53c-.57.57-.89 1.32-.89 2.14 0 .81.32 1.56.88 2.12l2.469 2.461 8.661-8.661z" fill="#cdd0d2"/><path d="m21 21h-18c-.552 0-1-.448-1-1s.448-1 1-1h18c.552 0 1 .448 1 1s-.448 1-1 1z" fill="#607d8b"/><path d="m12 19h-9c-.552 0-1 .448-1 1s.448 1 1 1h9z" fill="#546d79"/></svg>