<svg enable-background="new 0 0 24 24" height="512" viewBox="0 0 24 24" width="512" xmlns="http://www.w3.org/2000/svg"><path d="m23.752 10.747c-1.951-4.706-6.564-7.747-11.752-7.747s-9.801 3.041-11.752 7.747c-.33.796-.33 1.71 0 2.506 1.951 4.707 6.564 7.747 11.752 7.747s9.801-3.04 11.752-7.747c.33-.796.33-1.71 0-2.506zm-11.752 5.253c-2.206 0-4-1.794-4-4s1.794-4 4-4 4 1.794 4 4-1.794 4-4 4z" fill="#2196f3"/><path d="m12 3c-5.188 0-9.801 3.041-11.752 7.747-.33.796-.33 1.71 0 2.506 1.951 4.707 6.564 7.747 11.752 7.747v-5c-2.206 0-4-1.794-4-4s1.794-4 4-4z" fill="#1d83d4"/></svg>