<svg enable-background="new 0 0 24 24" height="512" viewBox="0 0 24 24" width="512" xmlns="http://www.w3.org/2000/svg"><path d="m17.5 0h-15.75c-.965 0-1.75.785-1.75 1.75v1.926c0 .735.286 1.426.806 1.945l5.828 5.824c.232.232.366.555.366.884v7.921c0 .293.17.559.437.681.1.047.207.069.313.069.176 0 .35-.062.488-.181l2.801-2.401c.611-.523.961-1.284.961-2.088v-3.98c0-.337.139-.666.382-.9l6.027-5.815c.534-.515.84-1.237.84-1.979v-1.906c.001-.965-.784-1.75-1.749-1.75z" fill="#4caf50"/><path d="m9.625 0h-7.875c-.965 0-1.75.785-1.75 1.75v1.926c0 .735.286 1.426.806 1.945l5.828 5.824c.232.232.366.555.366.884v7.921c0 .293.17.559.437.681.1.047.207.069.313.069.176 0 .35-.062.488-.181l1.387-1.189z" fill="#429846"/><path d="m22.25 12h-6.5c-.965 0-1.75.785-1.75 1.75v8.5c0 .965.785 1.75 1.75 1.75h6.5c.965 0 1.75-.785 1.75-1.75v-8.5c0-.965-.785-1.75-1.75-1.75z" fill="#eceff1"/><path d="m20.25 17.5h-2.5c-.414 0-.75-.336-.75-.75s.336-.75.75-.75h2.5c.414 0 .75.336.75.75s-.336.75-.75.75z" fill="#90a4ae"/><path d="m20.25 20.5h-2.5c-.414 0-.75-.336-.75-.75s.336-.75.75-.75h2.5c.414 0 .75.336.75.75s-.336.75-.75.75z" fill="#90a4ae"/><path d="m19 12h-3.25c-.965 0-1.75.785-1.75 1.75v8.5c0 .965.785 1.75 1.75 1.75h3.25v-3.5h-1.25c-.414 0-.75-.336-.75-.75s.336-.75.75-.75h1.25v-1.5h-1.25c-.414 0-.75-.336-.75-.75s.336-.75.75-.75h1.25z" fill="#cdd0d2"/><g fill="#7d8f97"><path d="m19 16h-1.25c-.414 0-.75.336-.75.75s.336.75.75.75h1.25z"/><path d="m19 19h-1.25c-.414 0-.75.336-.75.75s.336.75.75.75h1.25z"/></g></svg>