<svg enable-background="new 0 0 24 24" height="512" viewBox="0 0 24 24" width="512" xmlns="http://www.w3.org/2000/svg"><path d="m23.707 22.293-3.822-3.822c.699-.981 1.115-2.177 1.115-3.471 0-3.309-2.691-6-6-6s-6 2.691-6 6 2.691 6 6 6c1.294 0 2.49-.416 3.471-1.115l3.822 3.822c.195.195.451.293.707.293s.512-.098.707-.293c.391-.391.391-1.023 0-1.414z" fill="#42a5f5"/><path d="m10.783 10.735c-1.1 1.089-1.783 2.599-1.783 4.265 0 3.309 2.691 6 6 6 1.294 0 2.49-.416 3.471-1.115l3.822 3.822c.195.195.451.293.707.293s.512-.098.707-.293c.008-.008.016-.016.023-.024z" fill="#3990d5"/><path d="m7 15c0-4.411 3.589-8 8-8 1.892 0 3.629.663 5 1.765v-6.015c0-1.517-1.233-2.75-2.75-2.75h-14.5c-1.517 0-2.75 1.233-2.75 2.75v14.5c0 1.517 1.233 2.75 2.75 2.75h6.015c-1.102-1.371-1.765-3.108-1.765-5z" fill="#607d8b"/><path d="m10 0h-7.25c-1.517 0-2.75 1.233-2.75 2.75v14.5c0 1.517 1.233 2.75 2.75 2.75h6.015c-1.102-1.371-1.765-3.108-1.765-5 0-2.521 1.172-4.773 3-6.241z" fill="#546d79"/></svg>