<svg enable-background="new 0 0 24 24" height="512" viewBox="0 0 24 24" width="512" xmlns="http://www.w3.org/2000/svg"><path d="m6.537 13.057c-.279-.116-.603-.052-.817.163l-2.243 2.243c-.94-1.295-1.477-2.852-1.477-4.463 0-2.315 1.052-4.487 2.886-5.96.43-.346.499-.976.153-1.406-.346-.431-.975-.499-1.406-.154-2.309 1.855-3.633 4.596-3.633 7.52 0 2.143.749 4.208 2.052 5.887l-1.832 1.833c-.214.214-.279.537-.163.817s.39.463.693.463h5.5c.414 0 .75-.336.75-.75v-5.5c0-.303-.183-.577-.463-.693z" fill="#4caf50"/><path d="m2.069 12h-2.015c.194 1.78.898 3.471 1.998 4.887l-1.832 1.833c-.214.214-.279.537-.163.817s.39.463.693.463h5.5c.414 0 .75-.336.75-.75v-5.5c0-.303-.183-.577-.463-.693-.092-.038-.19-.057-.287-.057-.195 0-.387.076-.531.22l-2.243 2.243c-.743-1.025-1.234-2.214-1.407-3.463z" fill="#429846"/><path d="m22 13h-12c-.552 0-1-.448-1-1s.448-1 1-1h12c.552 0 1 .448 1 1s-.448 1-1 1z" fill="#607d8b"/><path d="m23.6 21.83-7.011-6.51c-.477-.424-1.195-.48-1.779.12l-6.327 6.33-.113.1c-.239.238-.37.55-.37.88 0 .689.561 1.25 1.25 1.25h13.5c.689 0 1.25-.561 1.25-1.25 0-.351-.153-.698-.4-.92z" fill="#b0bec5"/><path d="m22.75 0h-13.5c-.689 0-1.25.561-1.25 1.25 0 .328.131.64.44.94l6.33 6.327.102.115c.238.237.55.368.878.368.309 0 .607-.114.85-.33l6.992-6.493c.26-.234.408-.572.408-.927 0-.689-.561-1.25-1.25-1.25z" fill="#b0bec5"/><path d="m15.792 11h-5.792c-.552 0-1 .448-1 1s.448 1 1 1h5.791v-2z" fill="#546d79"/><g fill="#99a5ac"><path d="m15.769 14.995c-.321 0-.658.135-.959.444l-6.327 6.33-.113.1c-.239.239-.37.551-.37.881 0 .579.395 1.067.93 1.208h6.862v-8.963c-.008 0-.015 0-.023 0z"/><path d="m15.792 0h-6.542c-.689 0-1.25.561-1.25 1.25 0 .328.131.64.44.94l6.33 6.327.102.115c.238.237.55.368.878.368.014 0 .028 0 .041-.001v-8.999z"/></g></svg>