<svg enable-background="new 0 0 24 24" height="512" viewBox="0 0 24 24" width="512" xmlns="http://www.w3.org/2000/svg"><path d="m20.52 3.633c-1.855-2.309-4.596-3.633-7.52-3.633-2.143 0-4.207.749-5.887 2.052l-1.833-1.832c-.215-.215-.537-.278-.817-.163-.28.116-.463.39-.463.693v5.5c0 .414.336.75.75.75h5.5c.303 0 .577-.183.693-.463s.052-.603-.163-.817l-2.242-2.243c1.295-.94 2.851-1.477 4.462-1.477 2.315 0 4.487 1.052 5.96 2.886.346.43.975.498 1.406.153.431-.346.5-.975.154-1.406z" fill="#4caf50"/><path d="m4.75 0c-.097 0-.194.019-.287.057-.28.116-.463.39-.463.693v5.5c0 .414.336.75.75.75h5.5c.303 0 .577-.183.693-.463s.052-.603-.163-.817l-2.242-2.243c1.024-.744 2.213-1.235 3.462-1.408v-2.015c-1.78.194-3.471.898-4.887 1.998l-1.833-1.832c-.143-.144-.335-.22-.53-.22z" fill="#429846"/><path d="m12 23c-.552 0-1-.448-1-1v-12c0-.552.448-1 1-1s1 .448 1 1v12c0 .552-.448 1-1 1z" fill="#607d8b"/><path d="m8.56 14.81-6.33-6.327-.101-.115c-.239-.237-.551-.368-.879-.368-.689 0-1.25.561-1.25 1.25v13.5c0 .689.561 1.25 1.25 1.25.356 0 .693-.148.92-.4l6.51-7.011c.206-.232.32-.529.32-.839 0-.328-.131-.64-.44-.94z" fill="#b0bec5"/><path d="m21.81 8.44-6.329 6.331-.112.1c-.238.239-.369.551-.369.879 0 .31.114.607.33.85l6.492 6.991c.23.256.577.409.928.409.689 0 1.25-.561 1.25-1.25v-13.5c0-1.019-1.267-1.764-2.19-.81z" fill="#b0bec5"/><path d="m13 15.758h-2v6.242c0 .552.448 1 1 1s1-.448 1-1z" fill="#546d79"/><g fill="#99a5ac"><path d="m9 15.758h-9v6.992c0 .689.561 1.25 1.25 1.25.356 0 .693-.148.92-.4l6.51-7.011c.205-.23.318-.524.32-.831z"/><path d="m24 15.758h-9c.002.307.116.602.33.842l6.492 6.991c.23.256.577.409.928.409.689 0 1.25-.561 1.25-1.25z"/></g></svg>