<svg enable-background="new 0 0 24 24" height="512" viewBox="0 0 24 24" width="512" xmlns="http://www.w3.org/2000/svg"><path d="m12 23c-.552 0-1-.448-1-1v-12c0-.552.448-1 1-1s1 .448 1 1v12c0 .552-.448 1-1 1z" fill="#607d8b"/><path d="m8.56 14.81-6.33-6.327-.101-.115c-.239-.237-.551-.368-.879-.368-.689 0-1.25.561-1.25 1.25v13.5c0 .689.561 1.25 1.25 1.25.356 0 .693-.148.92-.4l6.51-7.011c.206-.232.32-.529.32-.839 0-.328-.131-.64-.44-.94z" fill="#b0bec5"/><path d="m21.81 8.44-6.329 6.331-.112.1c-.238.239-.369.551-.369.879 0 .31.114.607.33.85l6.492 6.991c.23.256.577.409.928.409.689 0 1.25-.561 1.25-1.25v-13.5c0-1.019-1.267-1.764-2.19-.81z" fill="#b0bec5"/><path d="m13 15.758h-2v6.242c0 .552.448 1 1 1s1-.448 1-1z" fill="#546d79"/><path d="m9 15.758h-9v6.992c0 .689.561 1.25 1.25 1.25.356 0 .693-.148.92-.4l6.51-7.011c.205-.23.318-.524.32-.831z" fill="#99a5ac"/><path d="m24 15.758h-9c.002.307.116.602.33.842l6.492 6.991c.23.256.577.409.928.409.689 0 1.25-.561 1.25-1.25z" fill="#99a5ac"/><path d="m19.537.057c-.28-.117-.602-.052-.817.163l-1.833 1.832c-1.679-1.303-3.744-2.052-5.887-2.052-2.925 0-5.666 1.324-7.52 3.634-.346.43-.277 1.06.154 1.406.431.347 1.061.277 1.405-.154 1.473-1.834 3.646-2.886 5.961-2.886 1.61 0 3.168.537 4.463 1.476l-2.243 2.244c-.215.214-.278.537-.163.817.116.28.389.463.693.463h5.5c.414 0 .75-.336.75-.75v-5.5c0-.303-.183-.577-.463-.693z" fill="#4caf50"/><path d="m11 0c-2.925 0-5.666 1.324-7.52 3.634-.346.43-.277 1.06.154 1.406.184.148.405.22.625.22.293 0 .583-.128.78-.375 1.473-1.833 3.646-2.885 5.961-2.885.336 0 .67.023 1 .069v-2.015c-.331-.036-.664-.054-1-.054z" fill="#429846"/></svg>