<svg enable-background="new 0 0 24 24" height="512" viewBox="0 0 24 24" width="512" xmlns="http://www.w3.org/2000/svg"><path d="m21 22h-18c-.553 0-1-.448-1-1s.447-1 1-1h18c.553 0 1 .448 1 1s-.447 1-1 1z" fill="#4caf50"/><path d="m12 20h-9c-.553 0-1 .448-1 1s.447 1 1 1h9z" fill="#429846"/><path d="m9.953 15.926-2.13-2.13c-.094-.093-.22-.146-.353-.146s-.261.053-.354.147l-4.338 4.35c-.143.143-.184.358-.107.545.076.186.259.308.461.308h4.248c.133 0 .26-.053.354-.147l2.22-2.22c.194-.195.194-.511-.001-.707z" fill="#4caf50"/><path d="m13.515 15.893-5.657-5.657c-.17-.17-.412-.248-.65-.21-.238.039-.443.189-.551.405l-1.414 2.829c-.145.289-.088.638.141.866l4.243 4.243c.144.144.336.22.53.22.114 0 .228-.026.335-.079l2.828-1.414c.216-.108.367-.313.405-.551.039-.24-.039-.482-.21-.652z" fill="#eceff1"/><path d="m22.444 3.609-2.304-2.303c-1.02-1.022-2.67-1.075-3.756-.126l-9.905 8.668c-.156.137-.248.332-.256.539-.007.208.073.409.22.555l6.364 6.364c.141.141.332.22.53.22h.025c.207-.007.402-.1.539-.256l8.667-9.906c.952-1.086.897-2.736-.124-3.755z" fill="#607d8b"/><path d="m6.087 14.828-3.309 3.319c-.143.143-.184.358-.107.545.076.186.259.308.461.308h1.887l2.62-2.62z" fill="#429846"/><path d="m6.415 10.913-1.173 2.346c-.145.289-.088.638.141.866l.704.704 1.552 1.552 2.121-2.121-3.317-3.317c-.009-.01-.019-.02-.028-.03z" fill="#cdd0d2"/><path d="m18.195.502c-.645 0-1.292.225-1.81.678l-9.906 8.668c-.156.137-.248.332-.256.539-.006.194.063.382.192.525.009.01.019.02.028.03l3.317 3.317 11.667-11.667-1.286-1.286c-.534-.534-1.239-.804-1.946-.804z" fill="#546d79"/></svg>