<svg enable-background="new 0 0 24 24" height="512" viewBox="0 0 24 24" width="512" xmlns="http://www.w3.org/2000/svg"><path d="m12.879 17.121c-.567-.566-.879-1.32-.879-2.121s.312-1.555.879-2.121c.566-.567 1.32-.879 2.121-.879s1.555.312 2.121.879l2.879 2.878v-13.007c0-1.517-1.233-2.75-2.75-2.75h-14.5c-1.517 0-2.75 1.233-2.75 2.75v14.5c0 1.517 1.233 2.75 2.75 2.75h13.008z" fill="#607d8b"/><path d="m10 0h-7.25c-1.517 0-2.75 1.233-2.75 2.75v14.5c0 1.517 1.233 2.75 2.75 2.75h7.25z" fill="#546d79"/><path d="m14.293 15.707 4.97 4.97-2.043 2.043c-.215.214-.278.537-.163.817.116.28.389.463.693.463h5.5c.414 0 .75-.336.75-.75v-5.5c0-.303-.183-.577-.463-.693-.093-.038-.19-.057-.287-.057-.195 0-.387.076-.53.22l-2.043 2.043-4.97-4.97c-.195-.195-.451-.293-.707-.293s-.512.098-.707.293c-.391.391-.391 1.023 0 1.414z" fill="#4caf50"/><path d="m14.293 14.293c-.391.391-.391 1.023 0 1.414l4.97 4.97-2.043 2.043c-.215.214-.278.537-.163.817.116.28.389.463.693.463h5.5c.207 0 .395-.084.53-.22z" fill="#429846"/></svg>