<svg enable-background="new 0 0 24 24" height="512" viewBox="0 0 24 24" width="512" xmlns="http://www.w3.org/2000/svg"><path d="m12 14.75c0-1.517 1.233-2.75 2.75-2.75h5.25v-9.25c0-1.517-1.233-2.75-2.75-2.75h-14.5c-1.517 0-2.75 1.233-2.75 2.75v14.5c0 1.517 1.233 2.75 2.75 2.75h9.25z" fill="#607d8b"/><path d="m10 0h-7.25c-1.517 0-2.75 1.233-2.75 2.75v14.5c0 1.517 1.233 2.75 2.75 2.75h7.25z" fill="#546d79"/><path d="m23.707 22.293-4.97-4.97 2.043-2.043c.215-.214.278-.537.163-.817-.116-.28-.389-.463-.693-.463h-5.5c-.414 0-.75.336-.75.75v5.5c0 .303.183.577.463.693.093.038.19.057.287.057.195 0 .387-.076.53-.22l2.043-2.043 4.97 4.97c.195.195.451.293.707.293s.512-.098.707-.293c.391-.391.391-1.023 0-1.414z" fill="#4caf50"/><path d="m14.22 14.22c-.136.135-.22.323-.22.53v5.5c0 .303.183.577.463.693.093.038.19.057.287.057.195 0 .387-.076.53-.22l2.043-2.043 4.97 4.97c.195.195.451.293.707.293s.512-.098.707-.293z" fill="#429846"/></svg>