<svg enable-background="new 0 0 24 24" height="512" viewBox="0 0 24 24" width="512" xmlns="http://www.w3.org/2000/svg"><path d="m23.847 19.149-8.501-15.5c-.22-.4-.64-.649-1.096-.649-.689 0-1.25.561-1.25 1.25v15.5c0 .69.561 1.25 1.25 1.25h8.5c.689 0 1.25-.56 1.25-1.25 0-.21-.053-.417-.153-.601z" fill="#1976d2"/><path d="m9.75 3c-.456 0-.876.249-1.096.649l-8.5 15.5h-.001c-.1.184-.153.391-.153.601 0 .69.561 1.25 1.25 1.25h8.5c.689 0 1.25-.56 1.25-1.25v-15.5c0-.689-.561-1.25-1.25-1.25z" fill="#2196f3"/><path d="m19.925 12h-6.925v7.75c0 .69.561 1.25 1.25 1.25h8.5c.689 0 1.25-.56 1.25-1.25 0-.209-.053-.417-.153-.601h-.001z" fill="#1667b7"/><path d="m4.075 12h-4.075v7.75c0-.209.053-.417.153-.601h.001z" fill="#dedede"/><path d="m11 12h-6.925l-3.92 7.149h-.001c-.101.184-.154.391-.154.601 0 .69.561 1.25 1.25 1.25h8.5c.689 0 1.25-.56 1.25-1.25z" fill="#1d83d4"/></svg>