<svg enable-background="new 0 0 24 24" height="512" viewBox="0 0 24 24" width="512" xmlns="http://www.w3.org/2000/svg"><path d="m21 22h-18c-.553 0-1-.448-1-1s.447-1 1-1h18c.553 0 1 .448 1 1s-.447 1-1 1z" fill="#2196f3"/><path d="m12 20h-9c-.553 0-1 .448-1 1s.447 1 1 1h9z" fill="#1d83d4"/><path d="m20.126 12.337c-.277-.422-.975-.422-1.252 0-.439.667-1.874 2.932-1.874 4.08 0 1.424 1.121 2.583 2.5 2.583s2.5-1.159 2.5-2.583c0-1.148-1.435-3.413-1.874-4.08z" fill="#2196f3"/><path d="m19.5 12.021c-.244 0-.487.105-.626.316-.439.667-1.874 2.932-1.874 4.08 0 1.424 1.121 2.583 2.5 2.583z" fill="#1d83d4"/><path d="m19.033 9.771-8.234-8.234c-.293-.293-.768-.293-1.061 0l-7.547 7.548c-1.049 1.049-1.049 2.756 0 3.805l5.489 5.489c.525.525 1.213.787 1.902.786.689 0 1.378-.262 1.902-.786l7.548-7.548c.14-.14.22-.331.22-.53 0-.198-.079-.39-.219-.53z" fill="#607d8b"/><path d="m14.886 5.625-4.087-4.087c-.293-.293-.768-.293-1.061 0l-7.547 7.547c-1.049 1.049-1.049 2.756 0 3.805l2.715 2.715z" fill="#546d79"/></svg>