<svg enable-background="new 0 0 24 24" height="512" viewBox="0 0 24 24" width="512" xmlns="http://www.w3.org/2000/svg"><path d="m9.5 16.5c-.553 0-1-.448-1-1v-1.5c0-1.654 1.346-3 3-3h10.5v-5.5h-2.5c-.553 0-1-.448-1-1s.447-1 1-1h2.5c1.103 0 2 .897 2 2v5.5c0 1.103-.897 2-2 2h-10.5c-.552 0-1 .449-1 1v1.5c0 .552-.447 1-1 1z" fill="#b0bec5"/><path d="m24 10h-2v1h-10.5c-1.654 0-3 1.346-3 3v1.5c0 .552.447 1 1 1s1-.448 1-1v-1.5c0-.551.448-1 1-1h10.5c1.103 0 2-.897 2-2z" fill="#99a5ac"/><path d="m11.25 15h-3.5c-.965 0-1.75.785-1.75 1.75v5.5c0 .965.785 1.75 1.75 1.75h3.5c.965 0 1.75-.785 1.75-1.75v-5.5c0-.965-.785-1.75-1.75-1.75z" fill="#607d8b"/><path d="m9.5 15h-1.75c-.965 0-1.75.785-1.75 1.75v5.5c0 .965.785 1.75 1.75 1.75h1.75z" fill="#546d79"/><path d="m17.25 0h-14.5c-1.517 0-2.75 1.233-2.75 2.75v3.5c0 1.517 1.233 2.75 2.75 2.75h14.5c1.517 0 2.75-1.233 2.75-2.75v-3.5c0-1.517-1.233-2.75-2.75-2.75z" fill="#4caf50"/><path d="m10 0h-7.25c-1.517 0-2.75 1.233-2.75 2.75v3.5c0 1.517 1.233 2.75 2.75 2.75h7.25z" fill="#429846"/></svg>