<svg enable-background="new 0 0 24 24" height="512" viewBox="0 0 24 24" width="512" xmlns="http://www.w3.org/2000/svg"><path d="m23.707 19.293-3.822-3.822c.699-.981 1.115-2.177 1.115-3.471 0-3.309-2.691-6-6-6s-6 2.691-6 6 2.691 6 6 6c1.294 0 2.49-.416 3.471-1.115l3.822 3.822c.195.195.451.293.707.293s.512-.098.707-.293c.391-.391.391-1.023 0-1.414z" fill="#42a5f5"/><path d="m10.783 7.735c-1.1 1.089-1.783 2.599-1.783 4.265 0 3.309 2.691 6 6 6 1.294 0 2.49-.416 3.471-1.115l3.822 3.822c.195.195.451.293.707.293s.512-.098.707-.293c.008-.008.016-.016.023-.024z" fill="#3990d5"/><g fill="#b0bec5"><path d="m17.25 3h-16.25c-.552 0-1-.448-1-1s.448-1 1-1h16.25c.552 0 1 .448 1 1s-.448 1-1 1z"/><path d="m8.25 8h-7.25c-.552 0-1-.448-1-1s.448-1 1-1h7.25c.552 0 1 .448 1 1s-.448 1-1 1z"/><path d="m8.25 18h-7.25c-.552 0-1-.448-1-1s.448-1 1-1h7.25c.552 0 1 .448 1 1s-.448 1-1 1z"/><path d="m6.25 13h-5.25c-.552 0-1-.448-1-1s.448-1 1-1h5.25c.552 0 1 .448 1 1s-.448 1-1 1z"/></g><g fill="#99a5ac"><path d="m9.125 1h-8.125c-.552 0-1 .448-1 1s.448 1 1 1h8.125z"/><path d="m4.625 6h-3.625c-.552 0-1 .448-1 1s.448 1 1 1h3.625z"/><path d="m4.625 16h-3.625c-.552 0-1 .448-1 1s.448 1 1 1h3.625z"/><path d="m3.625 11h-2.625c-.552 0-1 .448-1 1s.448 1 1 1h2.625z"/></g></svg>