<svg enable-background="new 0 0 24 24" height="512" viewBox="0 0 24 24" width="512" xmlns="http://www.w3.org/2000/svg"><g fill="#42a5f5"><path d="m3.5 6h-3c-.276 0-.5-.224-.5-.5v-3c0-.276.224-.5.5-.5h3c.276 0 .5.224.5.5v3c0 .276-.224.5-.5.5z"/><path d="m3.5 14h-3c-.276 0-.5-.224-.5-.5v-3c0-.276.224-.5.5-.5h3c.276 0 .5.224.5.5v3c0 .276-.224.5-.5.5z"/><path d="m3.5 22h-3c-.276 0-.5-.224-.5-.5v-3c0-.276.224-.5.5-.5h3c.276 0 .5.224.5.5v3c0 .276-.224.5-.5.5z"/></g><g fill="#3990d5"><path d="m2 2h-1.5c-.276 0-.5.224-.5.5v3c0 .276.224.5.5.5h1.5z"/><path d="m2 10h-1.5c-.276 0-.5.224-.5.5v3c0 .276.224.5.5.5h1.5z"/><path d="m2 18h-1.5c-.276 0-.5.224-.5.5v3c0 .276.224.5.5.5h1.5z"/></g><path d="m23 5h-15c-.553 0-1-.447-1-1s.447-1 1-1h15c.553 0 1 .447 1 1s-.447 1-1 1z" fill="#607d8b"/><path d="m23 13h-15c-.553 0-1-.447-1-1s.447-1 1-1h15c.553 0 1 .447 1 1s-.447 1-1 1z" fill="#607d8b"/><path d="m23 21h-15c-.553 0-1-.447-1-1s.447-1 1-1h15c.553 0 1 .447 1 1s-.447 1-1 1z" fill="#607d8b"/><path d="m15.5 3h-7.5c-.553 0-1 .447-1 1s.447 1 1 1h7.5z" fill="#546d79"/><path d="m15.5 11h-7.5c-.553 0-1 .447-1 1s.447 1 1 1h7.5z" fill="#546d79"/><path d="m15.5 19h-7.5c-.553 0-1 .447-1 1s.447 1 1 1h7.5z" fill="#546d79"/></svg>