<svg enable-background="new 0 0 24 24" height="512" viewBox="0 0 24 24" width="512" xmlns="http://www.w3.org/2000/svg"><path d="m7.5 4h-3c-1.379 0-2.5 1.122-2.5 2.5v3c0 1.378 1.121 2.5 2.5 2.5h3c.171 0 .338-.018.5-.051v2.051c0 2.206-1.794 4-4 4h-1c-.553 0-1 .448-1 1s.447 1 1 1h1c3.309 0 6-2.691 6-6v-7.5c0-1.378-1.121-2.5-2.5-2.5z" fill="#42a5f5"/><path d="m6 17.463c-.589.342-1.272.537-2 .537h-1c-.553 0-1 .448-1 1s.447 1 1 1h1c.701 0 1.374-.121 2-.343zm0-13.463h-1.5c-1.379 0-2.5 1.122-2.5 2.5v3c0 1.378 1.121 2.5 2.5 2.5h1.5z" fill="#3990d5"/><path d="m19.5 4h-3c-1.379 0-2.5 1.122-2.5 2.5v3c0 1.378 1.121 2.5 2.5 2.5h3c.171 0 .338-.018.5-.051v2.051c0 2.205-1.794 4-4 4h-1c-.553 0-1 .448-1 1s.447 1 1 1h1c3.309 0 6-2.691 6-6v-7.5c0-1.378-1.121-2.5-2.5-2.5z" fill="#42a5f5"/><path d="m18 17.463c-.589.342-1.272.537-2 .537h-1c-.553 0-1 .448-1 1s.447 1 1 1h1c.701 0 1.374-.121 2-.343zm0-13.463h-1.5c-1.379 0-2.5 1.122-2.5 2.5v3c0 1.378 1.121 2.5 2.5 2.5h1.5z" fill="#3990d5"/></svg>