<svg xmlns="http://www.w3.org/2000/svg" enable-background="new 0 0 512 512" height="512" width="512" style=""><rect id="backgroundrect" width="100%" height="100%" x="0" y="0" fill="none" stroke="none"/><g class="currentLayer" style=""><title>Layer 1</title><path d="m464.883 64.267h-417.766c-25.98 0-47.117 21.136-47.117 47.149 0 25.98 21.137 47.117 47.117 47.117h417.766c25.98 0 47.117-21.137 47.117-47.117 0-26.013-21.137-47.149-47.117-47.149z" id="svg_1" class="selected" fill="#dadada" fill-opacity="1" opacity="1"/><path d="m464.883,210.32685400676726 h-417.766 c-25.98,0 -47.117,21.136 -47.117,47.149 c0,25.98 21.137,47.117 47.117,47.117 h417.766 c25.98,0 47.117,-21.137 47.117,-47.117 c0,-26.013 -21.137,-47.149 -47.117,-47.149 z" id="svg_2" class="" fill="#dadada" fill-opacity="1"/><path d="m464.883 353.467h-417.766c-25.98 0-47.117 21.137-47.117 47.149 0 25.98 21.137 47.117 47.117 47.117h417.766c25.98 0 47.117-21.137 47.117-47.117 0-26.012-21.137-47.149-47.117-47.149z" id="svg_3" class="" fill="#dadada" fill-opacity="1" opacity="1"/></g></svg>