<svg xmlns="http://www.w3.org/2000/svg" version="1.0" width="74.07407417872969" height="74.07407417872969" preserveAspectRatio="xMidYMid meet"><rect id="backgroundrect" width="100%" height="100%" x="0" y="0" fill="none" stroke="none" class="" style=""/>


<g class="currentLayer" style=""><title>Layer 1</title><g transform="translate(0,96) scale(0.10000000149011612,-0.10000000149011612) " fill="#04b804" stroke="none" id="svg_1" class="" fill-opacity="1">
<path d="M25.022474073693594,932.215066804811 c-14.115226918326385,-12.946503039396546 -16.131687906658726,-58.75720610187663 -16.131687906658726,-342.5843881194163 c0,-283.82718201753966 2.0164609883323408,-329.63788508001977 16.131687906658726,-342.5843881194163 c13.106996424160215,-13.942387888580896 59.48559915580405,-15.934157586949595 346.8312899931626,-15.934157586949595 c287.3456908373586,0 333.7242935690024,1.9917696983686994 346.8312899931626,15.934157586949595 c14.115226918326385,12.946503039396546 16.131687906658726,58.75720610187663 16.131687906658726,342.5843881194163 c0,283.82718201753966 -2.0164609883323408,329.63788508001977 -16.131687906658726,342.5843881194163 c-13.106996424160215,13.942387888580896 -59.48559915580405,15.934157586949595 -346.8312899931626,15.934157586949595 c-287.3456908373586,0 -333.7242935690024,-1.9917696983686994 -346.8312899931626,-15.934157586949595 zm387.16050975980943,-213.11935772545084 l0,-89.62963642659147 l91.7489749691215,0 l90.74074447495533,0 l-3.024691482498511,-36.84773941982094 l-3.024691482498511,-37.84362426900529 l-87.71605299245682,-2.987654547553049 l-87.71605299245682,-2.987654547553049 l-3.024691482498511,-86.64198187903843 l-3.024691482498511,-86.64198187903843 l-35.288067295815964,0 l-35.288067295815964,0 l-3.024691482498511,87.63786672822278 l-3.024691482498511,86.64198187903843 l-89.73251398078916,0 l-90.74074447495533,0 l0,39.83539396737399 l0,39.83539396737399 l90.74074447495533,0 l90.74074447495533,0 l0,89.62963642659147 l0,89.62963642659147 l40.329219766646816,0 l40.329219766646816,0 l0,-89.62963642659147 z" id="svg_2" fill="#04b804" fill-opacity="1"/>
</g></g></svg>