<svg xmlns="http://www.w3.org/2000/svg" version="1.0" width="981.000000" height="798.000000" preserveAspectRatio="xMidYMid meet"><rect id="backgroundrect" width="100%" height="100%" x="0" y="0" fill="none" stroke="none"/>


<g class="currentLayer" style=""><title>Layer 1</title><g transform="translate(0,798) scale(0.10000000149011612,-0.10000000149011612) " fill="#242424" stroke="none" id="svg_1" class="selected" fill-opacity="1">
<path d="M8215 7965 c-85 -18 -141 -42 -212 -89 -41 -27 -857 -827 -2439 -2391 -1307 -1292 -2380 -2351 -2384 -2353 -4 -1 -301 288 -661 644 -451 446 -675 660 -720 690 -191 124 -437 137 -648 33 -81 -40 -99 -57 -529 -478 -244 -240 -462 -458 -483 -485 -162 -203 -181 -491 -49 -717 32 -54 201 -226 962 -979 508 -503 1096 -1086 1308 -1296 236 -234 407 -396 443 -418 74 -48 214 -101 301 -117 138 -24 301 12 418 91 47 31 899 867 2804 2750 3768 3726 3364 3321 3408 3410 88 180 85 380 -6 553 -41 77 -119 159 -638 666 -375 367 -411 399 -480 433 -127 62 -268 81 -395 53z" id="svg_2" fill="#242424" fill-opacity="1"/>
</g></g></svg>