<svg id="color" enable-background="new 0 0 24 24" height="512" viewBox="0 0 24 24" width="512" xmlns="http://www.w3.org/2000/svg"><path d="m19.25 24h-14.5c-1.517 0-2.75-1.233-2.75-2.75v-18.5c0-1.517 1.233-2.75 2.75-2.75h14.5c1.517 0 2.75 1.233 2.75 2.75v18.5c0 1.517-1.233 2.75-2.75 2.75z" fill="#eceff1"/><path d="m12 0h-7.25c-1.517 0-2.75 1.233-2.75 2.75v18.5c0 1.517 1.233 2.75 2.75 2.75h7.25z" fill="#cdd0d2"/><path d="m18.25 21.25h-12.5c-.414 0-.75-.336-.75-.75s.336-.75.75-.75h12.5c.414 0 .75.336.75.75s-.336.75-.75.75z" fill="#90a4ae"/><path d="m12 19.75h-6.25c-.414 0-.75.336-.75.75s.336.75.75.75h6.25z" fill="#7d8f97"/><path d="m15 13c0 2.758-2.242 5-5 5-1.383 0-2.633-.559-3.533-1.467l3.533-3.533v-5c2.758 0 5 2.242 5 5z" fill="#2196f3"/><path d="m10 8v5l-3.533 3.533c-.909-.9-1.467-2.15-1.467-3.533 0-2.758 2.242-5 5-5z" fill="#90caf9"/><path d="m10 13-3.533 3.533c.9.908 2.15 1.467 3.533 1.467 1.524 0 2.891-.685 3.808-1.762-.002 0-.003 0-.003 0z" fill="#1d83d4"/><path d="m5.536 10.75h-.001c-.342.677-.535 1.441-.535 2.25 0 1.383.558 2.633 1.467 3.533l3.533-3.533z" fill="#7db0d9"/><g fill="#cfd8dc"><path d="m18.25 12.25h-1.5c-.414 0-.75-.336-.75-.75s.336-.75.75-.75h1.5c.414 0 .75.336.75.75s-.336.75-.75.75z"/><path d="m18.25 9.5h-1.5c-.414 0-.75-.336-.75-.75s.336-.75.75-.75h1.5c.414 0 .75.336.75.75s-.336.75-.75.75z"/><path d="m18.25 15.25h-1.5c-.414 0-.75-.336-.75-.75s.336-.75.75-.75h1.5c.414 0 .75.336.75.75s-.336.75-.75.75z"/><path d="m18.25 18h-1.5c-.414 0-.75-.336-.75-.75s.336-.75.75-.75h1.5c.414 0 .75.336.75.75s-.336.75-.75.75z"/></g><path d="m17.5 10.75h-.75c-.414 0-.75.336-.75.75s.336.75.75.75h.75z" fill="#b4bcc0"/><path d="m17.5 8h-.75c-.414 0-.75.336-.75.75s.336.75.75.75h.75z" fill="#b4bcc0"/><path d="m17.5 13.75h-.75c-.414 0-.75.336-.75.75s.336.75.75.75h.75z" fill="#b4bcc0"/><path d="m17.5 16.5h-.75c-.414 0-.75.336-.75.75s.336.75.75.75h.75z" fill="#b4bcc0"/></svg>