<svg id="color" enable-background="new 0 0 24 24" height="512" viewBox="0 0 24 24" width="512" xmlns="http://www.w3.org/2000/svg"><path d="m15.25 24h-12.5c-1.517 0-2.75-1.233-2.75-2.75v-15.5c0-1.517 1.233-2.75 2.75-2.75h12.5c1.517 0 2.75 1.233 2.75 2.75v15.5c0 1.517-1.233 2.75-2.75 2.75z" fill="#2196f3"/><path d="m12.25 6h-6.5c-.965 0-1.75-.785-1.75-1.75v-1.5c0-.414.336-.75.75-.75h1.603c.329-1.153 1.39-2 2.647-2s2.318.847 2.646 2h1.604c.414 0 .75.336.75.75v1.5c0 .965-.785 1.75-1.75 1.75z" fill="#1976d2"/><path d="m4 3h-1.25c-1.517 0-2.75 1.233-2.75 2.75v15.5c0 1.517 1.233 2.75 2.75 2.75h6.25v-18h-3.25c-.965 0-1.75-.785-1.75-1.75z" fill="#1d83d4"/><path d="m9 0c-1.257 0-2.318.847-2.646 2h-1.604c-.414 0-.75.336-.75.75v.25 1.25c0 .965.785 1.75 1.75 1.75h3.25z" fill="#1667b7"/><g fill="#fff"><path d="m14.25 10.5h-10.5c-.414 0-.75-.336-.75-.75s.336-.75.75-.75h10.5c.414 0 .75.336.75.75s-.336.75-.75.75z"/><path d="m14.25 13.5h-10.5c-.414 0-.75-.336-.75-.75s.336-.75.75-.75h10.5c.414 0 .75.336.75.75s-.336.75-.75.75z"/><path d="m14.25 16.5h-10.5c-.414 0-.75-.336-.75-.75s.336-.75.75-.75h10.5c.414 0 .75.336.75.75s-.336.75-.75.75z"/><path d="m14.25 19.5h-10.5c-.414 0-.75-.336-.75-.75s.336-.75.75-.75h10.5c.414 0 .75.336.75.75s-.336.75-.75.75z"/></g><path d="m9 9h-5.25c-.414 0-.75.336-.75.75s.336.75.75.75h5.25z" fill="#dedede"/><path d="m9 12h-5.25c-.414 0-.75.336-.75.75s.336.75.75.75h5.25z" fill="#dedede"/><path d="m9 15h-5.25c-.414 0-.75.336-.75.75s.336.75.75.75h5.25z" fill="#dedede"/><path d="m9 18h-5.25c-.414 0-.75.336-.75.75s.336.75.75.75h5.25z" fill="#dedede"/><path d="m22 21c-.189 0-.362-.107-.447-.276l-1.289-2.578c-.173-.346-.264-.732-.264-1.118v-9.028c0-1.103.897-2 2-2s2 .897 2 2v9.028c0 .386-.091.772-.264 1.118v.001l-1.289 2.578c-.085.168-.258.275-.447.275zm1.289-3.078h.01z" fill="#ffc107"/><path d="m22 6c-1.103 0-2 .897-2 2v9.028c0 .386.091.772.264 1.118l1.289 2.578c.085.169.258.276.447.276z" fill="#dea806"/></svg>