<svg id="color" enable-background="new 0 0 24 24" height="512" viewBox="0 0 24 24" width="512" xmlns="http://www.w3.org/2000/svg"><path d="m14.25 3h-11.5c-1.52 0-2.75 1.23-2.75 2.75v12.5c0 1.52 1.23 2.75 2.75 2.75h6.61c-.55-1.14-.86-2.41-.86-3.75l.01-.25h-4.76c-.41 0-.75-.34-.75-.75s.34-.75.75-.75h4.93c.12-.61.311-1.2.551-1.75h-5.481c-.41 0-.75-.34-.75-.75s.34-.75.75-.75h6.32c.46-.65 1-1.24 1.609-1.75h-7.929c-.41 0-.75-.34-.75-.75s.34-.75.75-.75h9.5c.21 0 .39.08.53.22.99-.43 2.08-.68 3.22-.71v-2.76c0-1.52-1.23-2.75-2.75-2.75z" fill="#2196f3"/><path d="m12.25 2h-1.1c-.33-1.15-1.39-2-2.65-2s-2.32.85-2.65 2h-1.1c-.41 0-.75.34-.75.75v2c0 .96.79 1.75 1.75 1.75h5.5c.96 0 1.75-.79 1.75-1.75v-2c0-.41-.34-.75-.75-.75z" fill="#1976d2"/><g fill="#fff"><path d="m13.78 9.22c-.76.33-1.47.76-2.1 1.28h-7.93c-.41 0-.75-.34-.75-.75s.34-.75.75-.75h9.5c.21 0 .39.08.53.22z"/><path d="m10.07 12.25c-.33.47-.61.97-.84 1.5h-5.48c-.41 0-.75-.34-.75-.75s.34-.75.75-.75z"/><path d="m8.68 15.5c-.1.49-.16.99-.17 1.5h-4.76c-.41 0-.75-.34-.75-.75s.34-.75.75-.75z"/></g><path d="m4 3h-1.25c-1.52 0-2.75 1.23-2.75 2.75v12.5c0 1.52 1.23 2.75 2.75 2.75h5.75v-3.75-.25h-4.75c-.41 0-.75-.34-.75-.75 0-.41.34-.75.75-.75h4.75v-1.75h-4.75c-.41 0-.75-.34-.75-.75 0-.41.34-.75.75-.75h4.75v-1.75h-4.75c-.41 0-.75-.34-.75-.75 0-.41.34-.75.75-.75h4.75v-2.5h-2.75c-.96 0-1.75-.79-1.75-1.75z" fill="#1d83d4"/><path d="m8.5 0c-1.26 0-2.32.85-2.65 2h-1.1c-.41 0-.75.34-.75.75v.25 1.75c0 .96.79 1.75 1.75 1.75h2.75z" fill="#1667b7"/><path d="m8.5 9h-4.75c-.41 0-.75.34-.75.75 0 .41.34.75.75.75h4.75z" fill="#dedede"/><path d="m8.5 12.25h-4.75c-.41 0-.75.34-.75.75 0 .41.34.75.75.75h4.75z" fill="#dedede"/><path d="m8.5 15.5h-4.75c-.41 0-.75.34-.75.75 0 .41.34.75.75.75h4.75z" fill="#dedede"/><path d="m13.18 22.32c-.256 0-.512-.098-.707-.293-.391-.391-.391-1.023 0-1.414l8.141-8.141c.391-.391 1.023-.391 1.414 0s.391 1.023 0 1.414l-8.141 8.141c-.196.196-.451.293-.707.293z" fill="#f44336"/><path d="m17.25 24c-3.722 0-6.75-3.027-6.75-6.75s3.028-6.75 6.75-6.75 6.75 3.027 6.75 6.75-3.028 6.75-6.75 6.75zm0-11.5c-2.619 0-4.75 2.131-4.75 4.75s2.131 4.75 4.75 4.75 4.75-2.131 4.75-4.75-2.131-4.75-4.75-4.75z" fill="#f44336"/><path d="m12.376 21.915c.029.039.061.077.097.112.036.036.073.068.112.097-.071-.068-.141-.137-.209-.209zm4.874-6.079-3.99 3.99c.366.565.849 1.048 1.414 1.414l2.576-2.576z" fill="#d43a2f"/><path d="m17.25 10.5c-3.722 0-6.75 3.027-6.75 6.75 0 1.808.715 3.452 1.876 4.665.068.071.138.141.209.209 1.213 1.162 2.857 1.876 4.665 1.876v-2c-.949 0-1.833-.279-2.576-.76-.565-.366-1.048-.849-1.414-1.414-.481-.742-.76-1.627-.76-2.576 0-2.619 2.131-4.75 4.75-4.75z" fill="#d43a2f"/></svg>