<svg id="color" enable-background="new 0 0 24 24" height="512" viewBox="0 0 24 24" width="512" xmlns="http://www.w3.org/2000/svg"><path d="m14.25 3h-11.5c-1.519 0-2.75 1.23-2.75 2.75v12.5c0 1.52 1.231 2.75 2.75 2.75h7.01c-.49-1.07-.76-2.25-.76-3.5 0-.17 0-.33.01-.5h-5.26c-.41 0-.75-.34-.75-.75s.34-.75.75-.75h5.49c.149-.61.359-1.2.64-1.75h-6.13c-.41 0-.75-.34-.75-.75s.34-.75.75-.75h7.07c.529-.67 1.149-1.26 1.859-1.75h-8.929c-.41 0-.75-.34-.75-.75s.34-.75.75-.75h9.5c.41 0 .75.34.75.75v.01c.92-.43 1.94-.68 3-.75v-3.26c0-1.52-1.23-2.75-2.75-2.75z" fill="#2196f3"/><path d="m12.25 2h-1.1c-.33-1.15-1.39-2-2.65-2s-2.32.85-2.65 2h-1.1c-.41 0-.75.34-.75.75v2c0 .96.79 1.75 1.75 1.75h5.5c.96 0 1.75-.79 1.75-1.75v-2c0-.41-.34-.75-.75-.75z" fill="#1976d2"/><path d="m14 9.75v.01c-.47.2-.91.45-1.32.74h-8.93c-.41 0-.75-.34-.75-.75s.34-.75.75-.75h9.5c.41 0 .75.34.75.75z" fill="#fff"/><path d="m10.82 12.25c-.37.46-.69.96-.94 1.5h-6.13c-.41 0-.75-.34-.75-.75s.34-.75.75-.75z" fill="#fff"/><path d="m9.24 15.5c-.12.49-.2.99-.23 1.5h-5.26c-.41 0-.75-.34-.75-.75s.34-.75.75-.75z" fill="#fff"/><path d="m4 3h-1.25c-1.519 0-2.75 1.23-2.75 2.75v12.5c0 1.52 1.231 2.75 2.75 2.75h5.75v-4h-4.75c-.41 0-.75-.34-.75-.75 0-.41.34-.75.75-.75h4.75v-1.75h-4.75c-.41 0-.75-.34-.75-.75 0-.41.34-.75.75-.75h4.75v-1.75h-4.75c-.41 0-.75-.34-.75-.75 0-.41.34-.75.75-.75h4.75v-2.5h-2.75c-.96 0-1.75-.79-1.75-1.75z" fill="#1d83d4"/><path d="m8.5 0c-1.26 0-2.32.85-2.65 2h-1.1c-.41 0-.75.34-.75.75v.25 1.75c0 .96.79 1.75 1.75 1.75h2.75z" fill="#1667b7"/><path d="m8.5 9h-4.75c-.41 0-.75.34-.75.75 0 .41.34.75.75.75h4.75z" fill="#dedede"/><path d="m8.5 12.25h-4.75c-.41 0-.75.34-.75.75 0 .41.34.75.75.75h4.75z" fill="#dedede"/><path d="m8.5 15.5h-4.75c-.41 0-.75.34-.75.75 0 .41.34.75.75.75h4.75z" fill="#dedede"/><g fill="#4caf50"><path d="m17.5 24c-3.584 0-6.5-2.916-6.5-6.5s2.916-6.5 6.5-6.5 6.5 2.916 6.5 6.5-2.916 6.5-6.5 6.5zm0-11.5c-2.757 0-5 2.243-5 5s2.243 5 5 5 5-2.243 5-5-2.243-5-5-5z"/><path d="m15.833 23.664c-.414 0-.75-.336-.75-.75v-10.828c0-.414.336-.75.75-.75s.75.336.75.75v10.828c0 .414-.336.75-.75.75z"/><path d="m19.167 23.664c-.414 0-.75-.336-.75-.75v-10.828c0-.414.336-.75.75-.75s.75.336.75.75v10.828c0 .414-.336.75-.75.75z"/><path d="m22.915 16.584h-10.83c-.414 0-.75-.336-.75-.75s.336-.75.75-.75h10.83c.414 0 .75.336.75.75s-.336.75-.75.75z"/><path d="m22.915 19.916h-10.83c-.414 0-.75-.336-.75-.75s.336-.75.75-.75h10.83c.414 0 .75.336.75.75s-.336.75-.75.75z"/></g><path d="m17.5 11c-3.584 0-6.5 2.916-6.5 6.5s2.916 6.5 6.5 6.5v-1.5c-.313 0-.62-.029-.917-.084v.498c0 .414-.336.75-.75.75s-.75-.336-.75-.75v-1.038c-.823-.456-1.503-1.137-1.959-1.96h-1.039c-.414 0-.75-.336-.75-.75s.336-.75.75-.75h.499c-.055-.297-.084-.603-.084-.916s.029-.619.084-.916h-.499c-.414 0-.75-.336-.75-.75s.336-.75.75-.75h1.039c.456-.823 1.137-1.504 1.959-1.96v-1.038c0-.414.336-.75.75-.75s.75.336.75.75v.498c.297-.055.604-.084.917-.084z" fill="#429846"/><path d="m16.583 19.916h-1.5v1.96 1.038c0 .414.336.75.75.75s.75-.336.75-.75v-.498zm0-3.332h-1.5v1.832h1.5zm-.75-5.248c-.414 0-.75.336-.75.75v1.038 1.96h1.5v-2.5-.498c0-.414-.336-.75-.75-.75z" fill="#429846"/><path d="m17.5 15.084h-.917-1.5-1.959-1.039c-.414 0-.75.336-.75.75s.336.75.75.75h.499 2.499 1.5.917z" fill="#429846"/><path d="m17.5 18.416h-.917-1.5-2.499-.499c-.414 0-.75.336-.75.75s.336.75.75.75h1.039 1.959 1.5.917z" fill="#429846"/></svg>