<svg id="color" enable-background="new 0 0 24 24" height="512" viewBox="0 0 24 24" width="512" xmlns="http://www.w3.org/2000/svg"><path d="m18.25 24h-12.5c-1.517 0-2.75-1.233-2.75-2.75v-15.5c0-1.517 1.233-2.75 2.75-2.75h12.5c1.517 0 2.75 1.233 2.75 2.75v15.5c0 1.517-1.233 2.75-2.75 2.75z" fill="#2196f3"/><path d="m15.25 6h-6.5c-.965 0-1.75-.785-1.75-1.75v-1.5c0-.414.336-.75.75-.75h1.604c.328-1.153 1.389-2 2.646-2s2.318.847 2.646 2h1.604c.414 0 .75.336.75.75v1.5c0 .965-.785 1.75-1.75 1.75z" fill="#1976d2"/><path d="m7 3h-1.25c-1.517 0-2.75 1.233-2.75 2.75v15.5c0 1.517 1.233 2.75 2.75 2.75h6.25v-18h-3.25c-.965 0-1.75-.785-1.75-1.75z" fill="#1d83d4"/><path d="m12 0c-1.257 0-2.318.847-2.646 2h-1.604c-.414 0-.75.336-.75.75v.25 1.25c0 .965.785 1.75 1.75 1.75h3.25z" fill="#1667b7"/><path d="m17.25 22h-10.5c-.414 0-.75-.336-.75-.75s.336-.75.75-.75h10.5c.414 0 .75.336.75.75s-.336.75-.75.75z" fill="#fff"/><path d="m12 20.5h-5.25c-.414 0-.75.336-.75.75s.336.75.75.75h5.25z" fill="#dedede"/><g fill="#fff"><path d="m17.25 12.5h-.75c-.414 0-.75-.336-.75-.75s.336-.75.75-.75h.75c.414 0 .75.336.75.75s-.336.75-.75.75z"/><path d="m17.25 9.5h-.75c-.414 0-.75-.336-.75-.75s.336-.75.75-.75h.75c.414 0 .75.336.75.75s-.336.75-.75.75z"/><path d="m17.25 15.5h-.75c-.414 0-.75-.336-.75-.75s.336-.75.75-.75h.75c.414 0 .75.336.75.75s-.336.75-.75.75z"/><path d="m17.25 18.5h-.75c-.414 0-.75-.336-.75-.75s.336-.75.75-.75h.75c.414 0 .75.336.75.75s-.336.75-.75.75z"/></g><path d="m16.875 11h-.375c-.414 0-.75.336-.75.75s.336.75.75.75h.375z" fill="#dedede"/><path d="m16.875 8h-.375c-.414 0-.75.336-.75.75s.336.75.75.75h.375z" fill="#dedede"/><path d="m16.875 14h-.375c-.414 0-.75.336-.75.75s.336.75.75.75h.375z" fill="#dedede"/><path d="m16.875 17h-.375c-.414 0-.75.336-.75.75s.336.75.75.75h.375z" fill="#dedede"/><path d="m15 13.429c0 2.483-2.018 4.5-4.5 4.5-1.245 0-2.37-.502-3.18-1.32l3.18-3.18v-4.5c2.482 0 4.5 2.018 4.5 4.5z" fill="#fff"/><path d="m10.5 8.929v4.5l-3.18 3.18c-.817-.81-1.32-1.935-1.32-3.18 0-2.482 2.018-4.5 4.5-4.5z" fill="#cfd8dc"/><path d="m10.5 13.429-3.18 3.18c.81.817 1.935 1.32 3.18 1.32 1.735 0 3.243-.985 3.994-2.427-.001-.001-.002-.002-.002-.002z" fill="#dedede"/><path d="m6.495 11.378c-.316.615-.495 1.313-.495 2.051 0 1.245.503 2.37 1.32 3.18l3.18-3.18-4.002-2.05z" fill="#b4bcc0"/></svg>