<svg id="color" enable-background="new 0 0 24 24" height="512" viewBox="0 0 24 24" width="512" xmlns="http://www.w3.org/2000/svg"><g><path d="m10.52 13.75h-6.77c-.41 0-.75-.34-.75-.75s.34-.75.75-.75h9.5c.41 0 .75.34.75.75h3v-7.25c0-1.52-1.23-2.75-2.75-2.75h-11.5c-1.52 0-2.75 1.23-2.75 2.75v12.5c0 1.52 1.23 2.75 2.75 2.75h6.25v-4h-5.25c-.41 0-.75-.34-.75-.75s.34-.75.75-.75h5.47c.165-.568.81-1.376 1.3-1.75zm2.73-3.25h-9.5c-.41 0-.75-.34-.75-.75s.34-.75.75-.75h9.5c.41 0 .75.34.75.75s-.34.75-.75.75z" fill="#2196f3"/><path d="m12.25 2h-1.1c-.33-1.15-1.39-2-2.65-2s-2.32.85-2.65 2h-1.1c-.41 0-.75.34-.75.75v2c0 .96.79 1.75 1.75 1.75h5.5c.96 0 1.75-.79 1.75-1.75v-2c0-.41-.34-.75-.75-.75z" fill="#1976d2"/><g fill="#fff"><path d="m14 9.75c0 .41-.34.75-.75.75h-9.5c-.41 0-.75-.34-.75-.75s.34-.75.75-.75h9.5c.41 0 .75.34.75.75z"/><path d="m3.75 13.749c-.41.001-.75-.339-.75-.749s.34-.75.75-.75h9.5c.41 0 .75.34.75.75h-1.25c-.89 0-1.522.263-2.23.75"/><path d="m9.22 15.5c-.14.39-.22.81-.22 1.25v.25h-5.25c-.41 0-.75-.34-.75-.75s.34-.75.75-.75z"/></g><path d="m4 3h-1.25c-1.52 0-2.75 1.23-2.75 2.75v12.5c0 1.52 1.23 2.75 2.75 2.75h5.75v-4h-4.75c-.41 0-.75-.34-.75-.75 0-.41.34-.75.75-.75h4.75v-1.75h-4.75c-.41 0-.75-.34-.75-.75 0-.41.34-.75.75-.75h4.75v-1.75h-4.75c-.41 0-.75-.34-.75-.75 0-.41.34-.75.75-.75h4.75v-2.5h-2.75c-.96 0-1.75-.79-1.75-1.75z" fill="#1d83d4"/><path d="m8.5 0c-1.26 0-2.32.85-2.65 2h-1.1c-.41 0-.75.34-.75.75v.25 1.75c0 .96.79 1.75 1.75 1.75h2.75z" fill="#1667b7"/><path d="m8.5 9h-4.75c-.41 0-.75.34-.75.75 0 .41.34.75.75.75h4.75z" fill="#dedede"/><path d="m8.5 12.25h-4.75c-.41 0-.75.34-.75.75 0 .41.34.75.75.75h4.75z" fill="#dedede"/><path d="m8.5 15.5h-4.75c-.41 0-.75.34-.75.75 0 .41.34.75.75.75h4.75z" fill="#dedede"/><path d="m22.25 24h-9.5c-.965 0-1.75-.785-1.75-1.75v-5.5c0-.965.785-1.75 1.75-1.75h9.5c.965 0 1.75.785 1.75 1.75v5.5c0 .965-.785 1.75-1.75 1.75z" fill="#2196f3"/><path d="m16.966 18.913c.326.206.741.206 1.067 0l5.423-3.425c-.313-.3-.737-.488-1.206-.488h-9.5c-.469 0-.893.188-1.207.488z" fill="#64b5f6"/><path d="m17.54 19.07v4.93h-4.79c-.96 0-1.75-.79-1.75-1.75v-5.5c0-.5.21-.95.54-1.26l5.43 3.42c.16.11.34.16.53.16z" fill="#1d83d4"/><path d="m17.543 15h-4.793c-.004 0-.007 0-.011 0-.003 0-.006 0-.009 0-.001 0-.001 0-.002 0-.46.006-.875.192-1.185.488l5.423 3.425c.163.103.348.155.534.155.014 0 .029 0 .043-.001z" fill="#579ed6"/></g></svg>