<svg id="color" enable-background="new 0 0 24 24" height="512" viewBox="0 0 24 24" width="512" xmlns="http://www.w3.org/2000/svg"><path d="m14.25 3h-11.5c-1.52 0-2.75 1.23-2.75 2.75v12.5c0 1.52 1.23 2.75 2.75 2.75h7.25v-3.5c0-.17.01-.34.04-.5h-6.29c-.41 0-.75-.34-.75-.75s.34-.75.75-.75h6.89c.63-.91 1.681-1.5 2.86-1.5h1c.15 0 .29.03.43.04l.011-.01c.04-2.33 1.13-3.23 2.06-3.561v-4.719c-.001-1.52-1.231-2.75-2.751-2.75zm-1 10.75h-9.5c-.41 0-.75-.34-.75-.75s.34-.75.75-.75h9.5c.41 0 .75.34.75.75s-.34.75-.75.75zm0-3.25h-9.5c-.41 0-.75-.34-.75-.75s.34-.75.75-.75h9.5c.41 0 .75.34.75.75s-.34.75-.75.75z" fill="#2196f3"/><path d="m12.25 2h-1.1c-.33-1.15-1.39-2-2.65-2s-2.32.85-2.65 2h-1.1c-.41 0-.75.34-.75.75v2c0 .96.79 1.75 1.75 1.75h5.5c.96 0 1.75-.79 1.75-1.75v-2c0-.41-.34-.75-.75-.75z" fill="#1976d2"/><g fill="#fff"><path d="m14 9.75c0 .41-.34.75-.75.75h-9.5c-.41 0-.75-.34-.75-.75s.34-.75.75-.75h9.5c.41 0 .75.34.75.75z"/><path d="m14 13c0 .41-.34.75-.75.75h-9.5c-.41 0-.75-.34-.75-.75s.34-.75.75-.75h9.5c.41 0 .75.34.75.75z"/><path d="m10.64 15.5c-.319.43-.52.95-.6 1.5h-6.29c-.41 0-.75-.34-.75-.75s.34-.75.75-.75z"/></g><path d="m4 3h-1.25c-1.52 0-2.75 1.23-2.75 2.75v12.5c0 1.52 1.23 2.75 2.75 2.75h5.75v-4h-4.75c-.41 0-.75-.34-.75-.75 0-.41.34-.75.75-.75h4.75v-1.75h-4.75c-.41 0-.75-.34-.75-.75 0-.41.34-.75.75-.75h4.75v-1.75h-4.75c-.41 0-.75-.34-.75-.75 0-.41.34-.75.75-.75h4.75v-2.5h-2.75c-.96 0-1.75-.79-1.75-1.75z" fill="#1d83d4"/><path d="m8.5 0c-1.26 0-2.32.85-2.65 2h-1.1c-.41 0-.75.34-.75.75v.25 1.75c0 .96.79 1.75 1.75 1.75h2.75z" fill="#1667b7"/><path d="m8.5 9h-4.75c-.41 0-.75.34-.75.75 0 .41.34.75.75.75h4.75z" fill="#dedede"/><path d="m8.5 12.25h-4.75c-.41 0-.75.34-.75.75 0 .41.34.75.75.75h4.75z" fill="#dedede"/><path d="m8.5 15.5h-4.75c-.41 0-.75.34-.75.75 0 .41.34.75.75.75h4.75z" fill="#dedede"/><path d="m21 24h-.76c-2.701 0-4.285-.674-4.988-1.076-.154-.088-.251-.252-.252-.432l-.03-5.65c-.001-.173.089-.334.235-.426.407-.254 1.734-1.166 1.734-2.246 0-.617 0-1.9 1.201-1.9.804 0 1.67.738 1.67 2.36 0 .554-.096 1.017-.207 1.37h1.986c1.329 0 2.41 1.081 2.41 2.41 0 .031-.124 2.541-.61 3.563l.044.008c-.187 1.151-1.234 2.019-2.433 2.019z" fill="#eceff1"/><path d="m14.5 24h-1c-.827 0-1.5-.673-1.5-1.5v-5c0-.827.673-1.5 1.5-1.5h1c.827 0 1.5.673 1.5 1.5v5c0 .827-.673 1.5-1.5 1.5z" fill="#607d8b"/><path d="m23.855 20h-7.855v2.5c0 .256-.064.497-.178.708.857.374 2.291.792 4.418.792h.76c1.199 0 2.246-.868 2.434-2.02l-.044-.008c.224-.47.371-1.257.465-1.972z" fill="#cdd0d2"/><path d="m16 20h-4v2.5c0 .827.673 1.5 1.5 1.5h1c.571 0 1.069-.321 1.322-.792.114-.211.178-.452.178-.708z" fill="#546d79"/></svg>