<svg id="color" enable-background="new 0 0 24 24" height="512" viewBox="0 0 24 24" width="512" xmlns="http://www.w3.org/2000/svg"><path d="m14.25 3h-11.5c-1.52 0-2.75 1.23-2.75 2.75v12.5c0 1.52 1.23 2.75 2.75 2.75h10.25v-2.25c0-.65.17-1.26.47-1.79l-.22.04h-9.5c-.41 0-.75-.34-.75-.75s.34-.75.75-.75h9.5c.4 0 .74.33.75.73.28-.32.62-.58 1-.78.019-1.54.81-2.891 2-3.69v-6.01c0-1.52-1.23-2.75-2.75-2.75zm-1 10.75h-9.5c-.41 0-.75-.34-.75-.75s.34-.75.75-.75h9.5c.41 0 .75.34.75.75s-.34.75-.75.75zm0-3.25h-9.5c-.41 0-.75-.34-.75-.75s.34-.75.75-.75h9.5c.41 0 .75.34.75.75s-.34.75-.75.75z" fill="#2196f3"/><path d="m12.25 2h-1.1c-.33-1.15-1.39-2-2.65-2s-2.32.85-2.65 2h-1.1c-.41 0-.75.34-.75.75v2c0 .96.79 1.75 1.75 1.75h5.5c.96 0 1.75-.79 1.75-1.75v-2c0-.41-.34-.75-.75-.75z" fill="#1976d2"/><g fill="#fff"><path d="m14 9.75c0 .41-.34.75-.75.75h-9.5c-.41 0-.75-.34-.75-.75s.34-.75.75-.75h9.5c.41 0 .75.34.75.75z"/><path d="m14 13c0 .41-.34.75-.75.75h-9.5c-.41 0-.75-.34-.75-.75s.34-.75.75-.75h9.5c.41 0 .75.34.75.75z"/><path d="m14 16.23c-.21.22-.39.46-.53.729l-.22.041h-9.5c-.41 0-.75-.34-.75-.75s.34-.75.75-.75h9.5c.4 0 .74.33.75.73z"/></g><path d="m4 3h-1.25c-1.52 0-2.75 1.23-2.75 2.75v12.5c0 1.52 1.23 2.75 2.75 2.75h5.75v-4h-4.75c-.41 0-.75-.34-.75-.75 0-.41.34-.75.75-.75h4.75v-1.75h-4.75c-.41 0-.75-.34-.75-.75 0-.41.34-.75.75-.75h4.75v-1.75h-4.75c-.41 0-.75-.34-.75-.75 0-.41.34-.75.75-.75h4.75v-2.5h-2.75c-.96 0-1.75-.79-1.75-1.75z" fill="#1d83d4"/><path d="m8.5 0c-1.26 0-2.32.85-2.65 2h-1.1c-.41 0-.75.34-.75.75v.25 1.75c0 .96.79 1.75 1.75 1.75h2.75z" fill="#1667b7"/><path d="m8.5 9h-4.75c-.41 0-.75.34-.75.75 0 .41.34.75.75.75h4.75z" fill="#dedede"/><path d="m8.5 12.25h-4.75c-.41 0-.75.34-.75.75 0 .41.34.75.75.75h4.75z" fill="#dedede"/><path d="m8.5 15.5h-4.75c-.41 0-.75.34-.75.75 0 .41.34.75.75.75h4.75z" fill="#dedede"/><path d="m21.25 18.5h-3.5c-.414 0-.75-.336-.75-.75v-2.25c0-1.379 1.121-2.5 2.5-2.5s2.5 1.121 2.5 2.5v2.25c0 .414-.336.75-.75.75zm-2.75-1.5h2v-1.5c0-.551-.448-1-1-1s-1 .449-1 1z" fill="#546e7a"/><path d="m22.25 24h-5.5c-.965 0-1.75-.785-1.75-1.75v-3.5c0-.965.785-1.75 1.75-1.75h5.5c.965 0 1.75.785 1.75 1.75v3.5c0 .965-.785 1.75-1.75 1.75z" fill="#ffc107"/><path d="m19.5 13c-1.379 0-2.5 1.121-2.5 2.5v1.5h1.5v-1.5c0-.551.448-1 1-1z" fill="#49606a"/><path d="m19.5 17h-1-1.5-.25c-.965 0-1.75.785-1.75 1.75v3.5c0 .965.785 1.75 1.75 1.75h2.75z" fill="#dea806"/></svg>