<svg id="color" enable-background="new 0 0 24 24" height="512" viewBox="0 0 24 24" width="512" xmlns="http://www.w3.org/2000/svg"><path d="m14.25 3h-11.5c-1.52 0-2.75 1.23-2.75 2.75v12.5c0 1.52 1.23 2.75 2.75 2.75h8.45c-.95-1.23-1.74-2.6-2.05-4h-5.4c-.41 0-.75-.34-.75-.75s.34-.75.75-.75h5.26c.021-.61.141-1.2.351-1.75h-5.611c-.41 0-.75-.34-.75-.75s.34-.75.75-.75h6.45c.569-.76 1.33-1.36 2.21-1.75h-8.66c-.41 0-.75-.34-.75-.75s.34-.75.75-.75h9.5c.41 0 .75.34.75.75 0 .11-.03.22-.07.32.27-.05.54-.07.82-.07.78 0 1.55.16 2.25.46v-4.71c0-1.52-1.23-2.75-2.75-2.75z" fill="#2196f3"/><path d="m12.25 2h-1.1c-.33-1.15-1.39-2-2.65-2s-2.32.85-2.65 2h-1.1c-.41 0-.75.34-.75.75v2c0 .96.79 1.75 1.75 1.75h5.5c.96 0 1.75-.79 1.75-1.75v-2c0-.41-.34-.75-.75-.75z" fill="#1976d2"/><g fill="#fff"><path d="m14 9.75c0 .11-.03.22-.07.32-.529.06-1.04.21-1.52.43h-8.66c-.41 0-.75-.34-.75-.75s.34-.75.75-.75h9.5c.41 0 .75.34.75.75z"/><path d="m10.2 12.25c-.36.45-.641.96-.84 1.5h-5.61c-.41 0-.75-.34-.75-.75s.34-.75.75-.75z"/><path d="m9.15 17h-5.4c-.41 0-.75-.34-.75-.75s.34-.75.75-.75h5.26l-.01.24c0 .42.05.84.15 1.26z"/></g><path d="m4 3h-1.25c-1.52 0-2.75 1.23-2.75 2.75v12.5c0 1.52 1.23 2.75 2.75 2.75h5.75v-4h-4.75c-.41 0-.75-.34-.75-.75 0-.41.34-.75.75-.75h4.75v-1.75h-4.75c-.41 0-.75-.34-.75-.75 0-.41.34-.75.75-.75h4.75v-1.75h-4.75c-.41 0-.75-.34-.75-.75 0-.41.34-.75.75-.75h4.75v-2.5h-2.75c-.96 0-1.75-.79-1.75-1.75z" fill="#1d83d4"/><path d="m8.5 0c-1.26 0-2.32.85-2.65 2h-1.1c-.41 0-.75.34-.75.75v.25 1.75c0 .96.79 1.75 1.75 1.75h2.75z" fill="#1667b7"/><path d="m8.5 9h-4.75c-.41 0-.75.34-.75.75 0 .41.34.75.75.75h4.75z" fill="#dedede"/><path d="m8.5 12.25h-4.75c-.41 0-.75.34-.75.75 0 .41.34.75.75.75h4.75z" fill="#dedede"/><path d="m8.5 15.5h-4.75c-.41 0-.75.34-.75.75 0 .41.34.75.75.75h4.75z" fill="#dedede"/><path d="m17.5 24c-.157 0-.314-.049-.447-.148-.62-.461-6.053-4.602-6.053-8.114 0-2.061 1.683-3.738 3.75-3.738 1.064 0 2.054.445 2.75 1.193.696-.748 1.687-1.193 2.75-1.193 2.067 0 3.75 1.677 3.75 3.738 0 3.512-5.433 7.652-6.053 8.113-.133.1-.29.149-.447.149z" fill="#2196f3"/><path d="m14.75 12c-2.067 0-3.75 1.677-3.75 3.738 0 3.512 5.433 7.652 6.053 8.113.133.1.29.149.447.149v-10.807c-.696-.748-1.687-1.193-2.75-1.193z" fill="#1d83d4"/></svg>