<svg id="color" enable-background="new 0 0 24 24" height="512" viewBox="0 0 24 24" width="512" xmlns="http://www.w3.org/2000/svg"><path d="m14.25 3h-11.5c-1.52 0-2.75 1.23-2.75 2.75v12.5c0 1.52 1.23 2.75 2.75 2.75h7.01c-.49-1.07-.76-2.25-.76-3.5 0-.17 0-.33.01-.5h-5.26c-.41 0-.75-.34-.75-.75s.34-.75.75-.75h5.49c.15-.61.36-1.2.64-1.75h-6.13c-.41 0-.75-.34-.75-.75s.34-.75.75-.75h7.07c.53-.67 1.15-1.26 1.86-1.75h-8.93c-.41 0-.75-.34-.75-.75s.34-.75.75-.75h9.5c.41 0 .75.34.75.75v.01c.92-.43 1.94-.68 3-.75v-3.26c0-1.52-1.23-2.75-2.75-2.75z" fill="#2196f3"/><path d="m12.25 2h-1.1c-.33-1.15-1.39-2-2.65-2s-2.32.85-2.65 2h-1.1c-.41 0-.75.34-.75.75v2c0 .96.79 1.75 1.75 1.75h5.5c.96 0 1.75-.79 1.75-1.75v-2c0-.41-.34-.75-.75-.75z" fill="#1976d2"/><g fill="#fff"><path d="m14 9.75v.01c-.47.2-.91.45-1.32.74h-8.93c-.41 0-.75-.34-.75-.75s.34-.75.75-.75h9.5c.41 0 .75.34.75.75z"/><path d="m10.82 12.25c-.37.46-.69.96-.94 1.5h-6.13c-.41 0-.75-.34-.75-.75s.34-.75.75-.75z"/><path d="m9.24 15.5c-.12.49-.2.99-.23 1.5h-5.26c-.41 0-.75-.34-.75-.75s.34-.75.75-.75z"/></g><path d="m4 3h-1.25c-1.52 0-2.75 1.23-2.75 2.75v12.5c0 1.52 1.23 2.75 2.75 2.75h5.75v-4h-4.75c-.41 0-.75-.34-.75-.75 0-.41.34-.75.75-.75h4.75v-1.75h-4.75c-.41 0-.75-.34-.75-.75 0-.41.34-.75.75-.75h4.75v-1.75h-4.75c-.41 0-.75-.34-.75-.75 0-.41.34-.75.75-.75h4.75v-2.5h-2.75c-.96 0-1.75-.79-1.75-1.75z" fill="#1d83d4"/><path d="m8.5 0c-1.26 0-2.32.85-2.65 2h-1.1c-.41 0-.75.34-.75.75v.25 1.75c0 .96.79 1.75 1.75 1.75h2.75z" fill="#1667b7"/><path d="m8.5 9h-4.75c-.41 0-.75.34-.75.75 0 .41.34.75.75.75h4.75z" fill="#dedede"/><path d="m8.5 12.25h-4.75c-.41 0-.75.34-.75.75 0 .41.34.75.75.75h4.75z" fill="#dedede"/><path d="m8.5 15.5h-4.75c-.41 0-.75.34-.75.75 0 .41.34.75.75.75h4.75z" fill="#dedede"/><path d="m17.5 24c-3.584 0-6.5-2.916-6.5-6.5s2.916-6.5 6.5-6.5 6.5 2.916 6.5 6.5-2.916 6.5-6.5 6.5z" fill="#ffc107"/><path d="m17.5 22c-.552 0-1-.447-1-1v-.929c0-.552.448-1 1-1s1 .448 1 1v.929c0 .553-.448 1-1 1z" fill="#fff"/><path d="m17.302 16.502.407-.002c1.125 0 2.042.953 2.042 2.125-.001 1.172-.917 2.125-2.042 2.125h-1.459c-.552 0-1-.447-1-1s.448-1 1-1h1.459c.138 0 .16-.252.002-.252l-.42.002c-1.125 0-2.041-.953-2.041-2.125s.916-2.125 2.041-2.125h1.459c.552 0 1 .447 1 1s-.448 1-1 1h-1.459" fill="#fff"/><path d="m17.5 15.929c-.552 0-1-.448-1-1v-.929c0-.553.448-1 1-1s1 .447 1 1v.929c0 .551-.448 1-1 1z" fill="#fff"/><path d="m17.567 16.25h-.275c-.143 0-.138.252.011.252l.265-.001zm-.067-5.25c-3.584 0-6.5 2.916-6.5 6.5s2.916 6.5 6.5 6.5h.067v-2.002c-.022.001-.045.002-.067.002-.552 0-1-.447-1-1v-.25h-.25c-.552 0-1-.447-1-1s.448-1 1-1h1.317v-.251l-.276.001c-1.125 0-2.041-.953-2.041-2.125 0-.88.516-1.636 1.25-1.959v-.416c0-.553.448-1 1-1 .022 0 .045.001.067.002v-2.002c-.022 0-.045 0-.067 0z" fill="#dea806"/><path d="m17.567 20.75h-1.067v.25c0 .553.448 1 1 1 .022 0 .045-.001.067-.002z" fill="#dedede"/><path d="m17.567 18.75h-1.317c-.552 0-1 .447-1 1s.448 1 1 1h.25 1.067zm-1.067-4.334c-.734.322-1.25 1.079-1.25 1.959 0 1.172.916 2.125 2.041 2.125l.275-.001v-1.998l-.265.001c-.168 0-.131-.252-.011-.252h.275v-.324c-.022.001-.044.002-.067.002-.552 0-1-.448-1-1v-.512z" fill="#dedede"/><path d="m17.5 13c-.552 0-1 .447-1 1v.416.513c0 .552.448 1 1 1 .022 0 .045-.001.067-.002v-2.924c-.022-.002-.045-.003-.067-.003z" fill="#dedede"/></svg>