<svg id="color" enable-background="new 0 0 24 24" height="512" viewBox="0 0 24 24" width="512" xmlns="http://www.w3.org/2000/svg"><path d="m14.25 3h-11.5c-1.52 0-2.75 1.23-2.75 2.75v12.5c0 1.52 1.23 2.75 2.75 2.75h8.57c-.81-.8-1.32-1.91-1.32-3.14 0-.011.01-.351.05-.86h-6.3c-.41 0-.75-.34-.75-.75s.34-.75.75-.75h6.49c.09-.519.2-1.05.35-1.519v-.011l.05-.22h-6.89c-.41 0-.75-.34-.75-.75s.34-.75.75-.75h7.53c.81-1.2 2.2-1.98 3.72-1.98h.76c.44 0 .851.02 1.24.051v-4.571c0-1.52-1.23-2.75-2.75-2.75zm-1 7.5h-9.5c-.41 0-.75-.34-.75-.75s.34-.75.75-.75h9.5c.41 0 .75.34.75.75s-.34.75-.75.75z" fill="#2196f3"/><path d="m12.25 2h-1.1c-.33-1.15-1.39-2-2.65-2s-2.32.85-2.65 2h-1.1c-.41 0-.75.34-.75.75v2c0 .96.79 1.75 1.75 1.75h5.5c.96 0 1.75-.79 1.75-1.75v-2c0-.41-.34-.75-.75-.75z" fill="#1976d2"/><g fill="#fff"><path d="m14 9.75c0 .41-.34.75-.75.75h-9.5c-.41 0-.75-.34-.75-.75s.34-.75.75-.75h9.5c.41 0 .75.34.75.75z"/><path d="m11.28 12.25c-.311.45-.53.96-.641 1.5h-6.889c-.41 0-.75-.34-.75-.75s.34-.75.75-.75z"/><path d="m10.24 15.5c-.09.55-.15 1.08-.19 1.5h-6.3c-.41 0-.75-.34-.75-.75s.34-.75.75-.75z"/></g><path d="m4 3h-1.25c-1.52 0-2.75 1.23-2.75 2.75v12.5c0 1.52 1.23 2.75 2.75 2.75h5.75v-4h-4.75c-.41 0-.75-.34-.75-.75 0-.41.34-.75.75-.75h4.75v-1.75h-4.75c-.41 0-.75-.34-.75-.75 0-.41.34-.75.75-.75h4.75v-1.75h-4.75c-.41 0-.75-.34-.75-.75 0-.41.34-.75.75-.75h4.75v-2.5h-2.75c-.96 0-1.75-.79-1.75-1.75z" fill="#1d83d4"/><path d="m8.5 0c-1.26 0-2.32.85-2.65 2h-1.1c-.41 0-.75.34-.75.75v.25 1.75c0 .96.79 1.75 1.75 1.75h2.75z" fill="#1667b7"/><path d="m8.5 9h-4.75c-.41 0-.75.34-.75.75 0 .41.34.75.75.75h4.75z" fill="#dedede"/><path d="m8.5 12.25h-4.75c-.41 0-.75.34-.75.75 0 .41.34.75.75.75h4.75z" fill="#dedede"/><path d="m8.5 15.5h-4.75c-.41 0-.75.34-.75.75 0 .41.34.75.75.75h4.75z" fill="#dedede"/><path d="m15 12.27h.76c2.701 0 4.284.674 4.988 1.075.154.089.251.253.252.432l.03 5.65c.001.174-.088.335-.235.427-.407.254-1.734 1.166-1.734 2.246 0 .616 0 1.899-1.2 1.899-.805 0-1.67-.738-1.67-2.359 0-.554.095-1.017.207-1.37h-1.988c-1.329 0-2.41-1.081-2.41-2.41 0-.032.124-2.541.61-3.563l-.044-.007c.188-1.151 1.234-2.02 2.434-2.02z" fill="#eceff1"/><path d="m21.5 12.27 1-.001c.827 0 1.5.673 1.5 1.5v5c0 .827-.673 1.5-1.5 1.5l-1 .001c-.827 0-1.5-.673-1.5-1.5v-5c0-.827.673-1.5 1.5-1.5z" fill="#607d8b"/><path d="m20 16.271h-7.855c-.109.835-.145 1.572-.145 1.589 0 1.329 1.081 2.41 2.41 2.41h1.987c-.112.353-.207.816-.207 1.37 0 1.621.865 2.359 1.67 2.359 1.2 0 1.2-1.283 1.2-1.899 0-.948 1.023-1.767 1.548-2.124-.368-.273-.608-.712-.608-1.205z" fill="#cdd0d2"/><path d="m24 16.271h-4v2.5c0 .494.24.932.609 1.206.249.185.558.294.891.294l1-.001c.827 0 1.5-.673 1.5-1.5z" fill="#546d79"/></svg>