<svg id="color" enable-background="new 0 0 24 24" height="512" viewBox="0 0 24 24" width="512" xmlns="http://www.w3.org/2000/svg"><path d="m14.25 3h-11.5c-1.52 0-2.75 1.23-2.75 2.75v12.5c0 1.52 1.23 2.75 2.75 2.75h8.61c-.68-1.11-1.18-2.42-1.31-3.95v-.02l-.01-.02v-.01h-6.29c-.41 0-.75-.34-.75-.75s.34-.75.75-.75h6.25v-1.75h-6.25c-.41 0-.75-.34-.75-.75s.34-.75.75-.75h6.25v-.14c0-.601.19-1.16.52-1.61h-6.77c-.41 0-.75-.34-.75-.75s.34-.75.75-.75h9.5l.17.03 3.58-1.1v-2.18c0-1.52-1.23-2.75-2.75-2.75z" fill="#2196f3"/><path d="m12.25 2h-1.1c-.33-1.15-1.39-2-2.65-2s-2.32.85-2.65 2h-1.1c-.41 0-.75.34-.75.75v2c0 .96.79 1.75 1.75 1.75h5.5c.96 0 1.75-.79 1.75-1.75v-2c0-.41-.34-.75-.75-.75z" fill="#1976d2"/><g fill="#fff"><path d="m13.42 9.03-1.48.45c-.59.18-1.09.539-1.42 1.02h-6.77c-.41 0-.75-.34-.75-.75s.34-.75.75-.75h9.5z"/><path d="m10 12.25v1.5h-6.25c-.41 0-.75-.34-.75-.75s.34-.75.75-.75z"/><path d="m10.04 17h-6.29c-.41 0-.75-.34-.75-.75s.34-.75.75-.75h6.25v.92z"/></g><path d="m4 3h-1.25c-1.52 0-2.75 1.23-2.75 2.75v12.5c0 1.52 1.23 2.75 2.75 2.75h5.75v-4h-4.75c-.41 0-.75-.34-.75-.75 0-.41.34-.75.75-.75h4.75v-1.75h-4.75c-.41 0-.75-.34-.75-.75 0-.41.34-.75.75-.75h4.75v-1.75h-4.75c-.41 0-.75-.34-.75-.75 0-.41.34-.75.75-.75h4.75v-2.5h-2.75c-.96 0-1.75-.79-1.75-1.75z" fill="#1d83d4"/><path d="m8.5 0c-1.26 0-2.32.85-2.65 2h-1.1c-.41 0-.75.34-.75.75v.25 1.75c0 .96.79 1.75 1.75 1.75h2.75z" fill="#1667b7"/><path d="m8.5 9h-4.75c-.41 0-.75.34-.75.75 0 .41.34.75.75.75h4.75z" fill="#dedede"/><path d="m8.5 12.25h-4.75c-.41 0-.75.34-.75.75 0 .41.34.75.75.75h4.75z" fill="#dedede"/><path d="m8.5 15.5h-4.75c-.41 0-.75.34-.75.75 0 .41.34.75.75.75h4.75z" fill="#dedede"/><path d="m23.47 11.39-5.25-1.606-.22-.034v7.125h5.998l.002-4.768c0-.33-.215-.621-.53-.717z" fill="#546e7a"/><path d="m18 16.875v7.125c.103 0 .207-.021.304-.064.223-.099 5.254-2.39 5.657-7.061z" fill="#b0bec5"/><path d="m12.039 16.875c.403 4.671 5.434 6.962 5.657 7.061.097.043.2.064.304.064v-7.125z" fill="#546e7a"/><path d="m17.78 9.783-5.25 1.606c-.315.097-.53.388-.53.718v4.178l.039.59h5.961v-7.125z" fill="#b0bec5"/><path d="m18 16.875h-5.961c.403 4.671 5.434 6.962 5.657 7.061.097.043.2.064.304.064z" fill="#49606a"/><path d="m18 9.75-.22.033-5.25 1.606c-.315.097-.53.388-.53.718v4.178l.039.59h5.961z" fill="#99a5ac"/></svg>