<svg id="color" enable-background="new 0 0 24 24" height="512" viewBox="0 0 24 24" width="512" xmlns="http://www.w3.org/2000/svg"><path d="m14.25 3h-11.5c-1.52 0-2.75 1.23-2.75 2.75v12.5c0 1.52 1.23 2.75 2.75 2.75h8.15c-.73-1.15-1.25-2.49-1.37-4h-5.78c-.41 0-.75-.34-.75-.75s.34-.75.75-.75h5.75v-1.75h-5.75c-.41 0-.75-.34-.75-.75s.34-.75.75-.75h5.75c.01-.65.22-1.26.59-1.75h-6.34c-.41 0-.75-.34-.75-.75s.34-.75.75-.75h9.1l3.931-1.34.219-.06v-1.85c0-1.52-1.23-2.75-2.75-2.75z" fill="#2196f3"/><path d="m12.25 2h-1.1c-.33-1.15-1.39-2-2.65-2s-2.32.85-2.65 2h-1.1c-.41 0-.75.34-.75.75v2c0 .96.79 1.75 1.75 1.75h5.5c.96 0 1.75-.79 1.75-1.75v-2c0-.41-.34-.75-.75-.75z" fill="#1976d2"/><g fill="#fff"><path d="m12.85 9-1.32.45c-.59.2-1.08.569-1.44 1.05h-6.34c-.41 0-.75-.34-.75-.75s.34-.75.75-.75z"/><path d="m9.5 12.25v1.5h-5.75c-.41 0-.75-.34-.75-.75s.34-.75.75-.75z"/><path d="m9.53 17h-5.78c-.41 0-.75-.34-.75-.75s.34-.75.75-.75h5.75v.8c0 .24.01.47.03.7z"/></g><path d="m4 3h-1.25c-1.52 0-2.75 1.23-2.75 2.75v12.5c0 1.52 1.23 2.75 2.75 2.75h5.75v-4h-4.75c-.41 0-.75-.34-.75-.75 0-.41.34-.75.75-.75h4.75v-1.75h-4.75c-.41 0-.75-.34-.75-.75 0-.41.34-.75.75-.75h4.75v-1.75h-4.75c-.41 0-.75-.34-.75-.75 0-.41.34-.75.75-.75h4.75v-2.5h-2.75c-.96 0-1.75-.79-1.75-1.75z" fill="#1d83d4"/><path d="m8.5 0c-1.26 0-2.32.85-2.65 2h-1.1c-.41 0-.75.34-.75.75v.25 1.75c0 .96.79 1.75 1.75 1.75h2.75z" fill="#1667b7"/><path d="m8.5 9h-4.75c-.41 0-.75.34-.75.75 0 .41.34.75.75.75h4.75z" fill="#dedede"/><path d="m8.5 12.25h-4.75c-.41 0-.75.34-.75.75 0 .41.34.75.75.75h4.75z" fill="#dedede"/><path d="m8.5 15.5h-4.75c-.41 0-.75.34-.75.75 0 .41.34.75.75.75h4.75z" fill="#dedede"/><path d="m17.75 24c-.133 0-.267-.026-.392-.08-.239-.102-5.858-2.549-5.858-7.616v-4.019c0-.428.272-.809.678-.946l5.25-1.786c.209-.07.436-.07.645 0l5.25 1.786c.405.138.677.518.677.946v4.019c0 5.067-5.619 7.515-5.858 7.616-.125.054-.259.08-.392.08z" fill="#4caf50"/><path d="m17.5 19.5c-.265 0-.519-.104-.707-.293l-2-2c-.391-.391-.391-1.023 0-1.414s1.023-.391 1.414 0l1.185 1.185 2.308-3.078c.331-.441.958-.532 1.399-.2.442.331.532.958.2 1.399l-3 4c-.174.232-.439.377-.729.398z" fill="#fff"/><path d="m17.75 9.5c-.109 0-.218.018-.322.053l-5.25 1.786c-.405.138-.678.519-.678.946v4.019c0 5.067 5.619 7.515 5.858 7.616.125.054.259.08.392.08v-4.532c-.058.015-.118.025-.179.03l-.071.002c-.265 0-.519-.104-.707-.293l-2-2c-.391-.391-.391-1.023 0-1.414.195-.195.451-.293.707-.293s.512.098.707.293l1.185 1.185.358-.478z" fill="#429846"/><path d="m15.5 15.5c-.256 0-.512.098-.707.293-.391.391-.391 1.023 0 1.414l2 2c.189.188.442.293.707.293l.071-.002c.061-.005.121-.014.179-.03v-2.968l-.358.478-1.185-1.185c-.195-.195-.451-.293-.707-.293z" fill="#dedede"/></svg>