<svg id="color" enable-background="new 0 0 24 24" height="512" viewBox="0 0 24 24" width="512" xmlns="http://www.w3.org/2000/svg"><path d="m14.25 3h-11.5c-1.52 0-2.75 1.23-2.75 2.75v12.5c0 1.52 1.23 2.75 2.75 2.75h7.01c-.49-1.07-.76-2.25-.76-3.5 0-.17 0-.33.01-.5.03-.51.11-1.01.231-1.5.15-.61.36-1.2.64-1.75h-6.131c-.41 0-.75-.34-.75-.75s.34-.75.75-.75h7.07c.53-.67 1.15-1.26 1.86-1.75h-8.93c-.41 0-.75-.34-.75-.75s.34-.75.75-.75h9.5c.41 0 .75.34.75.75v.01c.92-.43 1.94-.68 3-.75v-3.26c0-1.52-1.23-2.75-2.75-2.75z" fill="#2196f3"/><path d="m12.25 2h-1.1c-.33-1.15-1.39-2-2.65-2s-2.32.85-2.65 2h-1.1c-.41 0-.75.34-.75.75v2c0 .96.79 1.75 1.75 1.75h5.5c.96 0 1.75-.79 1.75-1.75v-2c0-.41-.34-.75-.75-.75z" fill="#1976d2"/><g fill="#fff"><path d="m14 9.75v.01c-.47.2-.91.45-1.32.74h-8.93c-.41 0-.75-.34-.75-.75s.34-.75.75-.75h9.5c.41 0 .75.34.75.75z"/><path d="m10.82 12.25c-.37.46-.69.96-.94 1.5h-6.13c-.41 0-.75-.34-.75-.75s.34-.75.75-.75z"/><path d="m9.24 15.5c-.12.49-.2.99-.231 1.5h-5.259c-.41 0-.75-.34-.75-.75s.34-.75.75-.75z"/></g><path d="m4 3h-1.25c-1.52 0-2.75 1.23-2.75 2.75v12.5c0 1.52 1.23 2.75 2.75 2.75h5.75v-4h-4.75c-.41 0-.75-.34-.75-.75s.34-.75.75-.75h4.75v-1.75h-4.75c-.41 0-.75-.34-.75-.75 0-.41.34-.75.75-.75h4.75v-1.75h-4.75c-.41 0-.75-.34-.75-.75 0-.41.34-.75.75-.75h4.75v-2.5h-2.75c-.96 0-1.75-.79-1.75-1.75z" fill="#1d83d4"/><path d="m8.5 0c-1.26 0-2.32.85-2.65 2h-1.1c-.41 0-.75.34-.75.75v.25 1.75c0 .96.79 1.75 1.75 1.75h2.75z" fill="#1667b7"/><path d="m8.5 9h-4.75c-.41 0-.75.34-.75.75 0 .41.34.75.75.75h4.75z" fill="#dedede"/><path d="m8.5 12.25h-4.75c-.41 0-.75.34-.75.75 0 .41.34.75.75.75h4.75z" fill="#dedede"/><path d="m8.5 15.5h-4.75c-.41 0-.75.34-.75.75s.34.75.75.75h4.75z" fill="#dedede"/><path d="m17.5 11c-3.584 0-6.5 2.916-6.5 6.5s2.916 6.5 6.5 6.5 6.5-2.916 6.5-6.5-2.916-6.5-6.5-6.5zm.53 10.529c-.14.141-.33.221-.53.221-.1 0-.19-.02-.29-.061-.09-.039-.17-.09-.24-.16l-.16-.239c-.04-.091-.06-.19-.06-.29 0-.2.08-.391.22-.53.28-.28.78-.28 1.06 0 .07.07.13.149.16.24.04.09.06.19.06.29 0 .199-.08.39-.22.529zm.948-3.761c-.272.199-.728.625-.728 1.252v.23c0 .414-.336.75-.75.75s-.75-.336-.75-.75v-.23c0-.941.489-1.838 1.341-2.462.26-.19.409-.485.409-.808 0-.551-.449-1-1-1s-1 .449-1 1c0 .414-.336.75-.75.75s-.75-.336-.75-.75c0-1.379 1.122-2.5 2.5-2.5s2.5 1.121 2.5 2.5c0 .793-.382 1.547-1.022 2.018z" fill="#4caf50"/><path d="m17.5 20.259c-.195 0-.39.07-.53.21s-.22.33-.22.53c0 .1.02.199.06.29l.16.239c.07.07.15.121.24.16.1.041.19.061.29.061z" fill="#dedede"/><path d="m17.5 17.098c-.483.555-.75 1.226-.75 1.922v.23c0 .414.336.75.75.75z" fill="#dedede"/><path d="m17.5 13.25c-1.378 0-2.5 1.121-2.5 2.5 0 .414.336.75.75.75s.75-.336.75-.75c0-.551.449-1 1-1z" fill="#dedede"/><path d="m17.5 11c-3.584 0-6.5 2.916-6.5 6.5s2.916 6.5 6.5 6.5v-2.25c-.1 0-.19-.02-.29-.061-.09-.039-.17-.09-.24-.16l-.16-.239c-.04-.091-.06-.19-.06-.29 0-.2.08-.391.22-.53.14-.14.335-.21.53-.21v-.26c-.414 0-.75-.336-.75-.75v-.23c0-.696.267-1.367.75-1.922v-2.348c-.551 0-1 .449-1 1 0 .414-.336.75-.75.75s-.75-.336-.75-.75c0-1.379 1.122-2.5 2.5-2.5z" fill="#429846"/></svg>