<svg id="color" enable-background="new 0 0 24 24" height="512" viewBox="0 0 24 24" width="512" xmlns="http://www.w3.org/2000/svg"><path d="m14.25 3h-11.5c-1.52 0-2.75 1.23-2.75 2.75v12.5c0 1.52 1.23 2.75 2.75 2.75h6.59c-.54-1.14-.84-2.41-.84-3.75l.01-.25c.01-.51.07-1.01.17-1.5.12-.61.311-1.2.551-1.75h-5.481c-.41 0-.75-.34-.75-.75s.34-.75.75-.75h6.32c.46-.65 1-1.24 1.609-1.75h-7.929c-.41 0-.75-.34-.75-.75s.34-.75.75-.75h9.5c.21 0 .39.08.53.22.99-.43 2.08-.68 3.22-.71v-2.76c0-1.52-1.23-2.75-2.75-2.75z" fill="#2196f3"/><path d="m12.25 2h-1.1c-.33-1.15-1.39-2-2.65-2s-2.32.85-2.65 2h-1.1c-.41 0-.75.34-.75.75v2c0 .96.79 1.75 1.75 1.75h5.5c.96 0 1.75-.79 1.75-1.75v-2c0-.41-.34-.75-.75-.75z" fill="#1976d2"/><g fill="#fff"><path d="m13.78 9.22c-.76.33-1.47.76-2.1 1.28h-7.93c-.41 0-.75-.34-.75-.75s.34-.75.75-.75h9.5c.21 0 .39.08.53.22z"/><path d="m10.07 12.25c-.33.47-.61.97-.84 1.5h-5.48c-.41 0-.75-.34-.75-.75s.34-.75.75-.75z"/><path d="m8.68 15.5c-.1.49-.16.99-.17 1.5h-4.76c-.41 0-.75-.34-.75-.75s.34-.75.75-.75z"/></g><path d="m4 3h-1.25c-1.52 0-2.75 1.23-2.75 2.75v12.5c0 1.52 1.23 2.75 2.75 2.75h5.75v-3.75-.25h-4.75c-.41 0-.75-.34-.75-.75s.34-.75.75-.75h4.75v-1.75h-4.75c-.41 0-.75-.34-.75-.75 0-.41.34-.75.75-.75h4.75v-1.75h-4.75c-.41 0-.75-.34-.75-.75 0-.41.34-.75.75-.75h4.75v-2.5h-2.75c-.96 0-1.75-.79-1.75-1.75z" fill="#1d83d4"/><path d="m8.5 0c-1.26 0-2.32.85-2.65 2h-1.1c-.41 0-.75.34-.75.75v.25 1.75c0 .96.79 1.75 1.75 1.75h2.75z" fill="#1667b7"/><path d="m8.5 9h-4.75c-.41 0-.75.34-.75.75 0 .41.34.75.75.75h4.75z" fill="#dedede"/><path d="m8.5 12.25h-4.75c-.41 0-.75.34-.75.75 0 .41.34.75.75.75h4.75z" fill="#dedede"/><path d="m8.5 15.5h-4.75c-.41 0-.75.34-.75.75s.34.75.75.75h4.75z" fill="#dedede"/><path d="m17.25 24c-3.722 0-6.75-3.027-6.75-6.75s3.028-6.75 6.75-6.75 6.75 3.027 6.75 6.75-3.028 6.75-6.75 6.75z" fill="#2196f3"/><path d="m15.5 20c-.256 0-.512-.098-.707-.293-.391-.391-.391-1.023 0-1.414l3.5-3.5c.391-.391 1.023-.391 1.414 0s.391 1.023 0 1.414l-3.5 3.5c-.195.195-.451.293-.707.293z" fill="#fff"/><path d="m19 20c-.256 0-.512-.098-.707-.293l-3.5-3.5c-.391-.391-.391-1.023 0-1.414s1.023-.391 1.414 0l3.5 3.5c.391.391.391 1.023 0 1.414-.195.195-.451.293-.707.293z" fill="#fff"/><path d="m17.25 10.5c-3.722 0-6.75 3.027-6.75 6.75s3.028 6.75 6.75 6.75v-5.336l-1.043 1.043c-.195.195-.451.293-.707.293s-.512-.098-.707-.293c-.391-.391-.391-1.023 0-1.414l1.043-1.043-1.043-1.043c-.391-.391-.391-1.023 0-1.414.195-.195.451-.293.707-.293s.512.098.707.293l1.043 1.043z" fill="#1d83d4"/><path d="m15.836 17.25-1.043 1.043c-.391.391-.391 1.023 0 1.414.195.195.451.293.707.293s.512-.098.707-.293l1.043-1.043z" fill="#dedede"/><path d="m15.5 14.5c-.256 0-.512.098-.707.293-.391.391-.391 1.023 0 1.414l1.043 1.043 1.414 1.414v-2.828l-1.043-1.043c-.195-.195-.451-.293-.707-.293z" fill="#dedede"/></svg>