<svg id="color" enable-background="new 0 0 24 24" height="512" viewBox="0 0 24 24" width="512" xmlns="http://www.w3.org/2000/svg"><path d="m14.25 3h-11.5c-1.52 0-2.75 1.23-2.75 2.75v12.5c0 1.52 1.23 2.75 2.75 2.75h7.84c-.38-.93-.59-1.94-.59-3 0-.35.07-.69.19-1h-6.44c-.41 0-.75-.34-.75-.75s.34-.75.75-.75h7.31l-.06-.5v-1.25h-7.25c-.41 0-.75-.34-.75-.75s.34-.75.75-.75h7.3c.13-.72.53-1.34 1.13-1.75h-8.43c-.41 0-.75-.34-.75-.75s.34-.75.75-.75h9.5c.41 0 .75.34.75.75l-.05.26c.479.03.939.2 1.34.471.55-.2 1.12-.341 1.71-.41v-4.321c0-1.52-1.23-2.75-2.75-2.75z" fill="#2196f3"/><path d="m12.25 2h-1.1c-.33-1.15-1.39-2-2.65-2s-2.32.85-2.65 2h-1.1c-.41 0-.75.34-.75.75v2c0 .96.79 1.75 1.75 1.75h5.5c.96 0 1.75-.79 1.75-1.75v-2c0-.41-.34-.75-.75-.75z" fill="#1976d2"/><g fill="#fff"><path d="m14 9.75-.05.26-.2-.01c-.36 0-.71.07-1.04.2-.19.08-.37.18-.53.3h-8.43c-.41 0-.75-.34-.75-.75s.34-.75.75-.75h9.5c.41 0 .75.34.75.75z"/><path d="m11.05 12.25c-.03.16-.05.33-.05.5v1h-7.25c-.41 0-.75-.34-.75-.75s.34-.75.75-.75z"/><path d="m11.12 15.79c-.42.31-.74.72-.93 1.21h-6.44c-.41 0-.75-.34-.75-.75s.34-.75.75-.75h7.31z"/></g><path d="m4 3h-1.25c-1.52 0-2.75 1.23-2.75 2.75v12.5c0 1.52 1.23 2.75 2.75 2.75h5.75v-4h-4.75c-.41 0-.75-.34-.75-.75 0-.41.34-.75.75-.75h4.75v-1.75h-4.75c-.41 0-.75-.34-.75-.75 0-.41.34-.75.75-.75h4.75v-1.75h-4.75c-.41 0-.75-.34-.75-.75 0-.41.34-.75.75-.75h4.75v-2.5h-2.75c-.96 0-1.75-.79-1.75-1.75z" fill="#1d83d4"/><path d="m8.5 0c-1.26 0-2.32.85-2.65 2h-1.1c-.41 0-.75.34-.75.75v.25 1.75c0 .96.79 1.75 1.75 1.75h2.75z" fill="#1667b7"/><path d="m8.5 9h-4.75c-.41 0-.75.34-.75.75 0 .41.34.75.75.75h4.75z" fill="#dedede"/><path d="m8.5 12.25h-4.75c-.41 0-.75.34-.75.75 0 .41.34.75.75.75h4.75z" fill="#dedede"/><path d="m8.5 15.5h-4.75c-.41 0-.75.34-.75.75 0 .41.34.75.75.75h4.75z" fill="#dedede"/><path d="m18 24c-3.309 0-6-2.691-6-6 0-.414.336-.75.75-.75s.75.336.75.75c0 2.481 2.019 4.5 4.5 4.5s4.5-2.019 4.5-4.5-2.019-4.5-4.5-4.5c-1.489 0-2.778.684-3.632 1.925-.234.341-.7.429-1.043.193-.342-.235-.428-.702-.193-1.043 1.125-1.637 2.899-2.575 4.868-2.575 3.309 0 6 2.691 6 6s-2.691 6-6 6z" fill="#ffc107"/><path d="m15.945 15.75h-2.195c-.414 0-.75-.336-.75-.75v-2.25c0-.305.185-.58.467-.695.281-.114.605-.047.82.172l2.195 2.25c.21.216.271.537.154.814-.116.278-.389.459-.691.459z" fill="#ffc107"/><path d="m12.75 17.25c-.414 0-.75.336-.75.75 0 3.309 2.691 6 6 6v-1.5c-2.481 0-4.5-2.019-4.5-4.5 0-.414-.336-.75-.75-.75zm.339-1.895c.055.102.134.193.236.263.13.089.278.132.424.132h.021-.02c-.285 0-.534-.16-.661-.395zm-.089-.367c0 .021 0 .042.002.063-.001-.016-.002-.034-.002-.051zm5-2.988c-1.12 0-2.177.304-3.088.867l1.079 1.106c.604-.31 1.283-.473 2.009-.473z" fill="#dea806"/><path d="m13.748 12c-.095 0-.19.018-.281.055-.282.115-.467.39-.467.695 0 0 .001 2.285.002 2.302.007.109.038.212.088.304.127.235.375.395.661.395h2.195c.302 0 .574-.181.691-.459.117-.277.056-.599-.154-.814l-.491-.503-1.079-1.106-.625-.641c-.146-.149-.342-.228-.54-.228z" fill="#dea806"/></svg>