<svg id="color" enable-background="new 0 0 24 24" height="512" viewBox="0 0 24 24" width="512" xmlns="http://www.w3.org/2000/svg"><path d="m14.25 3h-11.5c-1.52 0-2.75 1.23-2.75 2.75v12.5c0 1.52 1.23 2.75 2.75 2.75h7.96l-1.85-1.76c-.55-.51-.86-1.24-.86-1.99l.01-.25h-4.26c-.41 0-.75-.34-.75-.75s.34-.75.75-.75h4.89l.22-.24 1.59-1.51h-6.7c-.41 0-.75-.34-.75-.75s.34-.75.75-.75h8.28l1.83-1.74c.51-.49 1.18-.76 1.89-.76.38 0 .74.08 1.09.22l.16.08v-4.3c0-1.52-1.23-2.75-2.75-2.75zm-1 7.5h-9.5c-.41 0-.75-.34-.75-.75s.34-.75.75-.75h9.5c.41 0 .75.34.75.75s-.34.75-.75.75z" fill="#2196f3"/><path d="m12.25 2h-1.1c-.33-1.15-1.39-2-2.65-2s-2.32.85-2.65 2h-1.1c-.41 0-.75.34-.75.75v2c0 .96.79 1.75 1.75 1.75h5.5c.96 0 1.75-.79 1.75-1.75v-2c0-.41-.34-.75-.75-.75z" fill="#1976d2"/><g fill="#fff"><path d="m14 9.75c0 .41-.34.75-.75.75h-9.5c-.41 0-.75-.34-.75-.75s.34-.75.75-.75h9.5c.41 0 .75.34.75.75z"/><path d="m12.03 12.25-1.58 1.5h-6.7c-.41 0-.75-.34-.75-.75s.34-.75.75-.75z"/><path d="m8.64 15.5c-.36.42-.58.95-.63 1.5h-4.26c-.41 0-.75-.34-.75-.75s.34-.75.75-.75z"/></g><path d="m4 3h-1.25c-1.52 0-2.75 1.23-2.75 2.75v12.5c0 1.52 1.23 2.75 2.75 2.75h5.75v-2.171c-.323-.458-.5-1.013-.5-1.579l.01-.25h-4.26c-.41 0-.75-.34-.75-.75 0-.41.34-.75.75-.75h4.75v-1.75h-4.75c-.41 0-.75-.34-.75-.75 0-.41.34-.75.75-.75h4.75v-1.75h-4.75c-.41 0-.75-.34-.75-.75 0-.41.34-.75.75-.75h4.75v-2.5h-2.75c-.96 0-1.75-.79-1.75-1.75z" fill="#1d83d4"/><path d="m8.5 0c-1.26 0-2.32.85-2.65 2h-1.1c-.41 0-.75.34-.75.75v.25 1.75c0 .96.79 1.75 1.75 1.75h2.75z" fill="#1667b7"/><path d="m8.5 9h-4.75c-.41 0-.75.34-.75.75 0 .41.34.75.75.75h4.75z" fill="#dedede"/><path d="m8.5 12.25h-4.75c-.41 0-.75.34-.75.75 0 .41.34.75.75.75h4.75z" fill="#dedede"/><path d="m8.5 15.5h-4.75c-.41 0-.75.34-.75.75 0 .41.34.75.75.75h4.26c.043-.474.213-.934.49-1.321z" fill="#dedede"/><path d="m23.25 24c-.254 0-.497-.129-.636-.353-1.513-2.42-3.558-3.647-6.08-3.647h-.034v2c0 .3-.179.57-.454.689-.274.117-.595.061-.813-.146l-5-4.75c-.148-.141-.233-.338-.233-.543s.085-.402.233-.544l5-4.75c.218-.206.539-.263.813-.146.275.12.454.39.454.69v2.032c4.325.377 7.5 3.999 7.5 8.718 0 .334-.222.629-.543.721z" fill="#ffc107"/><path d="m21.875 17.267h-11.875c.004.199.088.39.233.527l5 4.75c.143.135.329.206.518.206.1 0 .2-.02.295-.06.275-.12.454-.39.454-.69v-2h.034c2.522 0 4.567 1.227 6.08 3.647.139.224.382.353.636.353l.207-.029c.321-.092.543-.387.543-.721 0-2.358-.792-4.441-2.125-5.983z" fill="#dea806"/></svg>