<svg id="color" enable-background="new 0 0 24 24" height="512" viewBox="0 0 24 24" width="512" xmlns="http://www.w3.org/2000/svg"><path d="m18.25 24h-12.5c-1.517 0-2.75-1.233-2.75-2.75v-15.5c0-1.517 1.233-2.75 2.75-2.75h12.5c1.517 0 2.75 1.233 2.75 2.75v15.5c0 1.517-1.233 2.75-2.75 2.75z" fill="#2196f3"/><path d="m15.25 6h-6.5c-.965 0-1.75-.785-1.75-1.75v-1.5c0-.414.336-.75.75-.75h1.604c.328-1.153 1.389-2 2.646-2s2.318.847 2.646 2h1.604c.414 0 .75.336.75.75v1.5c0 .965-.785 1.75-1.75 1.75z" fill="#1976d2"/><path d="m7 3h-1.25c-1.517 0-2.75 1.233-2.75 2.75v15.5c0 1.517 1.233 2.75 2.75 2.75h6.25v-18h-3.25c-.965 0-1.75-.785-1.75-1.75z" fill="#1d83d4"/><path d="m12 0c-1.257 0-2.318.847-2.646 2h-1.604c-.414 0-.75.336-.75.75v.25 1.25c0 .965.785 1.75 1.75 1.75h3.25z" fill="#1667b7"/><path d="m17.25 19.25h-10.5c-.414 0-.75-.336-.75-.75s.336-.75.75-.75h10.5c.414 0 .75.336.75.75s-.336.75-.75.75z" fill="#fff"/><path d="m17.25 22h-10.5c-.414 0-.75-.336-.75-.75s.336-.75.75-.75h10.5c.414 0 .75.336.75.75s-.336.75-.75.75z" fill="#fff"/><path d="m12 17.75h-5.25c-.414 0-.75.336-.75.75s.336.75.75.75h5.25z" fill="#dedede"/><path d="m12 20.5h-5.25c-.414 0-.75.336-.75.75s.336.75.75.75h5.25z" fill="#dedede"/><g fill="#fff"><path d="m12.25 11.5c-.414 0-.75-.336-.75-.75v-.25h-4v.25c0 .414-.336.75-.75.75s-.75-.336-.75-.75v-1c0-.414.336-.75.75-.75h5.5c.414 0 .75.336.75.75v1c0 .414-.336.75-.75.75z"/><path d="m9.5 16.21c-.414 0-.75-.31-.75-.692v-5.536c0-.382.336-.692.75-.692s.75.31.75.692v5.536c0 .382-.336.692-.75.692z"/><path d="m10.5 16.5h-2c-.414 0-.75-.336-.75-.75s.336-.75.75-.75h2c.414 0 .75.336.75.75s-.336.75-.75.75z"/></g><path d="m9.5 9h-2.75c-.414 0-.75.336-.75.75v1c0 .414.336.75.75.75s.75-.336.75-.75v-.25h1.25v-.518c0-.382.336-.692.75-.692z" fill="#dedede"/><path d="m9.5 9.29c-.414 0-.75.31-.75.692v.518 4.5h.75z" fill="#dedede"/><path d="m9.5 15h-.75-.25c-.414 0-.75.336-.75.75s.336.75.75.75h1z" fill="#dedede"/><path d="m17.25 10.5h-2.5c-.414 0-.75-.336-.75-.75s.336-.75.75-.75h2.5c.414 0 .75.336.75.75s-.336.75-.75.75z" fill="#fff"/><path d="m17.25 13.5h-2.5c-.414 0-.75-.336-.75-.75s.336-.75.75-.75h2.5c.414 0 .75.336.75.75s-.336.75-.75.75z" fill="#fff"/><path d="m17.25 16.5h-2.5c-.414 0-.75-.336-.75-.75s.336-.75.75-.75h2.5c.414 0 .75.336.75.75s-.336.75-.75.75z" fill="#fff"/><path d="m16 9h-1.25c-.414 0-.75.336-.75.75s.336.75.75.75h1.25z" fill="#dedede"/><path d="m16 12h-1.25c-.414 0-.75.336-.75.75s.336.75.75.75h1.25z" fill="#dedede"/><path d="m16 15h-1.25c-.414 0-.75.336-.75.75s.336.75.75.75h1.25z" fill="#dedede"/></svg>