<svg id="color" enable-background="new 0 0 24 24" height="512" viewBox="0 0 24 24" width="512" xmlns="http://www.w3.org/2000/svg"><path d="m14.25 3h-11.5c-1.52 0-2.75 1.23-2.75 2.75v12.5c0 1.52 1.23 2.75 2.75 2.75h8.14c-.83-1.13-1.33-2.51-1.38-4h-5.76c-.41 0-.75-.34-.75-.75s.34-.75.75-.75h5.87c.09-.62.28-1.2.54-1.75h-6.41c-.41 0-.75-.34-.75-.75s.34-.75.75-.75h7.32c.55-.7 1.24-1.3 2.02-1.75h-9.34c-.41 0-.75-.34-.75-.75s.34-.75.75-.75h9.5c.41 0 .75.34.75.75 0 .11-.03.22-.07.32.87-.37 1.82-.57 2.82-.57l.25.01v-3.76c0-1.52-1.23-2.75-2.75-2.75z" fill="#2196f3"/><path d="m12.25 2h-1.1c-.33-1.15-1.39-2-2.65-2s-2.32.85-2.65 2h-1.1c-.41 0-.75.34-.75.75v2c0 .96.79 1.75 1.75 1.75h5.5c.96 0 1.75-.79 1.75-1.75v-2c0-.41-.34-.75-.75-.75z" fill="#1976d2"/><g fill="#fff"><path d="m14 9.75c0 .11-.03.22-.07.32h-.01c-.29.12-.56.26-.83.43h-9.34c-.41 0-.75-.34-.75-.75s.34-.75.75-.75h9.5c.41 0 .75.34.75.75z"/><path d="m11.07 12.25c-.37.46-.68.96-.91 1.5h-6.41c-.41 0-.75-.34-.75-.75s.34-.75.75-.75z"/><path d="m9.5 16.75.01.25h-5.76c-.41 0-.75-.34-.75-.75s.34-.75.75-.75h5.87c-.08.4-.12.82-.12 1.25z"/></g><path d="m4 3h-1.25c-1.52 0-2.75 1.23-2.75 2.75v12.5c0 1.52 1.23 2.75 2.75 2.75h5.75v-4h-4.75c-.41 0-.75-.34-.75-.75 0-.41.34-.75.75-.75h4.75v-1.75h-4.75c-.41 0-.75-.34-.75-.75 0-.41.34-.75.75-.75h4.75v-1.75h-4.75c-.41 0-.75-.34-.75-.75 0-.41.34-.75.75-.75h4.75v-2.5h-2.75c-.96 0-1.75-.79-1.75-1.75z" fill="#1d83d4"/><path d="m8.5 0c-1.26 0-2.32.85-2.65 2h-1.1c-.41 0-.75.34-.75.75v.25 1.75c0 .96.79 1.75 1.75 1.75h2.75z" fill="#1667b7"/><path d="m8.5 9h-4.75c-.41 0-.75.34-.75.75 0 .41.34.75.75.75h4.75z" fill="#dedede"/><path d="m8.5 12.25h-4.75c-.41 0-.75.34-.75.75 0 .41.34.75.75.75h4.75z" fill="#dedede"/><path d="m8.5 15.5h-4.75c-.41 0-.75.34-.75.75 0 .41.34.75.75.75h4.75z" fill="#dedede"/><path d="m16.75 22c-2.895 0-5.25-2.355-5.25-5.25s2.355-5.25 5.25-5.25 5.25 2.355 5.25 5.25-2.355 5.25-5.25 5.25zm0-8.5c-1.792 0-3.25 1.458-3.25 3.25s1.458 3.25 3.25 3.25 3.25-1.458 3.25-3.25-1.458-3.25-3.25-3.25z" fill="#546e7a"/><path d="m23 24c-.256 0-.512-.098-.707-.293l-3.25-3.25c-.391-.391-.391-1.023 0-1.414s1.023-.391 1.414 0l3.25 3.25c.391.391.391 1.023 0 1.414-.195.195-.451.293-.707.293z" fill="#546e7a"/><path d="m13.043 13.036c-.953.951-1.543 2.265-1.543 3.714 0 2.895 2.355 5.25 5.25 5.25 1.087 0 2.098-.332 2.936-.9l-.643-.643c-.368-.368-.389-.952-.063-1.344-.583.549-1.368.887-2.23.887-1.792 0-3.25-1.458-3.25-3.25 0-.898.366-1.712.957-2.301z" fill="#49606a"/><path d="m19.047 19.039c-.001.001-.002.002-.004.004-.022.022-.044.046-.063.07-.326.393-.305.976.063 1.344l.643.643 2.607 2.607c.195.195.451.293.707.293s.512-.098.707-.293l.004-.004z" fill="#49606a"/></svg>