<svg id="color" enable-background="new 0 0 24 24" height="512" viewBox="0 0 24 24" width="512" xmlns="http://www.w3.org/2000/svg"><path d="m14.25 3h-11.5c-1.52 0-2.75 1.23-2.75 2.75v12.5c0 1.52 1.23 2.75 2.75 2.75h6.64c-.62-1.14-.479-2.51.29-3.5-.12-.16-.23-.32-.31-.5h-5.62c-.41 0-.75-.34-.75-.75s.34-.75.75-.75h5.25c.01-.57.17-1.14.48-1.65l.06-.1.74-1.22c.06-.101.13-.19.21-.28.609-.8 1.569-1.28 2.58-1.28.199 0 .399.021.6.061.48-1.201 1.66-2.031 3.02-2.031h.31v-3.25c0-1.52-1.23-2.75-2.75-2.75zm-1 7.5h-9.5c-.41 0-.75-.34-.75-.75s.34-.75.75-.75h9.5c.41 0 .75.34.75.75s-.34.75-.75.75z" fill="#2196f3"/><path d="m12.25 2h-1.1c-.33-1.15-1.39-2-2.65-2s-2.32.85-2.65 2h-1.1c-.41 0-.75.34-.75.75v2c0 .96.79 1.75 1.75 1.75h5.5c.96 0 1.75-.79 1.75-1.75v-2c0-.41-.34-.75-.75-.75z" fill="#1976d2"/><g fill="#fff"><path d="m14 9.75c0 .41-.34.75-.75.75h-9.5c-.41 0-.75-.34-.75-.75s.34-.75.75-.75h9.5c.41 0 .75.34.75.75z"/><path d="m10.49 12.25c-.08.09-.15.18-.21.28l-.74 1.22h-5.79c-.41 0-.75-.34-.75-.75s.34-.75.75-.75z"/><path d="m9.37 17h-5.62c-.41 0-.75-.34-.75-.75s.34-.75.75-.75h5.25c0 .519.12 1.04.37 1.5z"/></g><path d="m4 3h-1.25c-1.52 0-2.75 1.23-2.75 2.75v12.5c0 1.52 1.23 2.75 2.75 2.75h5.75v-4h-4.75c-.41 0-.75-.34-.75-.75 0-.41.34-.75.75-.75h4.75v-1.75h-4.75c-.41 0-.75-.34-.75-.75s.34-.75.75-.75h4.75v-1.75h-4.75c-.41 0-.75-.34-.75-.75 0-.41.34-.75.75-.75h4.75v-2.5h-2.75c-.96 0-1.75-.79-1.75-1.75z" fill="#1d83d4"/><path d="m8.5 0c-1.26 0-2.32.85-2.65 2h-1.1c-.41 0-.75.34-.75.75v.25 1.75c0 .96.79 1.75 1.75 1.75h2.75z" fill="#1667b7"/><path d="m8.5 9h-4.75c-.41 0-.75.34-.75.75 0 .41.34.75.75.75h4.75z" fill="#dedede"/><path d="m8.5 12.25h-4.75c-.41 0-.75.34-.75.75s.34.75.75.75h4.75z" fill="#dedede"/><path d="m8.5 15.5h-4.75c-.41 0-.75.34-.75.75 0 .41.34.75.75.75h4.75z" fill="#dedede"/><path d="m22.551 17.846c.01-.109.017-.227.017-.346s-.007-.236-.017-.346l.909-.617c.542-.368.701-1.09.362-1.642l-.811-1.325c-.325-.529-1.004-.742-1.581-.494l-1.078.459c-.217-.143-.443-.268-.679-.375l-.111-1.059c-.068-.627-.606-1.101-1.251-1.101h-1.619c-.646 0-1.184.474-1.252 1.102l-.111 1.058c-.235.108-.462.232-.679.375l-1.077-.459c-.577-.246-1.257-.033-1.583.496l-.809 1.322c-.34.553-.182 1.274.361 1.642l.909.618c-.01.109-.017.227-.017.346s.007.236.017.346l-.909.617c-.543.368-.701 1.09-.362 1.641l.811 1.326c.324.529 1.003.74 1.581.494l1.078-.459c.217.143.443.268.679.375l.111 1.059c.068.627.606 1.101 1.251 1.101h1.619c.646 0 1.184-.474 1.252-1.103l.111-1.058c.235-.107.462-.232.679-.375l1.077.459c.578.248 1.258.033 1.583-.496l.809-1.322c.34-.553.182-1.274-.361-1.642zm-5.05 2.154c-1.379 0-2.5-1.121-2.5-2.5s1.121-2.5 2.5-2.5 2.5 1.121 2.5 2.5-1.121 2.5-2.5 2.5z" fill="#f44336"/><path d="m17.501 11h-.81c-.646 0-1.184.474-1.252 1.102l-.111 1.058c-.235.108-.462.232-.679.375l-1.077-.459c-.162-.069-.332-.102-.499-.102-.431 0-.849.217-1.084.598l-.809 1.322c-.34.553-.182 1.274.361 1.642l.909.618c-.01.109-.017.227-.017.346s.007.236.017.346l-.909.617c-.543.368-.701 1.09-.362 1.641l.811 1.326c.233.38.649.596 1.08.596.168 0 .339-.033.501-.102l1.078-.459c.217.143.443.268.679.375l.111 1.059c.069.627.607 1.101 1.252 1.101h.81v-4c-1.379 0-2.5-1.121-2.5-2.5s1.121-2.5 2.5-2.5z" fill="#d43a2f"/></svg>