<svg id="color" enable-background="new 0 0 24 24" height="512" viewBox="0 0 24 24" width="512" xmlns="http://www.w3.org/2000/svg"><path d="m20.917 22.127c-.125 0-.251-.031-.368-.096l-4.854-2.739c-.361-.204-.488-.661-.285-1.022.205-.359.662-.486 1.022-.284l4.854 2.739c.361.203.488.66.285 1.021-.138.244-.392.381-.654.381z" fill="#b0bec5"/><path d="m16.082 18.129c-.26 0-.514-.136-.652-.379-.206-.359-.08-.817.28-1.022l4.835-2.757c.36-.204.818-.08 1.023.279.206.36.08.818-.28 1.023l-4.835 2.757c-.118.068-.245.099-.371.099z" fill="#b0bec5"/><path d="m15.666 18.004c-.103.064-.191.154-.255.266-.204.361-.076.818.285 1.022l3.168 1.788v-1.723l-2.381-1.343-.03.017c-.117.067-.245.099-.371.099-.148-.001-.293-.045-.416-.126z" fill="#99a5ac"/><path d="m18.863 14.93-3.153 1.798c-.36.205-.485.663-.28 1.022.06.106.142.191.236.254.123.082.268.125.416.125.126 0 .254-.031.371-.099l.03-.017 2.381-1.357v-1.726z" fill="#99a5ac"/><path d="m14.25 3h-11.5c-1.52 0-2.75 1.23-2.75 2.75v12.5c0 1.52 1.23 2.75 2.75 2.75h9.61c-.83-.73-1.36-1.8-1.36-3 0-.35.04-.68.13-1h-7.38c-.41 0-.75-.34-.75-.75s.34-.75.75-.75h8.13c.73-.92 1.86-1.5 3.12-1.5.4 0 .77.08 1.13.18l.87-.49v-7.94c0-1.52-1.23-2.75-2.75-2.75zm-1 10.75h-9.5c-.41 0-.75-.34-.75-.75s.34-.75.75-.75h9.5c.41 0 .75.34.75.75s-.34.75-.75.75zm0-3.25h-9.5c-.41 0-.75-.34-.75-.75s.34-.75.75-.75h9.5c.41 0 .75.34.75.75s-.34.75-.75.75z" fill="#2196f3"/><path d="m12.25 2h-1.1c-.33-1.15-1.39-2-2.65-2s-2.32.85-2.65 2h-1.1c-.41 0-.75.34-.75.75v2c0 .96.79 1.75 1.75 1.75h5.5c.96 0 1.75-.79 1.75-1.75v-2c0-.41-.34-.75-.75-.75z" fill="#1976d2"/><g fill="#fff"><path d="m14 9.75c0 .41-.34.75-.75.75h-9.5c-.41 0-.75-.34-.75-.75s.34-.75.75-.75h9.5c.41 0 .75.34.75.75z"/><path d="m14 13c0 .41-.34.75-.75.75h-9.5c-.41 0-.75-.34-.75-.75s.34-.75.75-.75h9.5c.41 0 .75.34.75.75z"/><path d="m11.88 15.5c-.35.44-.61.94-.75 1.5h-7.38c-.41 0-.75-.34-.75-.75s.34-.75.75-.75z"/></g><path d="m4 3h-1.25c-1.52 0-2.75 1.23-2.75 2.75v12.5c0 1.52 1.23 2.75 2.75 2.75h5.75v-4h-4.75c-.41 0-.75-.34-.75-.75 0-.41.34-.75.75-.75h4.75v-1.75h-4.75c-.41 0-.75-.34-.75-.75 0-.41.34-.75.75-.75h4.75v-1.75h-4.75c-.41 0-.75-.34-.75-.75 0-.41.34-.75.75-.75h4.75v-2.5h-2.75c-.96 0-1.75-.79-1.75-1.75z" fill="#1d83d4"/><path d="m8.5 0c-1.26 0-2.32.85-2.65 2h-1.1c-.41 0-.75.34-.75.75v.25 1.75c0 .96.79 1.75 1.75 1.75h2.75z" fill="#1667b7"/><path d="m8.5 9h-4.75c-.41 0-.75.34-.75.75 0 .41.34.75.75.75h4.75z" fill="#dedede"/><path d="m8.5 12.25h-4.75c-.41 0-.75.34-.75.75 0 .41.34.75.75.75h4.75z" fill="#dedede"/><path d="m8.5 15.5h-4.75c-.41 0-.75.34-.75.75 0 .41.34.75.75.75h4.75z" fill="#dedede"/><path d="m15 20c-1.103 0-2-.897-2-2 0-1.104.897-2 2-2s2 .896 2 2-.897 2-2 2z" fill="#546e7a"/><path d="m15 16c-1.103 0-2 .896-2 2s.897 2 2 2z" fill="#49606a"/><path d="m22 16c-1.103 0-2-.897-2-2 0-1.104.897-2 2-2s2 .897 2 2c0 1.104-.897 2-2 2z" fill="#546e7a"/><path d="m22 24c-1.103 0-2-.896-2-2 0-1.103.897-2 2-2s2 .896 2 2-.897 2-2 2z" fill="#546e7a"/><path d="m21.959 12c-1.084.022-1.959.91-1.959 2s.875 1.978 1.96 2v-4z" fill="#49606a"/><path d="m21.959 20c-1.084.022-1.959.91-1.959 2s.875 1.978 1.96 2v-4z" fill="#49606a"/></svg>