<svg id="color" enable-background="new 0 0 24 24" height="512" viewBox="0 0 24 24" width="512" xmlns="http://www.w3.org/2000/svg"><path d="m21.25 3h-11.5c-1.52 0-2.75 1.23-2.75 2.75v5.81l.16.11c.18.14.33.3.47.47.88.13 1.68.32 2.44.56.109-.26.38-.45.68-.45h9.5c.41 0 .75.34.75.75s-.34.75-.75.75h-6.98c1.31.23 2.94.68 3.9 1.75h3.08c.17 0 .33.059.46.16.45-.101.88-.16 1.29-.16.74 0 1.42.16 2 .44v-10.19c0-1.52-1.231-2.75-2.75-2.75zm-1 7.5h-9.5c-.41 0-.75-.34-.75-.75s.34-.75.75-.75h9.5c.41 0 .75.34.75.75s-.34.75-.75.75z" fill="#2196f3"/><path d="m19.25 2h-1.1c-.33-1.15-1.391-2-2.65-2-1.26 0-2.32.85-2.65 2h-1.1c-.41 0-.75.34-.75.75v2c0 .96.79 1.75 1.75 1.75h5.5c.96 0 1.75-.79 1.75-1.75v-2c0-.41-.34-.75-.75-.75z" fill="#1976d2"/><path d="m21 9.75c0 .41-.34.75-.75.75h-9.5c-.41 0-.75-.34-.75-.75s.34-.75.75-.75h9.5c.41 0 .75.34.75.75z" fill="#fff"/><path d="m21 13c0 .41-.34.75-.75.75h-6.98c-.399-.07-.76-.13-1.069-.17l-.04-.01c-.67-.351-1.36-.641-2.09-.87.109-.26.38-.45.68-.45h9.5c.409 0 .749.34.749.75z" fill="#fff"/><path d="m20.71 15.66c-.9.21-1.86.59-2.87 1-.14-.45-.38-.83-.67-1.16h3.08c.17 0 .33.06.46.16z" fill="#eee"/><path d="m15.535 13.75h-2.265c.714.126 1.522.316 2.266.636v-.636zm-4.535-10.75h-1.25c-1.52 0-2.75 1.23-2.75 2.75v5.81l.16.11c.18.14.33.3.47.47.88.13 1.68.32 2.44.56.109-.26.38-.45.68-.45h4.785v-1.75h-4.785c-.41 0-.75-.34-.75-.75 0-.41.34-.75.75-.75h4.785v-2.5h-2.785c-.96 0-1.75-.79-1.75-1.75z" fill="#1d83d4"/><path d="m15.5 0c-1.26 0-2.32.85-2.65 2h-1.1c-.41 0-.75.34-.75.75v.25 1.75c0 .96.79 1.75 1.75 1.75h2.785v-6.5c-.012 0-.023 0-.035 0z" fill="#1667b7"/><path d="m15.535 9h-4.785c-.41 0-.75.34-.75.75 0 .41.34.75.75.75h4.785z" fill="#dedede"/><path d="m15.535 12.25h-4.785c-.3 0-.57.19-.68.45.729.23 1.42.52 2.09.87l.04.01c.31.04.67.1 1.069.17h2.266z" fill="#dedede"/><path d="m22 17.5c-2 0-6 2.531-8 2.531s-4.25-1.531-4.25-1.531 2.693.5 4.25.5 2-.531 2-1.25c0-1.75-2.973-2.023-4.476-2.251-1.477-.821-3.037-1.332-5.482-1.539-.015.142-.037.284-.077.426l-2.009 7.08c2.276 1.034 6.987 2.534 9.044 2.534 3 0 11-4 11-5s-1-1.5-2-1.5z" fill="#eceff1"/><path d="m3.5 22h-2.75c-.414 0-.75-.336-.75-.75v-8.5c0-.414.336-.75.75-.75 3.505 0 5.138 1.217 5.205 1.268.242.186.349.498.27.793l-2 7.385c-.089.327-.386.554-.725.554z" fill="#607d8b"/><path d="m15.966 17.438h-10.656l-1.085 4.008c-.011.042-.026.082-.044.12 2.348 1.028 6.828 2.434 8.819 2.434 3 0 11-4 11-5s-1-1.5-2-1.5c-2 0-6 2.531-8 2.531s-4.25-1.531-4.25-1.531 2.693.5 4.25.5 2-.531 2-1.25c0-.11-.012-.214-.034-.312z" fill="#cdd0d2"/><path d="m5.31 17.438h-5.31v3.812c0 .414.336.75.75.75h2.75c.296 0 .559-.172.681-.434.018-.038.032-.078.044-.12z" fill="#546d79"/></svg>