<svg id="color" enable-background="new 0 0 24 24" height="512" viewBox="0 0 24 24" width="512" xmlns="http://www.w3.org/2000/svg"><path d="m14.25 3h-11.5c-1.52 0-2.75 1.23-2.75 2.75v12.5c0 1.52 1.23 2.75 2.75 2.75h8.93l.27-1.07-1.99-1.7c-.39-.33-.67-.76-.82-1.23-.16-.48-.19-.99-.06-1.5l.06-.23c.23-.659.68-1.189 1.25-1.52h-6.64c-.41 0-.75-.34-.75-.75s.34-.75.75-.75h9.5c.41 0 .75.34.75.75l-.05.26h.07l.9-2.46c.33-.92 1.14-1.58 2.08-1.75v-3.3c0-1.52-1.23-2.75-2.75-2.75zm-1 7.5h-9.5c-.41 0-.75-.34-.75-.75s.34-.75.75-.75h9.5c.41 0 .75.34.75.75s-.34.75-.75.75z" fill="#2196f3"/><path d="m12.25 2h-1.1c-.33-1.15-1.39-2-2.65-2s-2.32.85-2.65 2h-1.1c-.41 0-.75.34-.75.75v2c0 .96.79 1.75 1.75 1.75h5.5c.96 0 1.75-.79 1.75-1.75v-2c0-.41-.34-.75-.75-.75z" fill="#1976d2"/><g fill="#fff"><path d="m14 9.75c0 .41-.34.75-.75.75h-9.5c-.41 0-.75-.34-.75-.75s.34-.75.75-.75h9.5c.41 0 .75.34.75.75z"/><path d="m14 13-.05.26-2.36.14c-.43.02-.84.149-1.2.35h-6.64c-.41 0-.75-.34-.75-.75s.34-.75.75-.75h9.5c.41 0 .75.34.75.75z"/><path d="m9.14 17h-5.39c-.41 0-.75-.34-.75-.75s.34-.75.75-.75h5.33c-.13.51-.1 1.02.06 1.5z"/></g><path d="m4 3h-1.25c-1.52 0-2.75 1.23-2.75 2.75v12.5c0 1.52 1.23 2.75 2.75 2.75h5.75v-4h-4.75c-.41 0-.75-.34-.75-.75s.34-.75.75-.75h4.75v-1.75h-4.75c-.41 0-.75-.34-.75-.75 0-.41.34-.75.75-.75h4.75v-1.75h-4.75c-.41 0-.75-.34-.75-.75 0-.41.34-.75.75-.75h4.75v-2.5h-2.75c-.96 0-1.75-.79-1.75-1.75z" fill="#1d83d4"/><path d="m8.5 0c-1.26 0-2.32.85-2.65 2h-1.1c-.41 0-.75.34-.75.75v.25 1.75c0 .96.79 1.75 1.75 1.75h2.75z" fill="#1667b7"/><path d="m8.5 9h-4.75c-.41 0-.75.34-.75.75 0 .41.34.75.75.75h4.75z" fill="#dedede"/><path d="m8.5 12.25h-4.75c-.41 0-.75.34-.75.75 0 .41.34.75.75.75h4.75z" fill="#dedede"/><path d="m8.5 15.5h-4.75c-.41 0-.75.34-.75.75s.34.75.75.75h4.75z" fill="#dedede"/><path d="m21.054 24c-.147 0-.294-.043-.422-.13l-3.132-2.132-3.132 2.132c-.258.175-.597.173-.852-.006s-.373-.497-.297-.798l.975-3.85-2.932-2.504c-.233-.199-.321-.52-.224-.81.098-.289.363-.491.668-.509l3.735-.212 1.353-3.689c.11-.296.392-.492.706-.492s.596.196.704.492l1.354 3.689 3.735.212c.306.018.57.22.669.509.098.291.009.611-.224.81l-2.932 2.504.975 3.85c.077.301-.041.619-.297.798-.13.091-.28.136-.43.136z" fill="#ffc107"/><path d="m17.5 11c-.314 0-.596.196-.704.492l-1.353 3.689-3.735.212c-.306.018-.57.22-.668.509-.098.291-.009.611.224.81l2.932 2.504-.975 3.85c-.077.301.042.619.297.798.129.09.28.135.43.135.147 0 .294-.043.422-.13l3.132-2.132v-10.737z" fill="#dea806"/></svg>