<svg id="color" enable-background="new 0 0 24 24" height="512" viewBox="0 0 24 24" width="512" xmlns="http://www.w3.org/2000/svg"><path d="m14.25 3h-11.5c-1.52 0-2.75 1.23-2.75 2.75v12.5c0 1.52 1.23 2.75 2.75 2.75h7.28c.16-1.65 1.41-2.99 3.05-3.29-.14-.229-.26-.46-.36-.71h-8.97c-.41 0-.75-.34-.75-.75s.34-.75.75-.75h8.55c-.08-.57-.069-1.16.03-1.75h-8.58c-.41 0-.75-.34-.75-.75s.34-.75.75-.75h9.08c.79-1.62 2.34-2.84 4.14-3.16h.03v-3.34c0-1.52-1.23-2.75-2.75-2.75zm-1 7.5h-9.5c-.41 0-.75-.34-.75-.75s.34-.75.75-.75h9.5c.41 0 .75.34.75.75s-.34.75-.75.75z" fill="#2196f3"/><path d="m12.25 2h-1.1c-.33-1.15-1.39-2-2.65-2s-2.32.85-2.65 2h-1.1c-.41 0-.75.34-.75.75v2c0 .96.79 1.75 1.75 1.75h5.5c.96 0 1.75-.79 1.75-1.75v-2c0-.41-.34-.75-.75-.75z" fill="#1976d2"/><g fill="#fff"><path d="m14 9.75c0 .41-.34.75-.75.75h-9.5c-.41 0-.75-.34-.75-.75s.34-.75.75-.75h9.5c.41 0 .75.34.75.75z"/><path d="m12.83 12.25c-.23.46-.4.95-.49 1.46l-.01.04h-8.58c-.41 0-.75-.34-.75-.75s.34-.75.75-.75z"/><path d="m12.72 17h-8.97c-.41 0-.75-.34-.75-.75s.34-.75.75-.75h8.55c.07.52.21 1.019.42 1.5z"/></g><path d="m4 3h-1.25c-1.52 0-2.75 1.23-2.75 2.75v12.5c0 1.52 1.23 2.75 2.75 2.75h5.75v-4h-4.75c-.41 0-.75-.34-.75-.75 0-.41.34-.75.75-.75h4.75v-1.75h-4.75c-.41 0-.75-.34-.75-.75 0-.41.34-.75.75-.75h4.75v-1.75h-4.75c-.41 0-.75-.34-.75-.75 0-.41.34-.75.75-.75h4.75v-2.5h-2.75c-.96 0-1.75-.79-1.75-1.75z" fill="#1d83d4"/><path d="m8.5 0c-1.26 0-2.32.85-2.65 2h-1.1c-.41 0-.75.34-.75.75v.25 1.75c0 .96.79 1.75 1.75 1.75h2.75z" fill="#1667b7"/><path d="m8.5 9h-4.75c-.41 0-.75.34-.75.75 0 .41.34.75.75.75h4.75z" fill="#dedede"/><path d="m8.5 12.25h-4.75c-.41 0-.75.34-.75.75 0 .41.34.75.75.75h4.75z" fill="#dedede"/><path d="m8.5 15.5h-4.75c-.41 0-.75.34-.75.75 0 .41.34.75.75.75h4.75z" fill="#dedede"/><path d="m19.5 20.5h-3c-.414 0-.75-.336-.75-.75v-1.456c0-.407-.242-.742-.445-.951-.848-.874-1.211-2.069-.993-3.278.271-1.503 1.508-2.738 3.01-3.004 1.108-.2 2.235.1 3.087.815.854.715 1.342 1.763 1.342 2.874 0 1.002-.394 1.943-1.111 2.651-.178.175-.389.457-.389.808v1.542c-.001.413-.337.749-.751.749z" fill="#ffc107"/><path d="m23.25 24h-10.5c-.414 0-.75-.336-.75-.75v-1.867c0-.881.659-1.627 1.533-1.736l3.123-.391 2.594-.006 3.217.396c.874.11 1.533.856 1.533 1.737v1.867c0 .414-.336.75-.75.75z" fill="#2196f3"/><path d="m17.998 11c-.225 0-.451.02-.677.061-1.502.266-2.739 1.501-3.01 3.004-.218 1.209.145 2.404.993 3.278.203.209.445.544.445.951v1.075l.906-.113 1.345-.003v-8.253c-.001 0-.001 0-.002 0z" fill="#dea806"/><path d="m18 19.253-1.344.003-.906.113-2.217.277c-.874.11-1.533.856-1.533 1.737v1.867c0 .414.336.75.75.75h5.25z" fill="#1d83d4"/></svg>