<svg id="color" enable-background="new 0 0 24 24" height="512" viewBox="0 0 24 24" width="512" xmlns="http://www.w3.org/2000/svg"><path d="m18.25 24h-12.5c-1.517 0-2.75-1.233-2.75-2.75v-15.5c0-1.517 1.233-2.75 2.75-2.75h12.5c1.517 0 2.75 1.233 2.75 2.75v15.5c0 1.517-1.233 2.75-2.75 2.75z" fill="#2196f3"/><path d="m15.25 6h-6.5c-.965 0-1.75-.785-1.75-1.75v-1.5c0-.414.336-.75.75-.75h1.604c.328-1.153 1.389-2 2.646-2s2.318.847 2.646 2h1.604c.414 0 .75.336.75.75v1.5c0 .965-.785 1.75-1.75 1.75z" fill="#1976d2"/><path d="m7 3h-1.25c-1.517 0-2.75 1.233-2.75 2.75v15.5c0 1.517 1.233 2.75 2.75 2.75h6.25v-18h-3.25c-.965 0-1.75-.785-1.75-1.75z" fill="#1d83d4"/><path d="m12 0c-1.257 0-2.318.847-2.646 2h-1.604c-.414 0-.75.336-.75.75v.25 1.25c0 .965.785 1.75 1.75 1.75h3.25z" fill="#1667b7"/><g fill="#fff"><path d="m18 13.5h-7v3h7z"/><path d="m11 12h7v-2.75c0-.414-.336-.75-.75-.75h-6.25z"/><path d="m11 18v3.5h6.25c.414 0 .75-.336.75-.75v-2.75z"/></g><path d="m14.5 13.5h-3.5v3h3.5z" fill="#dedede"/><path d="m14.5 8.5h-3.5v3.5h3.5z" fill="#dedede"/><path d="m14.5 18h-3.5v3.5h3.5z" fill="#dedede"/><path d="m9.5 13.5h-3.5v3h3.5z" fill="#fff"/><path d="m9.5 18h-3.5v2.75c0 .414.336.75.75.75h2.75z" fill="#fff"/><path d="m9.5 12v-3.5h-2.75c-.414 0-.75.336-.75.75v2.75z" fill="#fff"/><path d="m7.75 13.5h-1.75v3h1.75z" fill="#dedede"/><path d="m7.75 18h-1.75v2.75c0 .414.336.75.75.75h1z" fill="#dedede"/><path d="m7.75 8.5h-1c-.414 0-.75.336-.75.75v2.75h1.75z" fill="#dedede"/></svg>