<svg id="color" enable-background="new 0 0 24 24" height="512" viewBox="0 0 24 24" width="512" xmlns="http://www.w3.org/2000/svg"><path d="m18.25 24h-12.5c-1.517 0-2.75-1.233-2.75-2.75v-15.5c0-1.517 1.233-2.75 2.75-2.75h12.5c1.517 0 2.75 1.233 2.75 2.75v15.5c0 1.517-1.233 2.75-2.75 2.75z" fill="#2196f3"/><path d="m15.25 6h-6.5c-.965 0-1.75-.785-1.75-1.75v-1.5c0-.414.336-.75.75-.75h1.604c.328-1.153 1.389-2 2.646-2s2.318.847 2.646 2h1.604c.414 0 .75.336.75.75v1.5c0 .965-.785 1.75-1.75 1.75z" fill="#1976d2"/><path d="m7 3h-1.25c-1.517 0-2.75 1.233-2.75 2.75v15.5c0 1.517 1.233 2.75 2.75 2.75h6.25v-18h-3.25c-.965 0-1.75-.785-1.75-1.75z" fill="#1d83d4"/><path d="m12 0c-1.257 0-2.318.847-2.646 2h-1.604c-.414 0-.75.336-.75.75v.25 1.25c0 .965.785 1.75 1.75 1.75h3.25z" fill="#1667b7"/><g fill="#fff"><path d="m12 19.75c-.553 0-1-.448-1-1v-2c0-.552.447-1 1-1s1 .448 1 1v2c0 .552-.447 1-1 1z"/><path d="m14.249 21.25c-.19 0-.383-.054-.554-.168l-1.695-1.13-1.695 1.13c-.461.307-1.082.182-1.387-.277-.307-.46-.183-1.081.277-1.387l2.25-1.5c.336-.224.773-.224 1.109 0l2.25 1.5c.46.306.584.927.277 1.387-.191.289-.509.445-.832.445z"/><path d="m17.25 17.5h-10.5c-.414 0-.75-.336-.75-.75v-6.5c0-.414.336-.75.75-.75h10.5c.414 0 .75.336.75.75v6.5c0 .414-.336.75-.75.75z"/></g><path d="m12 17.5h-1v.715l.445-.297c.168-.112.361-.168.555-.168z" fill="#dedede"/><path d="m12 17.75c-.193 0-.387.056-.555.168l-.445.297-1.805 1.203c-.46.306-.584.927-.277 1.387.192.289.509.445.832.445.191 0 .384-.054.554-.168l1.696-1.13z" fill="#dedede"/><path d="m12 9.5h-5.25c-.414 0-.75.336-.75.75v6.5c0 .414.336.75.75.75h4.25 1z" fill="#dedede"/></svg>