<svg id="color" enable-background="new 0 0 24 24" height="512" viewBox="0 0 24 24" width="512" xmlns="http://www.w3.org/2000/svg"><path d="m14.25 3h-11.5c-1.52 0-2.75 1.23-2.75 2.75v12.5c0 1.52 1.23 2.75 2.75 2.75h7.84c-.38-.93-.59-1.94-.59-3 0-.34.02-.67.06-1h-6.31c-.41 0-.75-.34-.75-.75s.34-.75.75-.75h6.66c.2-.62.48-1.21.82-1.75h-7.48c-.41 0-.75-.34-.75-.75s.34-.75.75-.75h8.7c1.21-1.17 2.8-1.97 4.55-2.19v-4.31c0-1.52-1.23-2.75-2.75-2.75zm-1 7.5h-9.5c-.41 0-.75-.34-.75-.75s.34-.75.75-.75h9.5c.41 0 .75.34.75.75s-.34.75-.75.75z" fill="#2196f3"/><path d="m12.25 2h-1.1c-.33-1.15-1.39-2-2.65-2s-2.32.85-2.65 2h-1.1c-.41 0-.75.34-.75.75v2c0 .96.79 1.75 1.75 1.75h5.5c.96 0 1.75-.79 1.75-1.75v-2c0-.41-.34-.75-.75-.75z" fill="#1976d2"/><g fill="#fff"><path d="m14 9.75c0 .41-.34.75-.75.75h-9.5c-.41 0-.75-.34-.75-.75s.34-.75.75-.75h9.5c.41 0 .75.34.75.75z"/><path d="m12.45 12.25c-.47.45-.88.95-1.22 1.5h-7.48c-.41 0-.75-.34-.75-.75s.34-.75.75-.75z"/><path d="m10.41 15.5c-.17.48-.28.98-.35 1.5h-6.31c-.41 0-.75-.34-.75-.75s.34-.75.75-.75z"/></g><path d="m4 3h-1.25c-1.52 0-2.75 1.23-2.75 2.75v12.5c0 1.52 1.23 2.75 2.75 2.75h5.75v-4h-4.75c-.41 0-.75-.34-.75-.75 0-.41.34-.75.75-.75h4.75v-1.75h-4.75c-.41 0-.75-.34-.75-.75 0-.41.34-.75.75-.75h4.75v-1.75h-4.75c-.41 0-.75-.34-.75-.75 0-.41.34-.75.75-.75h4.75v-2.5h-2.75c-.96 0-1.75-.79-1.75-1.75z" fill="#1d83d4"/><path d="m8.5 0c-1.26 0-2.32.85-2.65 2h-1.1c-.41 0-.75.34-.75.75v.25 1.75c0 .96.79 1.75 1.75 1.75h2.75z" fill="#1667b7"/><path d="m8.5 9h-4.75c-.41 0-.75.34-.75.75 0 .41.34.75.75.75h4.75z" fill="#dedede"/><path d="m8.5 12.25h-4.75c-.41 0-.75.34-.75.75 0 .41.34.75.75.75h4.75z" fill="#dedede"/><path d="m8.5 15.5h-4.75c-.41 0-.75.34-.75.75 0 .41.34.75.75.75h4.75z" fill="#dedede"/><path d="m18 12c-3.308 0-6 2.691-6 6 0 3.308 2.692 6 6 6s6-2.692 6-6c0-3.309-2.692-6-6-6zm2.873 8.664c-.198.223-.473.336-.748.336-.236 0-.473-.083-.664-.253l-2.25-2c-.213-.189-.335-.462-.335-.747v-3c0-.553.448-1 1-1s1 .447 1 1v2.551l1.915 1.701c.411.367.448.999.082 1.412z" fill="#ffeb3b"/><path d="m17.856 14c-.544.01-.981.453-.981 1v3c0 .285.122.558.335.747l.646.574z" fill="#dedede"/><path d="m17.856 12.002c-3.242.076-5.856 2.737-5.856 5.998 0 3.26 2.614 5.922 5.856 5.998v-4.677l-.646-.574c-.213-.189-.335-.462-.335-.747v-3c0-.547.438-.99.981-1z" fill="#decd33"/></svg>