<svg id="color" enable-background="new 0 0 24 24" height="512" viewBox="0 0 24 24" width="512" xmlns="http://www.w3.org/2000/svg"><path d="m13.98 12.88c-.01.01-.02.02-.03.02l-.65-.64c.35.02.63.28.68.62z" fill="#fff"/><path d="m14.25 3h-11.5c-1.52 0-2.75 1.23-2.75 2.75v12.5c0 1.52 1.23 2.75 2.75 2.75h7.18c.17-.53.5-1.09 1.05-1.64.16-.16.33-.301.51-.431l-1.93-1.929h-5.81c-.41 0-.75-.34-.75-.75s.34-.75.75-.75h4.57c-.19-.39-.29-.82-.29-1.27 0-.16.01-.32.039-.48h-4.319c-.41 0-.75-.34-.75-.75s.34-.75.75-.75h5.02l.14-.15c.57-.56 1.32-.88 2.12-.88s1.55.31 2.11.88l.16.16c.35.021.63.28.68.62.29-.14.61-.22.94-.26l.08-.08c.54-.54 1.25-.85 2-.88v-5.91c0-1.52-1.23-2.75-2.75-2.75zm-1 7.5h-9.5c-.41 0-.75-.34-.75-.75s.34-.75.75-.75h9.5c.41 0 .75.34.75.75s-.34.75-.75.75z" fill="#2196f3"/><path d="m12.25 2h-1.1c-.33-1.15-1.39-2-2.65-2s-2.32.85-2.65 2h-1.1c-.41 0-.75.34-.75.75v2c0 .96.79 1.75 1.75 1.75h5.5c.96 0 1.75-.79 1.75-1.75v-2c0-.41-.34-.75-.75-.75z" fill="#1976d2"/><g fill="#fff"><path d="m14 9.75c0 .41-.34.75-.75.75h-9.5c-.41 0-.75-.34-.75-.75s.34-.75.75-.75h9.5c.41 0 .75.34.75.75z"/><path d="m8.77 12.25c-.37.43-.61.95-.7 1.5h-4.32c-.41 0-.75-.34-.75-.75s.34-.75.75-.75z"/><path d="m9.56 17h-5.81c-.41 0-.75-.34-.75-.75s.34-.75.75-.75h4.57c.13.309.33.59.58.84z"/></g><path d="m4 3h-1.25c-1.52 0-2.75 1.23-2.75 2.75v12.5c0 1.52 1.23 2.75 2.75 2.75h5.75v-4h-4.75c-.41 0-.75-.34-.75-.75 0-.41.34-.75.75-.75h4.57c-.19-.39-.29-.82-.29-1.27 0-.16.01-.32.039-.48h-4.319c-.41 0-.75-.34-.75-.75 0-.41.34-.75.75-.75h4.75v-1.75h-4.75c-.41 0-.75-.34-.75-.75 0-.41.34-.75.75-.75h4.75v-2.5h-2.75c-.96 0-1.75-.79-1.75-1.75z" fill="#1d83d4"/><path d="m8.5 0c-1.26 0-2.32.85-2.65 2h-1.1c-.41 0-.75.34-.75.75v.25 1.75c0 .96.79 1.75 1.75 1.75h2.75z" fill="#1667b7"/><path d="m8.5 9h-4.75c-.41 0-.75.34-.75.75 0 .41.34.75.75.75h4.75z" fill="#dedede"/><path d="m8.5 12.25h-4.75c-.41 0-.75.34-.75.75 0 .41.34.75.75.75h4.32c.066-.402.212-.788.43-1.135z" fill="#dedede"/><path d="m8.32 15.5h-4.57c-.41 0-.75.34-.75.75 0 .41.34.75.75.75h4.75v-1.156c-.07-.11-.13-.225-.18-.344z" fill="#dedede"/><path d="m20.167 13.463 2.796 2.797.009.009c1.664 1.664 1.172 3.936-.506 5.613l-1.183 1.184c-1.197 1.179-2.932 1.301-5.624.032-1.592-.751-2.405-.729-2.926-.707-.359.015-.579.031-.819-.209-.214-.215-.23-.702.477-1.409 1.122-1.122 3.284-.487 3.284-.487l-5.36-5.359c-.387-.387-.383-1.016.008-1.406.391-.392 1.019-.396 1.406-.009l2.796 2.797c-.205-.205-.302-.481-.281-.753.011-.234.106-.47.29-.653.391-.392 1.02-.395 1.406-.008l.466.466c-.205-.205-.302-.481-.281-.753.01-.234.105-.47.29-.653.391-.392 1.019-.395 1.406-.008l.932.932c-.205-.205-.302-.48-.281-.753.011-.234.106-.469.29-.653.389-.393 1.018-.397 1.405-.01z" fill="#ffcc80"/><path d="m18.471 14.124 2.148 2.148c-.132.132-.338.134-.469.003l-1.398-1.398c-.205-.205-.302-.481-.281-.753z" fill="#ffa726"/><path d="m16.125 14.607 2.614 2.614c-.132.132-.338.134-.469.003l-1.864-1.864c-.205-.206-.302-.482-.281-.753z" fill="#ffa726"/><path d="m14.244 15.555 2.614 2.614c-.132.132-.338.133-.469.003l-1.864-1.864c-.204-.205-.301-.482-.281-.753z" fill="#ffa726"/><path d="m11.034 13.223c-.256 0-.514.099-.711.296-.392.391-.395 1.02-.008 1.406l5.36 5.359s-.609-.179-1.349-.179c-.654 0-1.409.14-1.935.666-.707.707-.691 1.194-.477 1.409.181.181.351.217.578.217.074 0 .153-.004.241-.008s.184-.007.291-.007c.526 0 1.311.09 2.635.714 1.304.616 2.383.904 3.285.904.961 0 1.722-.327 2.339-.935l.879-.88-7.436-7.436c-.068.042-.133.092-.192.151-.184.184-.279.419-.29.653l2.614 2.614c-.066.066-.152.1-.236.1s-.167-.032-.232-.097l-1.864-1.864c-.187-.187-.284-.435-.284-.683 0 .248.097.495.284.683l-2.796-2.797c-.192-.19-.444-.286-.696-.286z" fill="#deb26f"/><path d="m14.244 15.555c-.002.023-.003.047-.003.07 0 .248.097.495.284.683l1.864 1.864c.065.065.148.097.232.097.085 0 .17-.033.236-.1z" fill="#de9121"/></svg>