<svg id="color" enable-background="new 0 0 24 24" height="512" viewBox="0 0 24 24" width="512" xmlns="http://www.w3.org/2000/svg"><path d="m14.25 3h-11.5c-1.52 0-2.75 1.23-2.75 2.75v12.5c0 1.52 1.23 2.75 2.75 2.75h9.26c.03-1.44.42-2.8 1.07-4h-9.33c-.41 0-.75-.34-.75-.75s.34-.75.75-.75h9.5c.25 0 .47.12.6.31.83-1.09 1.91-1.989 3.15-2.609v-7.451c0-1.52-1.23-2.75-2.75-2.75zm-1 10.75h-9.5c-.41 0-.75-.34-.75-.75s.34-.75.75-.75h9.5c.41 0 .75.34.75.75s-.34.75-.75.75zm0-3.25h-9.5c-.41 0-.75-.34-.75-.75s.34-.75.75-.75h9.5c.41 0 .75.34.75.75s-.34.75-.75.75z" fill="#2196f3"/><path d="m12.25 2h-1.1c-.33-1.15-1.39-2-2.65-2s-2.32.85-2.65 2h-1.1c-.41 0-.75.34-.75.75v2c0 .96.79 1.75 1.75 1.75h5.5c.96 0 1.75-.79 1.75-1.75v-2c0-.41-.34-.75-.75-.75z" fill="#1976d2"/><g fill="#fff"><path d="m14 9.75c0 .41-.34.75-.75.75h-9.5c-.41 0-.75-.34-.75-.75s.34-.75.75-.75h9.5c.41 0 .75.34.75.75z"/><path d="m14 13c0 .41-.34.75-.75.75h-9.5c-.41 0-.75-.34-.75-.75s.34-.75.75-.75h9.5c.41 0 .75.34.75.75z"/><path d="m13.85 15.81c-.29.37-.55.771-.77 1.19h-9.33c-.41 0-.75-.34-.75-.75s.34-.75.75-.75h9.5c.25 0 .47.12.6.31z"/></g><path d="m4 3h-1.25c-1.52 0-2.75 1.23-2.75 2.75v12.5c0 1.52 1.23 2.75 2.75 2.75h5.75v-4h-4.75c-.41 0-.75-.34-.75-.75 0-.41.34-.75.75-.75h4.75v-1.75h-4.75c-.41 0-.75-.34-.75-.75 0-.41.34-.75.75-.75h4.75v-1.75h-4.75c-.41 0-.75-.34-.75-.75 0-.41.34-.75.75-.75h4.75v-2.5h-2.75c-.96 0-1.75-.79-1.75-1.75z" fill="#1d83d4"/><path d="m8.5 0c-1.26 0-2.32.85-2.65 2h-1.1c-.41 0-.75.34-.75.75v.25 1.75c0 .96.79 1.75 1.75 1.75h2.75z" fill="#1667b7"/><path d="m8.5 9h-4.75c-.41 0-.75.34-.75.75 0 .41.34.75.75.75h4.75z" fill="#dedede"/><path d="m8.5 12.25h-4.75c-.41 0-.75.34-.75.75 0 .41.34.75.75.75h4.75z" fill="#dedede"/><path d="m8.5 15.5h-4.75c-.41 0-.75.34-.75.75 0 .41.34.75.75.75h4.75z" fill="#dedede"/><path d="m15 24c-.552 0-1-.447-1-1v-1.75c0-3.859 3.14-7 7-7h2c.552 0 1 .447 1 1s-.448 1-1 1h-2c-2.757 0-5 2.243-5 5v1.75c0 .553-.448 1-1 1z" fill="#ffc107"/><path d="m20 19c-.136 0-.273-.027-.403-.084-.363-.16-.597-.52-.597-.916v-5.5c0-.397.234-.756.597-.916.362-.158.785-.09 1.079.179l3 2.75c.206.189.324.457.324.737s-.118.548-.324.737l-3 2.75c-.188.173-.431.263-.676.263z" fill="#ffc107"/><path d="m23.703 15.961s0 .001 0 0c0 .001 0 .001 0 0zm.005-.005c-.001.001-.002.002-.002.002.001 0 .001-.001.002-.002zm.005-.005c-.001.001-.002.002-.003.003.001 0 .002-.002.003-.003zm.287-.693c-.002.26-.105.508-.286.693.175-.179.284-.423.286-.693zm-5-.008h-1.602c-2.034 1.226-3.398 3.457-3.398 6v1.75c0 .553.448 1 1 1s1-.447 1-1v-1.75c0-2.046 1.236-3.809 3-4.582zm5 0v.006c0-.002 0-.004 0-.006z" fill="#dea806"/><path d="m24 15.25h-5v1.418 1.332c0 .396.234.756.597.916.13.057.267.084.403.084.245 0 .488-.09.676-.263l3-2.75c.009-.008.018-.017.026-.025 0 0 .001-.001.001-.001.001-.001.002-.002.003-.003s.002-.002.002-.002c.001 0 .001-.001.002-.002s.002-.002.003-.003c0 0 0 0 .001-.001.181-.185.284-.433.286-.693v-.001c0-.002 0-.004 0-.006z" fill="#dea806"/></svg>