<svg id="color" enable-background="new 0 0 24 24" height="512" viewBox="0 0 24 24" width="512" xmlns="http://www.w3.org/2000/svg"><path d="m14.25 3h-11.5c-1.52 0-2.75 1.23-2.75 2.75v12.5c0 1.52 1.23 2.75 2.75 2.75h6.59c-.54-1.14-.84-2.41-.84-3.75l.01-.25h-4.76c-.41 0-.75-.34-.75-.75s.34-.75.75-.75h4.93c.12-.61.311-1.2.551-1.75h-5.481c-.41 0-.75-.34-.75-.75s.34-.75.75-.75h6.32c.46-.65 1-1.24 1.609-1.75h-7.929c-.41 0-.75-.34-.75-.75s.34-.75.75-.75h9.5c.21 0 .39.08.53.22.99-.43 2.08-.68 3.22-.71v-2.76c0-1.52-1.23-2.75-2.75-2.75z" fill="#2196f3"/><path d="m12.25 2h-1.1c-.33-1.15-1.39-2-2.65-2s-2.32.85-2.65 2h-1.1c-.41 0-.75.34-.75.75v2c0 .96.79 1.75 1.75 1.75h5.5c.96 0 1.75-.79 1.75-1.75v-2c0-.41-.34-.75-.75-.75z" fill="#1976d2"/><g fill="#fff"><path d="m13.78 9.22c-.76.33-1.47.76-2.1 1.28h-7.93c-.41 0-.75-.34-.75-.75s.34-.75.75-.75h9.5c.21 0 .39.08.53.22z"/><path d="m10.07 12.25c-.33.47-.61.97-.84 1.5h-5.48c-.41 0-.75-.34-.75-.75s.34-.75.75-.75z"/><path d="m8.68 15.5c-.1.49-.16.99-.17 1.5h-4.76c-.41 0-.75-.34-.75-.75s.34-.75.75-.75z"/></g><path d="m4 3h-1.25c-1.52 0-2.75 1.23-2.75 2.75v12.5c0 1.52 1.23 2.75 2.75 2.75h5.75v-3.75-.25h-4.75c-.41 0-.75-.34-.75-.75 0-.41.34-.75.75-.75h4.75v-1.75h-4.75c-.41 0-.75-.34-.75-.75 0-.41.34-.75.75-.75h4.75v-1.75h-4.75c-.41 0-.75-.34-.75-.75 0-.41.34-.75.75-.75h4.75v-2.5h-2.75c-.96 0-1.75-.79-1.75-1.75z" fill="#1d83d4"/><path d="m8.5 0c-1.26 0-2.32.85-2.65 2h-1.1c-.41 0-.75.34-.75.75v.25 1.75c0 .96.79 1.75 1.75 1.75h2.75z" fill="#1667b7"/><path d="m8.5 9h-4.75c-.41 0-.75.34-.75.75 0 .41.34.75.75.75h4.75z" fill="#dedede"/><path d="m8.5 12.25h-4.75c-.41 0-.75.34-.75.75 0 .41.34.75.75.75h4.75z" fill="#dedede"/><path d="m8.5 15.5h-4.75c-.41 0-.75.34-.75.75 0 .41.34.75.75.75h4.75z" fill="#dedede"/><path d="m17.25 24c-3.723 0-6.75-3.027-6.75-6.75s3.027-6.75 6.75-6.75 6.75 3.027 6.75 6.75-3.027 6.75-6.75 6.75z" fill="#2196f3"/><path d="m20 17.75h-5.5c-.423 0-.8-.266-.941-.664-.143-.398-.02-.842.309-1.109l2.75-2.25c.367-.303.898-.303 1.266 0l2.75 2.25c.328.268.451.711.309 1.109-.143.398-.52.664-.943.664z" fill="#fff"/><path d="m17.25 21c-.553 0-1-.447-1-1v-5.5c0-.553.447-1 1-1s1 .447 1 1v5.5c0 .553-.447 1-1 1z" fill="#fff"/><path d="m17.25 10.5c-3.723 0-6.75 3.027-6.75 6.75s3.027 6.75 6.75 6.75v-3c-.553 0-1-.447-1-1v-2.25h-1.75c-.423 0-.8-.266-.941-.664-.143-.398-.02-.842.309-1.109l2.717-2.223c.101-.09.221-.161.353-.204.102-.034.207-.05.313-.05v-3z" fill="#1d83d4"/><path d="m16.584 13.754-2.717 2.223c-.328.268-.451.711-.309 1.109.142.399.519.664.941.664h1.75v-3.25c.001-.297.13-.563.335-.746zm.666-.254c-.106 0-.212.017-.313.05.098-.032.204-.05.313-.05z" fill="#dedede"/><path d="m17.25 13.5c-.109 0-.215.018-.313.05-.132.043-.252.114-.353.204-.205.183-.334.449-.334.746v3.25 2.25c0 .553.447 1 1 1z" fill="#dedede"/></svg>