<svg id="color" enable-background="new 0 0 24 24" height="512" viewBox="0 0 24 24" width="512" xmlns="http://www.w3.org/2000/svg"><path d="m14.25 3h-11.5c-1.52 0-2.75 1.23-2.75 2.75v12.5c0 1.52 1.23 2.75 2.75 2.75h4.9c.1-.4.279-.78.51-1.13l1.77-2.87h-6.18c-.41 0-.75-.34-.75-.75s.34-.75.75-.75h7.1l1.08-1.75h-8.18c-.41 0-.75-.34-.75-.75s.34-.75.75-.75h9.1l.53-.86c.67-1.149 1.97-1.89 3.37-1.89l.25.01v-3.76c0-1.52-1.23-2.75-2.75-2.75zm-1 7.5h-9.5c-.41 0-.75-.34-.75-.75s.34-.75.75-.75h9.5c.41 0 .75.34.75.75s-.34.75-.75.75z" fill="#2196f3"/><path d="m12.25 2h-1.1c-.33-1.15-1.39-2-2.65-2s-2.32.85-2.65 2h-1.1c-.41 0-.75.34-.75.75v2c0 .96.79 1.75 1.75 1.75h5.5c.96 0 1.75-.79 1.75-1.75v-2c0-.41-.34-.75-.75-.75z" fill="#1976d2"/><g fill="#fff"><path d="m14 9.75c0 .41-.34.75-.75.75h-9.5c-.41 0-.75-.34-.75-.75s.34-.75.75-.75h9.5c.41 0 .75.34.75.75z"/><path d="m12.85 12.25-.92 1.5h-8.18c-.41 0-.75-.34-.75-.75s.34-.75.75-.75z"/><path d="m10.85 15.5-.92 1.5h-6.18c-.41 0-.75-.34-.75-.75s.34-.75.75-.75z"/></g><path d="m4 3h-1.25c-1.52 0-2.75 1.23-2.75 2.75v12.5c0 1.52 1.23 2.75 2.75 2.75h4.9c.1-.4.279-.78.51-1.13l.34-.551v-2.319h-4.75c-.41 0-.75-.34-.75-.75 0-.41.34-.75.75-.75h4.75v-1.75h-4.75c-.41 0-.75-.34-.75-.75 0-.41.34-.75.75-.75h4.75v-1.75h-4.75c-.41 0-.75-.34-.75-.75 0-.41.34-.75.75-.75h4.75v-2.5h-2.75c-.96 0-1.75-.79-1.75-1.75z" fill="#1d83d4"/><path d="m8.5 0c-1.26 0-2.32.85-2.65 2h-1.1c-.41 0-.75.34-.75.75v.25 1.75c0 .96.79 1.75 1.75 1.75h2.75z" fill="#1667b7"/><path d="m8.5 9h-4.75c-.41 0-.75.34-.75.75 0 .41.34.75.75.75h4.75z" fill="#dedede"/><path d="m8.5 12.25h-4.75c-.41 0-.75.34-.75.75 0 .41.34.75.75.75h4.75z" fill="#dedede"/><path d="m8.5 15.5h-4.75c-.41 0-.75.34-.75.75 0 .41.34.75.75.75h4.75z" fill="#dedede"/><path d="m22.038 24h-10.576c-1.082 0-1.962-.877-1.962-1.955 0-.384.109-.748.315-1.055l5.266-8.557c.335-.569.979-.934 1.669-.934s1.334.364 1.679.951l5.278 8.573c.184.274.293.638.293 1.022 0 1.078-.88 1.955-1.962 1.955zm-.02-1.906.009.014zm.982-.049h.01z" fill="#2196f3"/><path d="m16.75 19.5c-.553 0-1-.447-1-1v-2c0-.553.447-1 1-1s1 .447 1 1v2c0 .553-.447 1-1 1z" fill="#fff"/><path d="m17.75 21c0 .553-.447 1-1 1s-1-.447-1-1 .447-1 1-1 1 .447 1 1z" fill="#fff"/><path d="m16.75 11.5c-.69 0-1.334.364-1.669.934l-5.266 8.556c-.206.307-.315.671-.315 1.055 0 1.078.88 1.955 1.962 1.955h5.288v-2c-.553 0-1-.447-1-1s.447-1 1-1v-.5c-.553 0-1-.447-1-1v-2c0-.553.447-1 1-1z" fill="#1d83d4"/><path d="m16.75 15.5c-.553 0-1 .447-1 1v2c0 .553.447 1 1 1z" fill="#dedede"/><path d="m16.75 20c-.553 0-1 .447-1 1s.447 1 1 1z" fill="#dedede"/></svg>