<svg id="color" enable-background="new 0 0 24 24" height="512" viewBox="0 0 24 24" width="512" xmlns="http://www.w3.org/2000/svg"><path d="m19.25 24h-14.5c-1.517 0-2.75-1.233-2.75-2.75v-18.5c0-1.517 1.233-2.75 2.75-2.75h14.5c1.517 0 2.75 1.233 2.75 2.75v18.5c0 1.517-1.233 2.75-2.75 2.75z" fill="#eceff1"/><path d="m12 0h-7.25c-1.517 0-2.75 1.233-2.75 2.75v18.5c0 1.517 1.233 2.75 2.75 2.75h7.25z" fill="#cdd0d2"/><g fill="#607d8b"><path d="m18.5 20h-1.75c-.965 0-1.75-.785-1.75-1.75v-2.5c0-.965.785-1.75 1.75-1.75h1.75c.414 0 .75.336.75.75s-.336.75-.75.75h-1.75c-.138 0-.25.112-.25.25v2.5c0 .138.112.25.25.25h1v-.5c-.414 0-.75-.336-.75-.75s.336-.75.75-.75h.75c.414 0 .75.336.75.75v2c0 .414-.336.75-.75.75z"/><path d="m13.25 20c-.414 0-.75-.336-.75-.75v-1.441c-.27.242-.73.242-1 0v1.441c0 .414-.336.75-.75.75s-.75-.336-.75-.75v-4.5c0-.348.239-.65.578-.729.337-.079.687.083.843.395l.579 1.157.579-1.158c.155-.312.507-.475.843-.395.339.08.578.382.578.73v4.5c0 .414-.336.75-.75.75z"/><path d="m7.25 20h-1.5c-.414 0-.75-.336-.75-.75v-4.5c0-.414.336-.75.75-.75h1.5c.965 0 1.75.785 1.75 1.75v2.5c0 .965-.785 1.75-1.75 1.75zm-.75-1.5h.75c.138 0 .25-.112.25-.25v-2.5c0-.138-.112-.25-.25-.25h-.75z"/></g><path d="m19.17 16.912h-2.09c-.051.102-.08.216-.08.338 0 .414.336.75.75.75v.5h-1c-.138 0-.25-.112-.25-.25v-1.338h-1.5v1.338c0 .965.785 1.75 1.75 1.75h1.75c.414 0 .75-.336.75-.75v-2c0-.122-.029-.236-.08-.338z" fill="#546d79"/><path d="m14 16.912h-4v2.338c0 .414.336.75.75.75s.75-.336.75-.75v-1.441c.135.121.317.182.5.182s.365-.061.5-.182v1.441c0 .414.336.75.75.75s.75-.336.75-.75z" fill="#546d79"/><path d="m7.5 16.912h-1v1.588h.75c.138 0 .25-.112.25-.25z" fill="#dedede"/><path d="m9 16.912h-1.5v1.338c0 .138-.112.25-.25.25h-.75v-1.588h-1.5v2.338c0 .414.336.75.75.75h1.5c.965 0 1.75-.785 1.75-1.75z" fill="#546d79"/></svg>