<svg id="color" enable-background="new 0 0 24 24" height="512" viewBox="0 0 24 24" width="512" xmlns="http://www.w3.org/2000/svg"><path d="m19.25 24h-14.5c-1.517 0-2.75-1.233-2.75-2.75v-18.5c0-1.517 1.233-2.75 2.75-2.75h14.5c1.517 0 2.75 1.233 2.75 2.75v18.5c0 1.517-1.233 2.75-2.75 2.75z" fill="#eceff1"/><path d="m12 0h-7.25c-1.517 0-2.75 1.233-2.75 2.75v18.5c0 1.517 1.233 2.75 2.75 2.75h7.25z" fill="#cdd0d2"/><g fill="#607d8b"><path d="m13.25 20c-.263 0-.519-.139-.656-.386l-2.5-4.5c-.201-.362-.071-.818.292-1.02.361-.203.818-.072 1.02.291l2.5 4.5c.201.362.071.818-.292 1.02-.115.065-.24.095-.364.095z"/><path d="m10.749 20c-.124 0-.249-.03-.364-.095-.362-.201-.493-.657-.292-1.02l2.5-4.5c.201-.363.659-.494 1.02-.291.362.201.493.657.292 1.02l-2.5 4.5c-.136.247-.392.386-.656.386z"/><path d="m8.25 17.75h-2.09c-.414 0-.75-.336-.75-.75s.336-.75.75-.75h2.09c.414 0 .75.336.75.75s-.336.75-.75.75z"/><path d="m8.25 20h-1.5c-.965 0-1.75-.785-1.75-1.75v-2.5c0-.965.785-1.75 1.75-1.75h1.5c.414 0 .75.336.75.75s-.336.75-.75.75h-1.5c-.138 0-.25.112-.25.25v2.5c0 .138.112.25.25.25h1.5c.414 0 .75.336.75.75s-.336.75-.75.75z"/><path d="m18.25 17.75h-2.066c-.414 0-.75-.336-.75-.75s.336-.75.75-.75h2.066c.414 0 .75.336.75.75s-.336.75-.75.75z"/><path d="m18.25 20h-1.5c-.965 0-1.75-.785-1.75-1.75v-2.5c0-.965.785-1.75 1.75-1.75h1.5c.414 0 .75.336.75.75s-.336.75-.75.75h-1.5c-.138 0-.25.112-.25.25v2.5c0 .138.112.25.25.25h1.5c.414 0 .75.336.75.75s-.336.75-.75.75z"/></g><path d="m12.858 17-.858 1.545.594 1.07c.137.246.393.385.656.385.124 0 .249-.03.364-.095.362-.201.493-.657.292-1.02zm-1.667-.088h-.098l.049.088z" fill="#546d79"/><path d="m12.907 16.912h-1.716l-.049.088-1.048 1.886c-.201.362-.071.818.292 1.02.115.064.24.094.363.094.263 0 .519-.139.656-.386l.595-1.069.858-1.545z" fill="#546d79"/><path d="m8.995 16.912h-2.495v.838h1.75c.414 0 .75-.336.75-.75 0-.03-.002-.059-.005-.088z" fill="#546d79"/><path d="m6.5 16.912h-1.5v1.338c0 .965.785 1.75 1.75 1.75h1.5c.414 0 .75-.336.75-.75s-.336-.75-.75-.75h-1.5c-.138 0-.25-.112-.25-.25v-.5z" fill="#546d79"/><path d="m18.995 16.912h-2.495v.838h1.75c.414 0 .75-.336.75-.75 0-.03-.002-.059-.005-.088z" fill="#546d79"/><path d="m16.5 16.912h-1.5v1.338c0 .965.785 1.75 1.75 1.75h1.5c.414 0 .75-.336.75-.75s-.336-.75-.75-.75h-1.5c-.138 0-.25-.112-.25-.25v-.5z" fill="#546d79"/></svg>