<svg id="color" enable-background="new 0 0 24 24" height="512" viewBox="0 0 24 24" width="512" xmlns="http://www.w3.org/2000/svg"><path d="m12.54 12.94c-.08.25-.15.51-.2.77-.11.61-.12 1.21-.04 1.8.07.47.19.93.37 1.36.11.29.25.57.41.84-1.29.23-2.34 1.12-2.81 2.29h-7.52c-1.52 0-2.75-1.23-2.75-2.75v-14.5c0-1.52 1.23-2.75 2.75-2.75h11.5c1.52 0 2.75 1.23 2.75 2.75v6.34h-.03c-1.71.3-3.19 1.42-4.02 2.92z" fill="#eceff1"/><g fill="#90a4ae"><path d="m12.54 12.94c-.09.04-.19.06-.29.06h-7.5c-.41 0-.75-.34-.75-.75s.34-.75.75-.75h7.5c.33 0 .61.21.7.51z"/><path d="m12.67 16.87c-.12.08-.27.13-.42.13h-7.5c-.41 0-.75-.34-.75-.75s.34-.75.75-.75h7.5l.05.01c.07.47.19.93.37 1.36z"/><path d="m12.25 9h-7.5c-.414 0-.75-.336-.75-.75s.336-.75.75-.75h7.5c.414 0 .75.336.75.75s-.336.75-.75.75z"/><path d="m12.25 5h-7.5c-.414 0-.75-.336-.75-.75s.336-.75.75-.75h7.5c.414 0 .75.336.75.75s-.336.75-.75.75z"/></g><path d="m8.335 0h-5.585c-1.52 0-2.75 1.23-2.75 2.75v14.5c0 1.52 1.23 2.75 2.75 2.75h5.585v-3h-3.585c-.41 0-.75-.34-.75-.75s.34-.75.75-.75h3.585v-2.5h-3.585c-.41 0-.75-.34-.75-.75s.34-.75.75-.75h3.585v-2.5h-3.585c-.414 0-.75-.336-.75-.75s.336-.75.75-.75h3.585v-2.5h-3.585c-.414 0-.75-.336-.75-.75s.336-.75.75-.75h3.585z" fill="#cdd0d2"/><path d="m8.335 11.5h-3.585c-.41 0-.75.34-.75.75s.34.75.75.75h3.585z" fill="#7d8f97"/><path d="m8.335 15.5h-3.585c-.41 0-.75.34-.75.75s.34.75.75.75h3.585z" fill="#7d8f97"/><path d="m8.335 7.5h-3.585c-.414 0-.75.336-.75.75s.336.75.75.75h3.585z" fill="#7d8f97"/><path d="m8.335 3.5h-3.585c-.414 0-.75.336-.75.75s.336.75.75.75h3.585z" fill="#7d8f97"/><path d="m19.5 20.5h-3c-.414 0-.75-.336-.75-.75v-1.456c0-.407-.242-.742-.445-.951-.848-.875-1.21-2.069-.993-3.278.27-1.503 1.508-2.738 3.01-3.004 1.108-.2 2.235.101 3.087.816.853.715 1.341 1.762 1.341 2.874 0 1.002-.395 1.943-1.112 2.65-.177.175-.388.457-.388.808v1.542c0 .413-.336.749-.75.749z" fill="#ffc107"/><path d="m23.25 24h-10.5c-.414 0-.75-.336-.75-.75v-1.867c0-.881.659-1.627 1.533-1.736l3.124-.391 2.593-.006 3.217.396c.874.109 1.533.856 1.533 1.737v1.867c0 .414-.336.75-.75.75z" fill="#2196f3"/><path d="m17.997 11c-.224 0-.45.02-.675.061-1.502.266-2.74 1.501-3.01 3.004-.217 1.209.145 2.404.993 3.278.203.209.445.544.445.951v1.075l.907-.113 1.343-.003v-8.253c-.001 0-.002 0-.003 0z" fill="#dea806"/><path d="m18 19.253-1.343.003-.907.113-2.217.277c-.874.109-1.533.856-1.533 1.737v1.867c0 .414.336.75.75.75h5.25z" fill="#1d83d4"/></svg>