<svg id="color" enable-background="new 0 0 24 24" height="512" viewBox="0 0 24 24" width="512" xmlns="http://www.w3.org/2000/svg"><path d="m16.75 13c-2.07 0-3.75-1.68-3.75-3.75v-3.5c0-1.43.82-2.67 2-3.3.01-.91.29-1.75.77-2.45h-13.02c-1.52 0-2.75 1.23-2.75 2.75v18.5c0 1.52 1.23 2.75 2.75 2.75h14.5c1.52 0 2.75-1.23 2.75-2.75v-8.25z" fill="#eceff1"/><path d="m10 0h-7.25c-1.52 0-2.75 1.23-2.75 2.75v18.5c0 1.52 1.23 2.75 2.75 2.75h7.25z" fill="#cdd0d2"/><path d="m21.25 5.5h-3.5c-.414 0-.75-.336-.75-.75v-2.25c0-1.379 1.121-2.5 2.5-2.5s2.5 1.121 2.5 2.5v2.25c0 .414-.336.75-.75.75zm-2.75-1.5h2v-1.5c0-.551-.448-1-1-1s-1 .449-1 1z" fill="#546e7a"/><path d="m22.25 11h-5.5c-.965 0-1.75-.785-1.75-1.75v-3.5c0-.965.785-1.75 1.75-1.75h5.5c.965 0 1.75.785 1.75 1.75v3.5c0 .965-.785 1.75-1.75 1.75z" fill="#ffc107"/><path d="m19.5 0c-1.379 0-2.5 1.121-2.5 2.5v1.5h1.5v-1.5c0-.551.448-1 1-1z" fill="#49606a"/><path d="m19.5 4h-1-1.5-.25c-.965 0-1.75.785-1.75 1.75v3.5c0 .965.785 1.75 1.75 1.75h2.75z" fill="#dea806"/><g fill="#607d8b"><path d="m16.25 22h-1.5c-.965 0-1.75-.785-1.75-1.75v-2.5c0-.965.785-1.75 1.75-1.75h1.5c.414 0 .75.336.75.75s-.336.75-.75.75h-1.5c-.138 0-.25.112-.25.25v2.5c0 .138.112.25.25.25h1.5c.414 0 .75.336.75.75s-.336.75-.75.75z"/><path d="m10.25 16h-.5c-.96 0-1.75.79-1.75 1.75v2.5c0 .96.79 1.75 1.75 1.75h.5c.96 0 1.75-.79 1.75-1.75v-2.5c0-.96-.79-1.75-1.75-1.75zm.25 4.25c0 .14-.11.25-.25.25h-.5c-.14 0-.25-.11-.25-.25v-2.5c0-.14.11-.25.25-.25h.5c.14 0 .25.11.25.25z"/><path d="m5.25 16h-1.5c-.41 0-.75.34-.75.75v4.5c0 .41.34.75.75.75h1.5c.96 0 1.75-.79 1.75-1.75v-2.5c0-.96-.79-1.75-1.75-1.75zm.25 4.25c0 .14-.11.25-.25.25h-.75v-3h.75c.14 0 .25.11.25.25z"/></g><path d="m14.5 19h-1.5v1.25c0 .965.785 1.75 1.75 1.75h1.5c.414 0 .75-.336.75-.75s-.336-.75-.75-.75h-1.5c-.138 0-.25-.112-.25-.25z" fill="#546d79"/><path d="m12 19h-1.5v1.25c0 .14-.11.25-.25.25h-.5c-.14 0-.25-.11-.25-.25v-1.25h-1.5v1.25c0 .96.79 1.75 1.75 1.75h.5c.96 0 1.75-.79 1.75-1.75z" fill="#546d79"/><path d="m7 19h-1.5v1.25c0 .14-.11.25-.25.25h-.75v-1.5h-1.5v2.25c0 .41.34.75.75.75h1.5c.96 0 1.75-.79 1.75-1.75z" fill="#546d79"/></svg>