<svg id="color" enable-background="new 0 0 24 24" height="512" viewBox="0 0 24 24" width="512" xmlns="http://www.w3.org/2000/svg"><path d="m14 11c-2.76 0-5-2.24-5-5 0-1.98 1.17-3.74 2.91-4.54.28-.54.62-1.03 1.03-1.46h-10.19c-1.52 0-2.75 1.23-2.75 2.75v18.5c0 1.52 1.23 2.75 2.75 2.75h14.5c1.52 0 2.75-1.23 2.75-2.75v-10.25z" fill="#eceff1"/><path d="m10 0h-7.25c-1.52 0-2.75 1.23-2.75 2.75v18.5c0 1.52 1.23 2.75 2.75 2.75h7.25v-15.001c-.628-.836-1-1.874-1-2.999 0-1.112.369-2.154 1-2.996z" fill="#cdd0d2"/><path d="m20.5 9h-6.5c-1.654 0-3-1.346-3-3 0-1.457 1.044-2.676 2.424-2.945.52-1.778 2.178-3.055 4.076-3.055 1.499 0 2.885.797 3.643 2.062 1.633.299 2.857 1.733 2.857 3.438 0 1.93-1.57 3.5-3.5 3.5z" fill="#03a9f4"/><path d="m17.5 0c-1.898 0-3.556 1.277-4.076 3.055-1.38.269-2.424 1.488-2.424 2.945 0 1.654 1.346 3 3 3h3.5z" fill="#0393d4"/><g fill="#607d8b"><path d="m11.25 19.75h-2.25c-.414 0-.75-.336-.75-.75s.336-.75.75-.75h2.25c.414 0 .75.336.75.75s-.336.75-.75.75z"/><path d="m11.25 22h-1.5c-.965 0-1.75-.785-1.75-1.75v-2.5c0-.965.785-1.75 1.75-1.75h1.5c.414 0 .75.336.75.75s-.336.75-.75.75h-1.5c-.138 0-.25.112-.25.25v2.5c0 .138.112.25.25.25h1.5c.414 0 .75.336.75.75s-.336.75-.75.75z"/><path d="m3.75 22c-.414 0-.75-.336-.75-.75v-4.5c0-.414.336-.75.75-.75s.75.336.75.75v4.5c0 .414-.336.75-.75.75z"/><path d="m6 22c-.207 0-.413-.085-.561-.252l-2-2.25c-.252-.284-.252-.712 0-.996l2-2.25c.275-.31.75-.337 1.059-.062.31.275.338.749.062 1.059l-1.557 1.751 1.557 1.752c.275.31.247.783-.062 1.059-.143.127-.321.189-.498.189z"/><path d="m15 19.75c-.272 0-.523-.147-.656-.386l-1.25-2.25c-.201-.362-.071-.819.292-1.02.359-.202.817-.071 1.02.292l.594 1.07.594-1.07c.201-.362.659-.493 1.02-.292.362.201.493.658.292 1.02l-1.25 2.25c-.133.239-.384.386-.656.386z"/><path d="m15 22c-.414 0-.75-.336-.75-.75v-2.25c0-.414.336-.75.75-.75s.75.336.75.75v2.25c0 .414-.336.75-.75.75z"/></g><path d="m12 19h-2.5v.75h1.75c.414 0 .75-.336.75-.75z" fill="#546d79"/><path d="m9.5 19h-1.5v1.25c0 .965.785 1.75 1.75 1.75h1.5c.414 0 .75-.336.75-.75s-.336-.75-.75-.75h-1.5c-.138 0-.25-.112-.25-.25v-.5z" fill="#546d79"/><path d="m3.25 19h-.25v2.25c0 .414.336.75.75.75s.75-.336.75-.75v-.559l-1.06-1.193c-.127-.142-.19-.32-.19-.498z" fill="#546d79"/><path d="m5.003 19h-1.753c0 .178.063.356.189.498l1.06 1.193.94 1.057c.148.167.354.252.562.252.177 0 .355-.062.497-.189.31-.275.338-.749.063-1.059z" fill="#546d79"/><path d="m14.25 19h-.108l.108.195zm1.608 0h-.108v.195z" fill="#546d79"/><path d="m15.75 19h-1.5v.195 2.055c0 .414.336.75.75.75s.75-.336.75-.75v-2.055z" fill="#546d79"/></svg>