<svg id="color" enable-background="new 0 0 24 24" height="512" viewBox="0 0 24 24" width="512" xmlns="http://www.w3.org/2000/svg"><path d="m16.75 10.5c-2.895 0-5.25-2.355-5.25-5.25s2.355-5.25 5.25-5.25 5.25 2.355 5.25 5.25-2.355 5.25-5.25 5.25zm0-8.5c-1.792 0-3.25 1.458-3.25 3.25s1.458 3.25 3.25 3.25 3.25-1.458 3.25-3.25-1.458-3.25-3.25-3.25z" fill="#546e7a"/><path d="m23 12.5c-.256 0-.512-.098-.707-.293l-3.25-3.25c-.391-.391-.391-1.023 0-1.414s1.023-.391 1.414 0l3.25 3.25c.391.391.391 1.023 0 1.414-.195.195-.451.293-.707.293z" fill="#546e7a"/><path d="m13.024 1.555c-.942.949-1.524 2.255-1.524 3.695 0 2.895 2.355 5.25 5.25 5.25 1.087 0 2.098-.332 2.936-.9l-.643-.643c-.368-.368-.389-.952-.063-1.345-.583.55-1.368.888-2.23.888-1.792 0-3.25-1.458-3.25-3.25 0-.888.358-1.694.938-2.282z" fill="#49606a"/><path d="m19.028 7.558c-.017.018-.033.036-.048.054-.326.393-.305.976.063 1.345l.643.643 2.607 2.607c.195.195.451.293.707.293.249 0 .498-.093.692-.278z" fill="#49606a"/><path d="m19.29 12.03c-.79.3-1.65.47-2.54.47-4 0-7.25-3.25-7.25-7.25 0-2.06.86-3.93 2.25-5.25h-9c-1.52 0-2.75 1.23-2.75 2.75v18.5c0 1.52 1.23 2.75 2.75 2.75h14.5c1.52 0 2.75-1.23 2.75-2.75v-8.51z" fill="#eceff1"/><path d="m10 0h-7.25c-1.52 0-2.75 1.23-2.75 2.75v18.5c0 1.52 1.23 2.75 2.75 2.75h7.25v-16.102c-.323-.821-.5-1.714-.5-2.648s.177-1.83.5-2.652z" fill="#cdd0d2"/><g fill="#607d8b"><path d="m11.25 19.75h-2.25c-.414 0-.75-.336-.75-.75s.336-.75.75-.75h2.25c.414 0 .75.336.75.75s-.336.75-.75.75z"/><path d="m11.25 22h-1.5c-.965 0-1.75-.785-1.75-1.75v-2.5c0-.965.785-1.75 1.75-1.75h1.5c.414 0 .75.336.75.75s-.336.75-.75.75h-1.5c-.138 0-.25.112-.25.25v2.5c0 .138.112.25.25.25h1.5c.414 0 .75.336.75.75s-.336.75-.75.75z"/><path d="m3.75 22c-.414 0-.75-.336-.75-.75v-4.5c0-.414.336-.75.75-.75s.75.336.75.75v4.5c0 .414-.336.75-.75.75z"/><path d="m6 22c-.207 0-.413-.085-.561-.252l-2-2.25c-.252-.284-.252-.712 0-.996l2-2.25c.275-.31.75-.337 1.059-.062.31.275.338.749.062 1.059l-1.557 1.751 1.557 1.752c.275.31.247.783-.062 1.059-.143.127-.321.189-.498.189z"/><path d="m15 19.75c-.272 0-.523-.147-.656-.386l-1.25-2.25c-.201-.362-.071-.819.292-1.02.359-.202.817-.071 1.02.292l.594 1.07.594-1.07c.201-.362.659-.493 1.02-.292.362.201.493.658.292 1.02l-1.25 2.25c-.133.239-.384.386-.656.386z"/><path d="m15 22c-.414 0-.75-.336-.75-.75v-2.25c0-.414.336-.75.75-.75s.75.336.75.75v2.25c0 .414-.336.75-.75.75z"/></g><path d="m12 19h-2.5v.75h1.75c.414 0 .75-.336.75-.75z" fill="#546d79"/><path d="m9.5 19h-1.5v1.25c0 .965.785 1.75 1.75 1.75h1.5c.414 0 .75-.336.75-.75s-.336-.75-.75-.75h-1.5c-.138 0-.25-.112-.25-.25v-.5z" fill="#546d79"/><path d="m3.25 19h-.25v2.25c0 .414.336.75.75.75s.75-.336.75-.75v-.559l-1.06-1.193c-.127-.142-.19-.32-.19-.498z" fill="#546d79"/><path d="m5.003 19h-1.753c0 .178.063.356.189.498l1.06 1.193.94 1.057c.148.167.354.252.562.252.177 0 .355-.062.497-.189.31-.275.338-.749.063-1.059z" fill="#546d79"/><path d="m14.25 19h-.108l.108.195zm1.608 0h-.108v.195z" fill="#546d79"/><path d="m15.75 19h-1.5v.195 2.055c0 .414.336.75.75.75s.75-.336.75-.75v-2.055z" fill="#546d79"/></svg>