<svg id="color" enable-background="new 0 0 24 24" height="512" viewBox="0 0 24 24" width="512" xmlns="http://www.w3.org/2000/svg"><path d="m14 11c-2.76 0-5-2.24-5-5 0-1.98 1.17-3.74 2.91-4.54.28-.54.62-1.03 1.03-1.46h-10.19c-1.52 0-2.75 1.23-2.75 2.75v18.5c0 1.52 1.23 2.75 2.75 2.75h14.5c1.52 0 2.75-1.23 2.75-2.75v-10.25z" fill="#eceff1"/><path d="m10 0h-7.25c-1.52 0-2.75 1.23-2.75 2.75v18.5c0 1.52 1.23 2.75 2.75 2.75h7.25v-15.001c-.628-.836-1-1.874-1-2.999 0-1.112.369-2.154 1-2.996z" fill="#cdd0d2"/><path d="m20.5 9h-6.5c-1.654 0-3-1.346-3-3 0-1.457 1.044-2.676 2.424-2.945.52-1.778 2.178-3.055 4.076-3.055 1.499 0 2.885.797 3.643 2.062 1.633.299 2.857 1.733 2.857 3.438 0 1.93-1.57 3.5-3.5 3.5z" fill="#03a9f4"/><path d="m17.5 0c-1.898 0-3.556 1.277-4.076 3.055-1.38.269-2.424 1.488-2.424 2.945 0 1.654 1.346 3 3 3h3.5z" fill="#0393d4"/><g fill="#607d8b"><path d="m5 16h-1.25c-.41 0-.75.34-.75.75v4.5c0 .41.34.75.75.75s.75-.34.75-.75v-1.25h.5c1.1 0 2-.9 2-2s-.9-2-2-2zm0 2.5h-.5v-1h.5c.28 0 .5.22.5.5s-.22.5-.5.5z"/><path d="m10.25 16h-1.5c-.41 0-.75.34-.75.75v4.5c0 .41.34.75.75.75h1.5c.96 0 1.75-.79 1.75-1.75v-2.5c0-.96-.79-1.75-1.75-1.75zm.25 4.25c0 .14-.11.25-.25.25h-.75v-3h.75c.14 0 .25.11.25.25z"/><path d="m13.75 22c-.414 0-.75-.336-.75-.75v-3.5c0-.965.785-1.75 1.75-1.75h1.5c.414 0 .75.336.75.75s-.336.75-.75.75h-1.5c-.138 0-.25.112-.25.25v3.5c0 .414-.336.75-.75.75z"/><path d="m16.25 20h-2.25c-.414 0-.75-.336-.75-.75s.336-.75.75-.75h2.25c.414 0 .75.336.75.75s-.336.75-.75.75z"/></g><path d="m6.73 19h-3.73v2.25c0 .41.34.75.75.75s.75-.34.75-.75v-1.25h.5c.736 0 1.383-.403 1.73-1z" fill="#546d79"/><path d="m12 19h-1.5v1.25c0 .14-.11.25-.25.25h-.75v-1.5h-1.5v2.25c0 .41.34.75.75.75h1.5c.96 0 1.75-.79 1.75-1.75z" fill="#546d79"/><path d="m13.293 19h-.293v2.25c0 .414.336.75.75.75s.75-.336.75-.75v-1.25h-.5c-.414 0-.75-.336-.75-.75 0-.088.015-.172.043-.25z" fill="#546d79"/><path d="m16.957 19h-3.665c-.028.078-.043.162-.043.25 0 .414.336.75.75.75h.5 1.75c.414 0 .75-.336.75-.75.001-.088-.014-.172-.042-.25z" fill="#546d79"/></svg>