<svg id="color" enable-background="new 0 0 24 24" height="512" viewBox="0 0 24 24" width="512" xmlns="http://www.w3.org/2000/svg"><path d="m17.25 15.5c-4.82 0-8.75-3.93-8.75-8.75 0-2.71 1.24-5.14 3.19-6.75h-8.94c-1.52 0-2.75 1.23-2.75 2.75v18.5c0 1.52 1.23 2.75 2.75 2.75h14.5c1.52 0 2.75-1.23 2.75-2.75v-6.19c-.86.28-1.79.44-2.75.44z" fill="#eceff1"/><path d="m10 0h-7.25c-1.52 0-2.75 1.23-2.75 2.75v18.5c0 1.52 1.23 2.75 2.75 2.75h7.25v-12.36c-.946-1.398-1.5-3.081-1.5-4.89s.553-3.493 1.5-4.892z" fill="#cdd0d2"/><path d="m17.25 13.5c-3.722 0-6.75-3.028-6.75-6.75s3.028-6.75 6.75-6.75 6.75 3.028 6.75 6.75-3.028 6.75-6.75 6.75z" fill="#2196f3"/><path d="m17.25 10.5c-.552 0-1-.448-1-1v-5.5c0-.552.448-1 1-1s1 .448 1 1v5.5c0 .552-.448 1-1 1z" fill="#fff"/><path d="m20 7.75h-5.5c-.552 0-1-.448-1-1s.448-1 1-1h5.5c.552 0 1 .448 1 1s-.448 1-1 1z" fill="#fff"/><path d="m17.25 0c-3.722 0-6.75 3.028-6.75 6.75s3.028 6.75 6.75 6.75v-3c-.552 0-1-.448-1-1v-1.75h-1.75c-.552 0-1-.448-1-1s.448-1 1-1h1.75v-1.75c0-.552.448-1 1-1z" fill="#1d83d4"/><path d="m17.25 7.75h-1v1.75c0 .552.448 1 1 1zm0-4.75c-.552 0-1 .448-1 1v1.75h1z" fill="#dedede"/><path d="m17.25 5.75h-1-1.75c-.552 0-1 .448-1 1s.448 1 1 1h1.75 1z" fill="#dedede"/><g fill="#607d8b"><path d="m5 16h-1.25c-.41 0-.75.34-.75.75v4.5c0 .41.34.75.75.75s.75-.34.75-.75v-1.25h.5c1.1 0 2-.9 2-2s-.9-2-2-2zm0 2.5h-.5v-1h.5c.28 0 .5.22.5.5s-.22.5-.5.5z"/><path d="m10.25 16h-1.5c-.41 0-.75.34-.75.75v4.5c0 .41.34.75.75.75h1.5c.96 0 1.75-.79 1.75-1.75v-2.5c0-.96-.79-1.75-1.75-1.75zm.25 4.25c0 .14-.11.25-.25.25h-.75v-3h.75c.14 0 .25.11.25.25z"/><path d="m13.75 22c-.414 0-.75-.336-.75-.75v-3.5c0-.965.785-1.75 1.75-1.75h1.5c.414 0 .75.336.75.75s-.336.75-.75.75h-1.5c-.138 0-.25.112-.25.25v3.5c0 .414-.336.75-.75.75z"/><path d="m16.25 20h-2.25c-.414 0-.75-.336-.75-.75s.336-.75.75-.75h2.25c.414 0 .75.336.75.75s-.336.75-.75.75z"/></g><path d="m10.5 19h-1v1.5h.75c.14 0 .25-.11.25-.25z" fill="#dedede"/><path d="m6.73 19h-3.73v2.25c0 .41.34.75.75.75s.75-.34.75-.75v-1.25h.5c.736 0 1.383-.403 1.73-1z" fill="#546d79"/><path d="m12 19h-1.5v1.25c0 .14-.11.25-.25.25h-.75v-1.5h-1.5v2.25c0 .41.34.75.75.75h1.5c.96 0 1.75-.79 1.75-1.75z" fill="#546d79"/><path d="m13.293 19h-.293v2.25c0 .414.336.75.75.75s.75-.336.75-.75v-1.25h-.5c-.414 0-.75-.336-.75-.75 0-.088.015-.172.043-.25z" fill="#546d79"/><path d="m16.957 19h-3.665c-.028.078-.043.162-.043.25 0 .414.336.75.75.75h.5 1.75c.414 0 .75-.336.75-.75.001-.088-.014-.172-.042-.25z" fill="#546d79"/></svg>