<svg id="color" enable-background="new 0 0 24 24" height="512" viewBox="0 0 24 24" width="512" xmlns="http://www.w3.org/2000/svg"><path d="m17.25 15.5c-4.82 0-8.75-3.93-8.75-8.75 0-2.71 1.24-5.14 3.19-6.75h-8.94c-1.52 0-2.75 1.23-2.75 2.75v18.5c0 1.52 1.23 2.75 2.75 2.75h14.5c1.52 0 2.75-1.23 2.75-2.75v-6.19c-.86.28-1.79.44-2.75.44z" fill="#eceff1"/><path d="m10 0h-7.25c-1.52 0-2.75 1.23-2.75 2.75v18.5c0 1.52 1.23 2.75 2.75 2.75h7.25v-12.36c-.946-1.398-1.5-3.081-1.5-4.89s.553-3.493 1.5-4.892z" fill="#cdd0d2"/><g fill="#607d8b"><path d="m11.25 22c-.414 0-.75-.336-.75-.75v-3.25c0-.276-.225-.5-.5-.5s-.5.224-.5.5v3.25c0 .414-.336.75-.75.75s-.75-.336-.75-.75v-3.25c0-1.103.897-2 2-2s2 .897 2 2v3.25c0 .414-.336.75-.75.75z"/><path d="m10.781 20h-1.562c-.414 0-.75-.336-.75-.75s.336-.75.75-.75h1.562c.414 0 .75.336.75.75s-.336.75-.75.75z"/><path d="m5.25 16h-1.5c-.41 0-.75.34-.75.75v4.5c0 .41.34.75.75.75s.75-.34.75-.75v-1.25h.75c.3 0 .58-.08.83-.22.55-.29.92-.87.92-1.53v-.5c0-.96-.79-1.75-1.75-1.75zm-.75 1.5h.75c.14 0 .25.11.25.25v.5c0 .14-.11.25-.25.25h-.75z"/><path d="m6.251 22c-.229 0-.454-.104-.601-.3l-1.25-1.666c-.249-.332-.182-.802.149-1.05.333-.249.804-.181 1.05.15l1.251 1.666c.249.332.182.802-.149 1.05-.136.101-.294.15-.45.15z"/><path d="m15.25 16h-1.5c-.41 0-.75.34-.75.75v4.5c0 .41.34.75.75.75s.75-.34.75-.75v-1.25h.75c.3 0 .58-.08.83-.22.55-.29.92-.87.92-1.53v-.5c0-.96-.79-1.75-1.75-1.75zm-.75 1.5h.75c.14 0 .25.11.25.25v.5c0 .14-.11.25-.25.25h-.75z"/><path d="m16.251 22c-.229 0-.454-.104-.601-.3l-1.25-1.667c-.249-.332-.182-.802.149-1.05.332-.249.804-.181 1.05.15l1.25 1.667c.249.332.182.802-.149 1.05-.135.101-.293.15-.449.15z"/></g><path d="m13.18 11.82c-.256 0-.512-.098-.707-.293-.391-.391-.391-1.023 0-1.414l8.141-8.14c.391-.391 1.023-.391 1.414 0s.391 1.023 0 1.414l-8.141 8.14c-.196.195-.451.293-.707.293z" fill="#f44336"/><path d="m17.25 13.5c-3.722 0-6.75-3.028-6.75-6.75s3.028-6.75 6.75-6.75 6.75 3.028 6.75 6.75-3.028 6.75-6.75 6.75zm0-11.5c-2.619 0-4.75 2.131-4.75 4.75s2.131 4.75 4.75 4.75 4.75-2.131 4.75-4.75-2.131-4.75-4.75-4.75z" fill="#f44336"/><path d="m12.377 11.416c.029.039.061.076.096.111s.072.067.111.096c-.071-.068-.14-.137-.207-.207zm4.873-6.08-3.99 3.989c.366.565.849 1.048 1.414 1.414l2.576-2.575z" fill="#d43a2f"/><path d="m17.25 0c-3.722 0-6.75 3.028-6.75 6.75 0 1.809.715 3.453 1.877 4.666.067.07.136.139.206.206 1.213 1.162 2.858 1.877 4.667 1.877v-2c-.949 0-1.833-.28-2.576-.761-.565-.366-1.048-.849-1.414-1.414-.481-.741-.76-1.626-.76-2.574 0-2.619 2.131-4.75 4.75-4.75z" fill="#d43a2f"/><path d="m8.511 19h-.511v2.25c0 .414.336.75.75.75s.75-.336.75-.75v-1.25h-.281c-.414 0-.75-.336-.75-.75 0-.088.015-.172.042-.25zm3.489 0h-.512c.028.078.043.162.043.25 0 .414-.336.75-.75.75h-.281v1.25c0 .414.336.75.75.75s.75-.336.75-.75z" fill="#546d79"/><path d="m11.489 19h-2.978c-.028.078-.043.162-.043.25 0 .414.336.75.75.75h.282 1 .281c.414 0 .75-.336.75-.75 0-.088-.015-.172-.042-.25z" fill="#546d79"/><path d="m4.529 19h-1.529v2.25c0 .41.34.75.75.75s.75-.34.75-.75v-1.083l-.1-.133c-.243-.325-.184-.782.129-1.034zm2.301 0h-1.358c.047.038.09.083.128.133l.484.645c.325-.172.587-.446.746-.778z" fill="#546d79"/><path d="m5.472 19h-.943c-.313.252-.372.709-.128 1.034l.1.133 1.149 1.533c.147.196.372.3.601.3.156 0 .314-.049.449-.15.331-.249.398-.719.149-1.05l-.766-1.021-.483-.646c-.038-.05-.081-.095-.128-.133z" fill="#546d79"/><path d="m14.529 19h-1.529v2.25c0 .41.34.75.75.75s.75-.34.75-.75v-1.083l-.1-.133c-.243-.325-.184-.782.129-1.034zm2.301 0h-1.358c.047.038.09.083.128.133l.484.645c.325-.172.587-.446.746-.778z" fill="#546d79"/><path d="m15.472 19h-.943c-.313.252-.372.709-.128 1.034l.1.133 1.15 1.534c.146.196.372.3.601.3.156 0 .314-.049.449-.15.331-.249.398-.719.149-1.05l-.766-1.021-.484-.647c-.038-.05-.081-.095-.128-.133z" fill="#546d79"/></svg>