<svg id="color" enable-background="new 0 0 24 24" height="512" viewBox="0 0 24 24" width="512" xmlns="http://www.w3.org/2000/svg"><path d="m16.75 13c-2.07 0-3.75-1.68-3.75-3.75v-3.5c0-1.43.82-2.67 2-3.3.01-.91.29-1.75.77-2.45h-13.02c-1.52 0-2.75 1.23-2.75 2.75v18.5c0 1.52 1.23 2.75 2.75 2.75h14.5c1.52 0 2.75-1.23 2.75-2.75v-8.25z" fill="#eceff1"/><path d="m10 0h-7.25c-1.52 0-2.75 1.23-2.75 2.75v18.5c0 1.52 1.23 2.75 2.75 2.75h7.25z" fill="#cdd0d2"/><path d="m21.25 5.5h-3.5c-.414 0-.75-.336-.75-.75v-2.25c0-1.379 1.121-2.5 2.5-2.5s2.5 1.121 2.5 2.5v2.25c0 .414-.336.75-.75.75zm-2.75-1.5h2v-1.5c0-.551-.448-1-1-1s-1 .449-1 1z" fill="#546e7a"/><path d="m22.25 11h-5.5c-.965 0-1.75-.785-1.75-1.75v-3.5c0-.965.785-1.75 1.75-1.75h5.5c.965 0 1.75.785 1.75 1.75v3.5c0 .965-.785 1.75-1.75 1.75z" fill="#ffc107"/><path d="m19.5 0c-1.379 0-2.5 1.121-2.5 2.5v1.5h1.5v-1.5c0-.551.448-1 1-1z" fill="#49606a"/><path d="m19.5 4h-1-1.5-.25c-.965 0-1.75.785-1.75 1.75v3.5c0 .965.785 1.75 1.75 1.75h2.75z" fill="#dea806"/><g fill="#607d8b"><path d="m11.25 22c-.414 0-.75-.336-.75-.75v-3.25c0-.276-.225-.5-.5-.5s-.5.224-.5.5v3.25c0 .414-.336.75-.75.75s-.75-.336-.75-.75v-3.25c0-1.103.897-2 2-2s2 .897 2 2v3.25c0 .414-.336.75-.75.75z"/><path d="m10.781 20h-1.562c-.414 0-.75-.336-.75-.75s.336-.75.75-.75h1.562c.414 0 .75.336.75.75s-.336.75-.75.75z"/><path d="m5.25 16h-1.5c-.41 0-.75.34-.75.75v4.5c0 .41.34.75.75.75s.75-.34.75-.75v-1.25h.75c.3 0 .58-.08.83-.22.55-.29.92-.87.92-1.53v-.5c0-.96-.79-1.75-1.75-1.75zm-.75 1.5h.75c.14 0 .25.11.25.25v.5c0 .14-.11.25-.25.25h-.75z"/><path d="m6.251 22c-.229 0-.454-.104-.601-.3l-1.25-1.666c-.249-.332-.182-.802.149-1.05.333-.249.804-.181 1.05.15l1.251 1.666c.249.332.182.802-.149 1.05-.136.101-.294.15-.45.15z"/><path d="m15.25 16h-1.5c-.41 0-.75.34-.75.75v4.5c0 .41.34.75.75.75s.75-.34.75-.75v-1.25h.75c.3 0 .58-.08.83-.22.55-.29.92-.87.92-1.53v-.5c0-.96-.79-1.75-1.75-1.75zm-.75 1.5h.75c.14 0 .25.11.25.25v.5c0 .14-.11.25-.25.25h-.75z"/><path d="m16.251 22c-.229 0-.454-.104-.601-.3l-1.25-1.667c-.249-.332-.182-.802.149-1.05.332-.249.804-.181 1.05.15l1.25 1.667c.249.332.182.802-.149 1.05-.135.101-.293.15-.449.15z"/></g><path d="m8.511 19h-.511v2.25c0 .414.336.75.75.75s.75-.336.75-.75v-1.25h-.281c-.414 0-.75-.336-.75-.75 0-.088.015-.172.042-.25zm3.489 0h-.512c.028.078.043.162.043.25 0 .414-.336.75-.75.75h-.281v1.25c0 .414.336.75.75.75s.75-.336.75-.75z" fill="#546d79"/><path d="m11.489 19h-2.978c-.028.078-.043.162-.043.25 0 .414.336.75.75.75h.282 1 .281c.414 0 .75-.336.75-.75 0-.088-.015-.172-.042-.25z" fill="#546d79"/><path d="m4.529 19h-1.529v2.25c0 .41.34.75.75.75s.75-.34.75-.75v-1.083l-.1-.133c-.243-.325-.184-.782.129-1.034zm2.301 0h-1.358c.047.038.09.083.128.133l.484.645c.325-.172.587-.446.746-.778z" fill="#546d79"/><path d="m5.472 19h-.943c-.313.252-.372.709-.128 1.034l.1.133 1.149 1.533c.147.196.372.3.601.3.156 0 .314-.049.449-.15.331-.249.398-.719.149-1.05l-.766-1.021-.483-.646c-.038-.05-.081-.095-.128-.133z" fill="#546d79"/><path d="m14.529 19h-1.529v2.25c0 .41.34.75.75.75s.75-.34.75-.75v-1.083l-.1-.133c-.243-.325-.184-.782.129-1.034zm2.301 0h-1.358c.047.038.09.083.128.133l.484.645c.325-.172.587-.446.746-.778z" fill="#546d79"/><path d="m15.472 19h-.943c-.313.252-.372.709-.128 1.034l.1.133 1.15 1.534c.146.196.372.3.601.3.156 0 .314-.049.449-.15.331-.249.398-.719.149-1.05l-.766-1.021-.484-.647c-.038-.05-.081-.095-.128-.133z" fill="#546d79"/></svg>