<svg id="color" enable-background="new 0 0 24 24" height="512" viewBox="0 0 24 24" width="512" xmlns="http://www.w3.org/2000/svg"><path d="m17.25 15.5c-4.82 0-8.75-3.93-8.75-8.75 0-2.71 1.24-5.14 3.19-6.75h-8.94c-1.52 0-2.75 1.23-2.75 2.75v18.5c0 1.52 1.23 2.75 2.75 2.75h14.5c1.52 0 2.75-1.23 2.75-2.75v-6.19c-.86.28-1.79.44-2.75.44z" fill="#eceff1"/><path d="m10 0h-7.25c-1.52 0-2.75 1.23-2.75 2.75v18.5c0 1.52 1.23 2.75 2.75 2.75h7.25v-12.36c-.946-1.398-1.5-3.081-1.5-4.89s.553-3.493 1.5-4.892z" fill="#cdd0d2"/><path d="m17.25 13.5c-3.722 0-6.75-3.028-6.75-6.75s3.028-6.75 6.75-6.75 6.75 3.028 6.75 6.75-3.028 6.75-6.75 6.75z" fill="#2196f3"/><path d="m17.25 10.5c-.552 0-1-.448-1-1v-5.5c0-.552.448-1 1-1s1 .448 1 1v5.5c0 .552-.448 1-1 1z" fill="#fff"/><path d="m20 7.75h-5.5c-.552 0-1-.448-1-1s.448-1 1-1h5.5c.552 0 1 .448 1 1s-.448 1-1 1z" fill="#fff"/><path d="m17.25 0c-3.722 0-6.75 3.028-6.75 6.75s3.028 6.75 6.75 6.75v-3c-.552 0-1-.448-1-1v-1.75h-1.75c-.552 0-1-.448-1-1s.448-1 1-1h1.75v-1.75c0-.552.448-1 1-1z" fill="#1d83d4"/><path d="m17.25 7.75h-1v1.75c0 .552.448 1 1 1zm0-4.75c-.552 0-1 .448-1 1v1.75h1z" fill="#dedede"/><path d="m17.25 5.75h-1-1.75c-.552 0-1 .448-1 1s.448 1 1 1h1.75 1z" fill="#dedede"/><g fill="#607d8b"><path d="m11.25 22c-.414 0-.75-.336-.75-.75v-3.25c0-.276-.225-.5-.5-.5s-.5.224-.5.5v3.25c0 .414-.336.75-.75.75s-.75-.336-.75-.75v-3.25c0-1.103.898-2 2-2s2 .897 2 2v3.25c0 .414-.336.75-.75.75z"/><path d="m10.781 20h-1.562c-.414 0-.75-.336-.75-.75s.336-.75.75-.75h1.563c.414 0 .75.336.75.75-.001.414-.337.75-.751.75z"/><path d="m5.25 16h-1.5c-.41 0-.75.34-.75.75v4.5c0 .41.34.75.75.75s.75-.34.75-.75v-1.25h.75c.3 0 .58-.08.83-.22.55-.29.92-.87.92-1.53v-.5c0-.96-.79-1.75-1.75-1.75zm-.75 1.5h.75c.14 0 .25.11.25.25v.5c0 .14-.11.25-.25.25h-.75z"/><path d="m6.251 22c-.229 0-.454-.103-.601-.3l-1.25-1.666c-.249-.331-.182-.802.149-1.05.333-.249.804-.181 1.05.15l1.251 1.666c.249.332.182.802-.149 1.05-.136.101-.294.15-.45.15z"/><path d="m15.25 16h-1.5c-.41 0-.75.34-.75.75v4.5c0 .41.34.75.75.75s.75-.34.75-.75v-1.25h.75c.3 0 .58-.08.83-.22.55-.29.92-.87.92-1.53v-.5c0-.96-.79-1.75-1.75-1.75zm-.75 1.5h.75c.14 0 .25.11.25.25v.5c0 .14-.11.25-.25.25h-.75z"/><path d="m16.251 22c-.229 0-.454-.103-.601-.3l-1.25-1.666c-.249-.331-.182-.802.149-1.05.332-.249.804-.181 1.05.15l1.25 1.666c.249.332.182.802-.149 1.05-.135.101-.293.15-.449.15z"/></g><path d="m8.511 19h-.511v2.25c0 .414.336.75.75.75s.75-.336.75-.75v-1.25h-.281c-.414 0-.75-.336-.75-.75 0-.088.015-.172.042-.25zm3.489 0h-.512c.028.078.043.162.043.25 0 .414-.336.75-.75.75h-.281v1.25c0 .414.336.75.75.75s.75-.336.75-.75z" fill="#546d79"/><path d="m11.489 19h-2.978c-.028.078-.043.162-.043.25 0 .414.336.75.75.75h.282 1 .281c.414 0 .75-.336.75-.75 0-.088-.015-.172-.042-.25z" fill="#546d79"/><path d="m4.529 19h-1.529v2.25c0 .41.34.75.75.75s.75-.34.75-.75v-1.083l-.1-.133c-.243-.325-.184-.782.129-1.034zm2.301 0h-1.358c.047.038.09.083.128.133l.484.645c.325-.172.587-.446.746-.778z" fill="#546d79"/><path d="m5.472 19h-.943c-.313.252-.372.709-.128 1.034l.1.133 1.149 1.533c.147.196.372.3.601.3.156 0 .314-.049.449-.15.331-.249.398-.719.149-1.05l-.766-1.021-.483-.646c-.038-.05-.081-.095-.128-.133z" fill="#546d79"/><path d="m14.529 19h-1.529v2.25c0 .41.34.75.75.75s.75-.34.75-.75v-1.083l-.1-.133c-.243-.325-.184-.782.129-1.034zm2.301 0h-1.358c.047.038.09.083.128.133l.484.645c.325-.172.587-.446.746-.778z" fill="#546d79"/><path d="m15.472 19h-.943c-.313.252-.372.709-.128 1.034l.1.133 1.15 1.534c.146.196.372.3.601.3.156 0 .314-.049.449-.15.331-.249.398-.719.149-1.05l-.766-1.021-.484-.647c-.038-.05-.081-.095-.128-.133z" fill="#546d79"/></svg>