<svg id="color" enable-background="new 0 0 24 24" height="512" viewBox="0 0 24 24" width="512" xmlns="http://www.w3.org/2000/svg"><path d="m16.75 10.5c-2.895 0-5.25-2.355-5.25-5.25s2.355-5.25 5.25-5.25 5.25 2.355 5.25 5.25-2.355 5.25-5.25 5.25zm0-8.5c-1.792 0-3.25 1.458-3.25 3.25s1.458 3.25 3.25 3.25 3.25-1.458 3.25-3.25-1.458-3.25-3.25-3.25z" fill="#546e7a"/><path d="m23 12.5c-.256 0-.512-.098-.707-.293l-3.25-3.25c-.391-.391-.391-1.023 0-1.414s1.023-.391 1.414 0l3.25 3.25c.391.391.391 1.023 0 1.414-.195.195-.451.293-.707.293z" fill="#546e7a"/><path d="m13.024 1.555c-.942.949-1.524 2.255-1.524 3.695 0 2.895 2.355 5.25 5.25 5.25 1.087 0 2.098-.332 2.936-.9l-.643-.643c-.368-.368-.389-.952-.063-1.345-.583.55-1.368.888-2.23.888-1.792 0-3.25-1.458-3.25-3.25 0-.888.358-1.694.938-2.282z" fill="#49606a"/><path d="m19.028 7.558c-.017.018-.033.036-.048.054-.326.393-.305.976.063 1.345l.643.643 2.607 2.607c.195.195.451.293.707.293.249 0 .498-.093.692-.278z" fill="#49606a"/><path d="m19.29 12.03c-.79.3-1.65.47-2.54.47-4 0-7.25-3.25-7.25-7.25 0-2.06.86-3.93 2.25-5.25h-9c-1.52 0-2.75 1.23-2.75 2.75v18.5c0 1.52 1.23 2.75 2.75 2.75h14.5c1.52 0 2.75-1.23 2.75-2.75v-8.51z" fill="#eceff1"/><path d="m10 0h-7.25c-1.52 0-2.75 1.23-2.75 2.75v18.5c0 1.52 1.23 2.75 2.75 2.75h7.25v-16.102c-.323-.821-.5-1.714-.5-2.648s.177-1.83.5-2.652z" fill="#cdd0d2"/><g fill="#607d8b"><path d="m11.25 22c-.414 0-.75-.336-.75-.75v-3.25c0-.276-.225-.5-.5-.5s-.5.224-.5.5v3.25c0 .414-.336.75-.75.75s-.75-.336-.75-.75v-3.25c0-1.103.897-2 2-2s2 .897 2 2v3.25c0 .414-.336.75-.75.75z"/><path d="m10.781 20h-1.562c-.414 0-.75-.336-.75-.75s.336-.75.75-.75h1.562c.414 0 .75.336.75.75s-.336.75-.75.75z"/><path d="m5.25 16h-1.5c-.41 0-.75.34-.75.75v4.5c0 .41.34.75.75.75s.75-.34.75-.75v-1.25h.75c.3 0 .58-.08.83-.22.55-.29.92-.87.92-1.53v-.5c0-.96-.79-1.75-1.75-1.75zm-.75 1.5h.75c.14 0 .25.11.25.25v.5c0 .14-.11.25-.25.25h-.75z"/><path d="m6.251 22c-.229 0-.454-.104-.601-.3l-1.25-1.666c-.249-.332-.182-.802.149-1.05.333-.249.804-.181 1.05.15l1.251 1.666c.249.332.182.802-.149 1.05-.136.101-.294.15-.45.15z"/><path d="m15.25 16h-1.5c-.41 0-.75.34-.75.75v4.5c0 .41.34.75.75.75s.75-.34.75-.75v-1.25h.75c.3 0 .58-.08.83-.22.55-.29.92-.87.92-1.53v-.5c0-.96-.79-1.75-1.75-1.75zm-.75 1.5h.75c.14 0 .25.11.25.25v.5c0 .14-.11.25-.25.25h-.75z"/><path d="m16.251 22c-.229 0-.454-.104-.601-.3l-1.25-1.667c-.249-.332-.182-.802.149-1.05.332-.249.804-.181 1.05.15l1.25 1.667c.249.332.182.802-.149 1.05-.135.101-.293.15-.449.15z"/></g><path d="m8.511 19h-.511v2.25c0 .414.336.75.75.75s.75-.336.75-.75v-1.25h-.281c-.414 0-.75-.336-.75-.75 0-.088.015-.172.042-.25zm3.489 0h-.512c.028.078.043.162.043.25 0 .414-.336.75-.75.75h-.281v1.25c0 .414.336.75.75.75s.75-.336.75-.75z" fill="#546d79"/><path d="m11.489 19h-2.978c-.028.078-.043.162-.043.25 0 .414.336.75.75.75h.282 1 .281c.414 0 .75-.336.75-.75 0-.088-.015-.172-.042-.25z" fill="#546d79"/><path d="m4.529 19h-1.529v2.25c0 .41.34.75.75.75s.75-.34.75-.75v-1.083l-.1-.133c-.243-.325-.184-.782.129-1.034zm2.301 0h-1.358c.047.038.09.083.128.133l.484.645c.325-.172.587-.446.746-.778z" fill="#546d79"/><path d="m5.472 19h-.943c-.313.252-.372.709-.128 1.034l.1.133 1.149 1.533c.147.196.372.3.601.3.156 0 .314-.049.449-.15.331-.249.398-.719.149-1.05l-.766-1.021-.483-.646c-.038-.05-.081-.095-.128-.133z" fill="#546d79"/><path d="m14.529 19h-1.529v2.25c0 .41.34.75.75.75s.75-.34.75-.75v-1.083l-.1-.133c-.243-.325-.184-.782.129-1.034zm2.301 0h-1.358c.047.038.09.083.128.133l.484.645c.325-.172.587-.446.746-.778z" fill="#546d79"/><path d="m15.472 19h-.943c-.313.252-.372.709-.128 1.034l.1.133 1.15 1.534c.146.196.372.3.601.3.156 0 .314-.049.449-.15.331-.249.398-.719.149-1.05l-.766-1.021-.484-.647c-.038-.05-.081-.095-.128-.133z" fill="#546d79"/></svg>