<svg id="color" enable-background="new 0 0 24 24" height="512" viewBox="0 0 24 24" width="512" xmlns="http://www.w3.org/2000/svg"><path d="m17.25 15.5c-4.82 0-8.75-3.93-8.75-8.75 0-2.71 1.24-5.14 3.19-6.75h-8.94c-1.52 0-2.75 1.23-2.75 2.75v18.5c0 1.52 1.23 2.75 2.75 2.75h14.5c1.52 0 2.75-1.23 2.75-2.75v-6.19c-.86.28-1.79.44-2.75.44z" fill="#eceff1"/><path d="m10 0h-7.25c-1.52 0-2.75 1.23-2.75 2.75v18.5c0 1.52 1.23 2.75 2.75 2.75h7.25v-12.36c-.946-1.398-1.5-3.081-1.5-4.89s.553-3.493 1.5-4.892z" fill="#cdd0d2"/><g fill="#607d8b"><path d="m5.25 16h-1.5c-.41 0-.75.34-.75.75v4.5c0 .41.34.75.75.75s.75-.34.75-.75v-1.25h.75c.3 0 .58-.08.83-.22.55-.29.92-.87.92-1.53v-.5c0-.96-.79-1.75-1.75-1.75zm-.75 1.5h.75c.14 0 .25.11.25.25v.5c0 .14-.11.25-.25.25h-.75z"/><path d="m6.251 22c-.229 0-.453-.104-.601-.3l-1.198-1.597c-.249-.332-.182-.802.149-1.05.332-.249.802-.181 1.05.15l1.199 1.597c.249.332.182.802-.149 1.05-.136.101-.294.15-.45.15z"/><path d="m10 22c-.414 0-.75-.336-.75-.75v-3.82c0-.414.336-.75.75-.75s.75.336.75.75v3.82c0 .414-.336.75-.75.75z"/><path d="m11.25 17.5h-2.5c-.414 0-.75-.336-.75-.75s.336-.75.75-.75h2.5c.414 0 .75.336.75.75s-.336.75-.75.75z"/><path d="m13.75 22c-.414 0-.75-.336-.75-.75v-3.5c0-.965.785-1.75 1.75-1.75h1.5c.414 0 .75.336.75.75s-.336.75-.75.75h-1.5c-.138 0-.25.112-.25.25v3.5c0 .414-.336.75-.75.75z"/><path d="m16.25 20h-2.16c-.414 0-.75-.336-.75-.75s.336-.75.75-.75h2.16c.414 0 .75.336.75.75s-.336.75-.75.75z"/></g><path d="m17.25 13.5c-3.722 0-6.75-3.028-6.75-6.75s3.028-6.75 6.75-6.75 6.75 3.028 6.75 6.75-3.028 6.75-6.75 6.75z" fill="#4caf50"/><path d="m16.25 9.75c-.265 0-.519-.105-.707-.293l-2-2c-.391-.391-.391-1.023 0-1.414s1.023-.391 1.414 0l1.244 1.244 2.796-3.196c.364-.414.995-.458 1.411-.094s.458.995.094 1.411l-3.5 4c-.182.209-.442.332-.719.341z" fill="#fff"/><path d="m17.25 0c-3.722 0-6.75 3.028-6.75 6.75s3.028 6.75 6.75 6.75v-4.374l-.248.283c-.182.208-.442.331-.719.34l-.033.001c-.265 0-.519-.105-.707-.293l-2-2c-.391-.391-.391-1.023 0-1.414.195-.195.451-.293.707-.293s.512.098.707.293l1.244 1.244 1.049-1.199z" fill="#429846"/><path d="m14.25 5.75c-.256 0-.512.098-.707.293-.391.391-.391 1.023 0 1.414l2 2c.188.188.442.293.707.293l.033-.001c.277-.009.537-.133.719-.341l.248-.283v-3.037l-1.049 1.199-1.244-1.244c-.195-.195-.451-.293-.707-.293z" fill="#dedede"/><path d="m4.682 19h-1.682v2.25c0 .41.34.75.75.75s.75-.34.75-.75v-1.083l-.048-.064c-.249-.331-.182-.802.149-1.05.027-.02.054-.037.081-.053zm2.148 0h-1.409c.087.049.166.117.23.203l.432.576c.325-.173.588-.447.747-.779z" fill="#546d79"/><path d="m5.421 19h-.739c-.028.016-.055.033-.081.053-.331.249-.398.719-.149 1.05l.048.064 1.15 1.533c.148.196.372.3.601.3.156 0 .314-.049.449-.15.331-.249.398-.719.149-1.05l-.766-1.021-.432-.576c-.064-.086-.143-.154-.23-.203z" fill="#546d79"/><path d="m10.75 19h-1.5v2.25c0 .414.336.75.75.75s.75-.336.75-.75z" fill="#546d79"/><path d="m13.383 19h-.383v2.25c0 .414.336.75.75.75s.75-.336.75-.75v-1.25h-.41c-.414 0-.75-.336-.75-.75 0-.088.015-.172.043-.25z" fill="#546d79"/><path d="m16.957 19h-3.575c-.028.078-.043.162-.043.25 0 .414.336.75.75.75h.41 1.75c.414 0 .75-.336.75-.75.001-.088-.014-.172-.042-.25z" fill="#546d79"/></svg>