<svg id="color" enable-background="new 0 0 24 24" height="512" viewBox="0 0 24 24" width="512" xmlns="http://www.w3.org/2000/svg"><path d="m14 11c-2.76 0-5-2.24-5-5 0-1.98 1.17-3.74 2.91-4.54.28-.54.62-1.03 1.03-1.46h-10.19c-1.52 0-2.75 1.23-2.75 2.75v18.5c0 1.52 1.23 2.75 2.75 2.75h14.5c1.52 0 2.75-1.23 2.75-2.75v-10.25z" fill="#eceff1"/><path d="m10 0h-7.25c-1.52 0-2.75 1.23-2.75 2.75v18.5c0 1.52 1.23 2.75 2.75 2.75h7.25v-15.001c-.628-.836-1-1.874-1-2.999 0-1.112.369-2.154 1-2.996z" fill="#cdd0d2"/><path d="m20.5 9h-6.5c-1.654 0-3-1.346-3-3 0-1.457 1.044-2.676 2.424-2.945.52-1.778 2.178-3.055 4.076-3.055 1.499 0 2.885.797 3.643 2.062 1.633.299 2.857 1.733 2.857 3.438 0 1.93-1.57 3.5-3.5 3.5z" fill="#03a9f4"/><path d="m17.5 0c-1.898 0-3.556 1.277-4.076 3.055-1.38.269-2.424 1.488-2.424 2.945 0 1.654 1.346 3 3 3h3.5z" fill="#0393d4"/><g fill="#607d8b"><path d="m5.25 16h-1.5c-.41 0-.75.34-.75.75v4.5c0 .41.34.75.75.75s.75-.34.75-.75v-1.25h.75c.3 0 .58-.08.83-.22.55-.29.92-.87.92-1.53v-.5c0-.96-.79-1.75-1.75-1.75zm-.75 1.5h.75c.14 0 .25.11.25.25v.5c0 .14-.11.25-.25.25h-.75z"/><path d="m6.251 22c-.229 0-.453-.104-.601-.3l-1.198-1.597c-.249-.332-.182-.802.149-1.05.332-.249.802-.181 1.05.15l1.199 1.597c.249.332.182.802-.149 1.05-.136.101-.294.15-.45.15z"/><path d="m10 22c-.414 0-.75-.336-.75-.75v-3.82c0-.414.336-.75.75-.75s.75.336.75.75v3.82c0 .414-.336.75-.75.75z"/><path d="m11.25 17.5h-2.5c-.414 0-.75-.336-.75-.75s.336-.75.75-.75h2.5c.414 0 .75.336.75.75s-.336.75-.75.75z"/><path d="m13.75 22c-.414 0-.75-.336-.75-.75v-3.5c0-.965.785-1.75 1.75-1.75h1.5c.414 0 .75.336.75.75s-.336.75-.75.75h-1.5c-.138 0-.25.112-.25.25v3.5c0 .414-.336.75-.75.75z"/><path d="m16.25 20h-2.16c-.414 0-.75-.336-.75-.75s.336-.75.75-.75h2.16c.414 0 .75.336.75.75s-.336.75-.75.75z"/></g><path d="m4.682 19h-1.682v2.25c0 .41.34.75.75.75s.75-.34.75-.75v-1.083l-.048-.064c-.249-.331-.182-.802.149-1.05.027-.02.054-.037.081-.053zm2.148 0h-1.409c.087.049.166.117.23.203l.432.576c.325-.173.588-.447.747-.779z" fill="#546d79"/><path d="m5.421 19h-.739c-.028.016-.055.033-.081.053-.331.249-.398.719-.149 1.05l.048.064 1.15 1.533c.148.196.372.3.601.3.156 0 .314-.049.449-.15.331-.249.398-.719.149-1.05l-.766-1.021-.432-.576c-.064-.086-.143-.154-.23-.203z" fill="#546d79"/><path d="m10.75 19h-1.5v2.25c0 .414.336.75.75.75s.75-.336.75-.75z" fill="#546d79"/><path d="m13.383 19h-.383v2.25c0 .414.336.75.75.75s.75-.336.75-.75v-1.25h-.41c-.414 0-.75-.336-.75-.75 0-.088.015-.172.043-.25z" fill="#546d79"/><path d="m16.957 19h-3.575c-.028.078-.043.162-.043.25 0 .414.336.75.75.75h.41 1.75c.414 0 .75-.336.75-.75.001-.088-.014-.172-.042-.25z" fill="#546d79"/></svg>