<svg id="color" enable-background="new 0 0 24 24" height="512" viewBox="0 0 24 24" width="512" xmlns="http://www.w3.org/2000/svg"><path d="m16.75 10.5c-2.895 0-5.25-2.355-5.25-5.25s2.355-5.25 5.25-5.25 5.25 2.355 5.25 5.25-2.355 5.25-5.25 5.25zm0-8.5c-1.792 0-3.25 1.458-3.25 3.25s1.458 3.25 3.25 3.25 3.25-1.458 3.25-3.25-1.458-3.25-3.25-3.25z" fill="#546e7a"/><path d="m23 12.5c-.256 0-.512-.098-.707-.293l-3.25-3.25c-.391-.391-.391-1.023 0-1.414s1.023-.391 1.414 0l3.25 3.25c.391.391.391 1.023 0 1.414-.195.195-.451.293-.707.293z" fill="#546e7a"/><path d="m13.024 1.555c-.942.949-1.524 2.255-1.524 3.695 0 2.895 2.355 5.25 5.25 5.25 1.087 0 2.098-.332 2.936-.9l-.643-.643c-.368-.368-.389-.952-.063-1.345-.583.55-1.368.888-2.23.888-1.792 0-3.25-1.458-3.25-3.25 0-.888.358-1.694.938-2.282z" fill="#49606a"/><path d="m19.028 7.558c-.017.018-.033.036-.048.054-.326.393-.305.976.063 1.345l.643.643 2.607 2.607c.195.195.451.293.707.293.249 0 .498-.093.692-.278z" fill="#49606a"/><path d="m19.29 12.03c-.79.3-1.65.47-2.54.47-4 0-7.25-3.25-7.25-7.25 0-2.06.86-3.93 2.25-5.25h-9c-1.52 0-2.75 1.23-2.75 2.75v18.5c0 1.52 1.23 2.75 2.75 2.75h14.5c1.52 0 2.75-1.23 2.75-2.75v-8.51z" fill="#eceff1"/><path d="m10 0h-7.25c-1.52 0-2.75 1.23-2.75 2.75v18.5c0 1.52 1.23 2.75 2.75 2.75h7.25v-16.102c-.323-.821-.5-1.714-.5-2.648s.177-1.83.5-2.652z" fill="#cdd0d2"/><g fill="#607d8b"><path d="m5.25 16h-1.5c-.41 0-.75.34-.75.75v4.5c0 .41.34.75.75.75s.75-.34.75-.75v-1.25h.75c.3 0 .58-.08.83-.22.55-.29.92-.87.92-1.53v-.5c0-.96-.79-1.75-1.75-1.75zm-.75 1.5h.75c.14 0 .25.11.25.25v.5c0 .14-.11.25-.25.25h-.75z"/><path d="m6.251 22c-.229 0-.453-.104-.601-.3l-1.198-1.597c-.249-.332-.182-.802.149-1.05.332-.249.802-.181 1.05.15l1.199 1.597c.249.332.182.802-.149 1.05-.136.101-.294.15-.45.15z"/><path d="m10 22c-.414 0-.75-.336-.75-.75v-3.82c0-.414.336-.75.75-.75s.75.336.75.75v3.82c0 .414-.336.75-.75.75z"/><path d="m11.25 17.5h-2.5c-.414 0-.75-.336-.75-.75s.336-.75.75-.75h2.5c.414 0 .75.336.75.75s-.336.75-.75.75z"/><path d="m13.75 22c-.414 0-.75-.336-.75-.75v-3.5c0-.965.785-1.75 1.75-1.75h1.5c.414 0 .75.336.75.75s-.336.75-.75.75h-1.5c-.138 0-.25.112-.25.25v3.5c0 .414-.336.75-.75.75z"/><path d="m16.25 20h-2.16c-.414 0-.75-.336-.75-.75s.336-.75.75-.75h2.16c.414 0 .75.336.75.75s-.336.75-.75.75z"/></g><path d="m4.682 19h-1.682v2.25c0 .41.34.75.75.75s.75-.34.75-.75v-1.083l-.048-.064c-.249-.331-.182-.802.149-1.05.027-.02.054-.037.081-.053zm2.148 0h-1.409c.087.049.166.117.23.203l.432.576c.325-.173.588-.447.747-.779z" fill="#546d79"/><path d="m5.421 19h-.739c-.028.016-.055.033-.081.053-.331.249-.398.719-.149 1.05l.048.064 1.15 1.533c.148.196.372.3.601.3.156 0 .314-.049.449-.15.331-.249.398-.719.149-1.05l-.766-1.021-.432-.576c-.064-.086-.143-.154-.23-.203z" fill="#546d79"/><path d="m10.75 19h-1.5v2.25c0 .414.336.75.75.75s.75-.336.75-.75z" fill="#546d79"/><path d="m13.383 19h-.383v2.25c0 .414.336.75.75.75s.75-.336.75-.75v-1.25h-.41c-.414 0-.75-.336-.75-.75 0-.088.015-.172.043-.25z" fill="#546d79"/><path d="m16.957 19h-3.575c-.028.078-.043.162-.043.25 0 .414.336.75.75.75h.41 1.75c.414 0 .75-.336.75-.75.001-.088-.014-.172-.042-.25z" fill="#546d79"/></svg>