<svg id="color" enable-background="new 0 0 24 24" height="512" viewBox="0 0 24 24" width="512" xmlns="http://www.w3.org/2000/svg"><path d="m16.75 13c-2.07 0-3.75-1.68-3.75-3.75v-3.5c0-1.43.82-2.67 2-3.3.01-.91.29-1.75.77-2.45h-13.02c-1.52 0-2.75 1.23-2.75 2.75v18.5c0 1.52 1.23 2.75 2.75 2.75h14.5c1.52 0 2.75-1.23 2.75-2.75v-8.25z" fill="#eceff1"/><path d="m10 0h-7.25c-1.52 0-2.75 1.23-2.75 2.75v18.5c0 1.52 1.23 2.75 2.75 2.75h7.25z" fill="#cdd0d2"/><path d="m21.25 5.5h-3.5c-.414 0-.75-.336-.75-.75v-2.25c0-1.379 1.121-2.5 2.5-2.5s2.5 1.121 2.5 2.5v2.25c0 .414-.336.75-.75.75zm-2.75-1.5h2v-1.5c0-.551-.448-1-1-1s-1 .449-1 1z" fill="#546e7a"/><path d="m22.25 11h-5.5c-.965 0-1.75-.785-1.75-1.75v-3.5c0-.965.785-1.75 1.75-1.75h5.5c.965 0 1.75.785 1.75 1.75v3.5c0 .965-.785 1.75-1.75 1.75z" fill="#ffc107"/><path d="m19.5 0c-1.379 0-2.5 1.121-2.5 2.5v1.5h1.5v-1.5c0-.551.448-1 1-1z" fill="#49606a"/><path d="m19.5 4h-1-1.5-.25c-.965 0-1.75.785-1.75 1.75v3.5c0 .965.785 1.75 1.75 1.75h2.75z" fill="#dea806"/><g fill="#607d8b"><path d="m16.25 17.5h-2.5c-.414 0-.75-.336-.75-.75s.336-.75.75-.75h2.5c.414 0 .75.336.75.75s-.336.75-.75.75z"/><path d="m15 22c-.414 0-.75-.336-.75-.75v-4.25c0-.414.336-.75.75-.75s.75.336.75.75v4.25c0 .414-.336.75-.75.75z"/><path d="m5 22c-.414 0-.75-.336-.75-.75v-4.25c0-.414.336-.75.75-.75s.75.336.75.75v4.25c0 .414-.336.75-.75.75z"/><path d="m6.25 17.5h-2.5c-.414 0-.75-.336-.75-.75s.336-.75.75-.75h2.5c.414 0 .75.336.75.75s-.336.75-.75.75z"/><path d="m11.25 22c-.263 0-.519-.139-.656-.386l-2.5-4.5c-.201-.362-.071-.819.292-1.02.361-.202.818-.071 1.02.292l2.5 4.5c.201.362.071.819-.292 1.02-.115.064-.24.094-.364.094z"/><path d="m8.75 22c-.124 0-.249-.03-.364-.094-.362-.201-.493-.658-.292-1.02l2.5-4.5c.201-.362.659-.493 1.02-.292.362.201.493.658.292 1.02l-2.5 4.5c-.137.247-.393.386-.656.386z"/></g><path d="m15.75 19h-1.5v2.25c0 .414.336.75.75.75s.75-.336.75-.75z" fill="#546d79"/><path d="m5.75 19h-1.5v2.25c0 .414.336.75.75.75s.75-.336.75-.75z" fill="#546d79"/><path d="m10.858 19-.858 1.545.594 1.07c.137.246.393.385.656.385.124 0 .249-.03.364-.094.362-.201.493-.658.292-1.02z" fill="#546d79"/><path d="m10.858 19h-1.716l-1.048 1.886c-.201.362-.071.819.292 1.02.115.064.24.094.363.094.263 0 .519-.139.656-.386l.595-1.069z" fill="#546d79"/></svg>