<svg id="color" enable-background="new 0 0 24 24" height="512" viewBox="0 0 24 24" width="512" xmlns="http://www.w3.org/2000/svg"><path d="m17.25 15.5c-4.82 0-8.75-3.93-8.75-8.75 0-2.71 1.24-5.14 3.19-6.75h-8.94c-1.52 0-2.75 1.23-2.75 2.75v18.5c0 1.52 1.23 2.75 2.75 2.75h14.5c1.52 0 2.75-1.23 2.75-2.75v-6.19c-.86.28-1.79.44-2.75.44z" fill="#eceff1"/><path d="m10 0h-7.25c-1.52 0-2.75 1.23-2.75 2.75v18.5c0 1.52 1.23 2.75 2.75 2.75h7.25v-12.36c-.946-1.398-1.5-3.081-1.5-4.89s.553-3.493 1.5-4.892z" fill="#cdd0d2"/><g fill="#607d8b"><path d="m16.25 17.5h-2.5c-.414 0-.75-.336-.75-.75s.336-.75.75-.75h2.5c.414 0 .75.336.75.75s-.336.75-.75.75z"/><path d="m15 22c-.414 0-.75-.336-.75-.75v-4.25c0-.414.336-.75.75-.75s.75.336.75.75v4.25c0 .414-.336.75-.75.75z"/><path d="m5 22c-.414 0-.75-.336-.75-.75v-4.25c0-.414.336-.75.75-.75s.75.336.75.75v4.25c0 .414-.336.75-.75.75z"/><path d="m6.25 17.5h-2.5c-.414 0-.75-.336-.75-.75s.336-.75.75-.75h2.5c.414 0 .75.336.75.75s-.336.75-.75.75z"/><path d="m11.25 22c-.263 0-.519-.139-.656-.386l-2.5-4.5c-.201-.362-.071-.819.292-1.02.361-.202.818-.071 1.02.292l2.5 4.5c.201.362.071.819-.292 1.02-.115.064-.24.094-.364.094z"/><path d="m8.75 22c-.124 0-.249-.03-.364-.094-.362-.201-.493-.658-.292-1.02l2.5-4.5c.201-.362.659-.493 1.02-.292.362.201.493.658.292 1.02l-2.5 4.5c-.137.247-.393.386-.656.386z"/></g><path d="m17.25 13.5c-3.722 0-6.75-3.028-6.75-6.75s3.028-6.75 6.75-6.75 6.75 3.028 6.75 6.75-3.028 6.75-6.75 6.75z" fill="#ffc107"/><path d="m20 7.75h-5.5c-.552 0-1-.448-1-1s.448-1 1-1h5.5c.552 0 1 .448 1 1s-.448 1-1 1z" fill="#fff"/><path d="m17.25 0c-3.722 0-6.75 3.028-6.75 6.75s3.028 6.75 6.75 6.75v-5.75h-2.75c-.552 0-1-.448-1-1s.448-1 1-1h2.75z" fill="#dea806"/><path d="m17.25 5.75h-2.75c-.552 0-1 .448-1 1s.448 1 1 1h2.75z" fill="#dedede"/><path d="m15.75 19h-1.5v2.25c0 .414.336.75.75.75s.75-.336.75-.75z" fill="#546d79"/><path d="m5.75 19h-1.5v2.25c0 .414.336.75.75.75s.75-.336.75-.75z" fill="#546d79"/><path d="m10.858 19-.858 1.545.594 1.07c.137.246.393.385.656.385.124 0 .249-.03.364-.094.362-.201.493-.658.292-1.02z" fill="#546d79"/><path d="m10.858 19h-1.716l-1.048 1.886c-.201.362-.071.819.292 1.02.115.064.24.094.363.094.263 0 .519-.139.656-.386l.595-1.069z" fill="#546d79"/></svg>