<svg id="color" enable-background="new 0 0 24 24" height="512" viewBox="0 0 24 24" width="512" xmlns="http://www.w3.org/2000/svg"><path d="m17.25 15.5c-4.82 0-8.75-3.93-8.75-8.75 0-2.71 1.24-5.14 3.19-6.75h-8.94c-1.52 0-2.75 1.23-2.75 2.75v18.5c0 1.52 1.23 2.75 2.75 2.75h14.5c1.52 0 2.75-1.23 2.75-2.75v-6.19c-.86.28-1.79.44-2.75.44z" fill="#eceff1"/><path d="m10 0h-7.25c-1.52 0-2.75 1.23-2.75 2.75v18.5c0 1.52 1.23 2.75 2.75 2.75h7.25v-12.36c-.946-1.398-1.5-3.081-1.5-4.89s.553-3.493 1.5-4.892z" fill="#cdd0d2"/><g fill="#607d8b"><path d="m11.25 22h-2.5c-.414 0-.75-.336-.75-.75v-4.5c0-.414.336-.75.75-.75s.75.336.75.75v3.75h1.75c.414 0 .75.336.75.75s-.336.75-.75.75z"/><path d="m6.251 22c-.264 0-.52-.139-.656-.386l-2.5-4.5c-.201-.362-.071-.819.291-1.02s.819-.07 1.02.292l2.5 4.5c.201.362.071.819-.291 1.02-.116.064-.241.094-.364.094z"/><path d="m3.749 22c-.123 0-.248-.03-.363-.094-.362-.201-.492-.658-.291-1.02l2.5-4.5c.2-.362.657-.493 1.02-.292s.492.658.291 1.02l-2.5 4.5c-.137.247-.393.386-.657.386z"/><path d="m15.208 22h-1.458c-.414 0-.75-.336-.75-.75s.336-.75.75-.75h1.458c.158 0 .292-.172.292-.375s-.134-.375-.292-.375h-.416c-.988 0-1.792-.841-1.792-1.875s.804-1.875 1.792-1.875h1.458c.414 0 .75.336.75.75s-.336.75-.75.75h-1.458c-.158 0-.292.172-.292.375s.134.375.292.375h.416c.988 0 1.792.841 1.792 1.875s-.804 1.875-1.792 1.875z"/></g><path d="m17.25 13.5c-3.722 0-6.75-3.028-6.75-6.75s3.028-6.75 6.75-6.75 6.75 3.028 6.75 6.75-3.028 6.75-6.75 6.75z" fill="#4caf50"/><path d="m16.25 9.75c-.265 0-.519-.105-.707-.293l-2-2c-.391-.391-.391-1.023 0-1.414s1.023-.391 1.414 0l1.244 1.244 2.796-3.196c.364-.414.995-.458 1.411-.094s.458.995.094 1.411l-3.5 4c-.182.209-.442.332-.719.341z" fill="#fff"/><path d="m17.25 0c-3.722 0-6.75 3.028-6.75 6.75s3.028 6.75 6.75 6.75v-4.374l-.248.283c-.182.208-.442.331-.719.34l-.033.001c-.265 0-.519-.105-.707-.293l-2-2c-.391-.391-.391-1.023 0-1.414.195-.195.451-.293.707-.293s.512.098.707.293l1.244 1.244 1.049-1.199z" fill="#429846"/><path d="m14.25 5.75c-.256 0-.512.098-.707.293-.391.391-.391 1.023 0 1.414l2 2c.188.188.442.293.707.293l.033-.001c.277-.009.537-.133.719-.341l.248-.283v-3.037l-1.049 1.199-1.244-1.244c-.195-.195-.451-.293-.707-.293z" fill="#dedede"/><path d="m9.5 19h-1.5v2.25c0 .414.336.75.75.75h2.5c.414 0 .75-.336.75-.75s-.336-.75-.75-.75h-1.75z" fill="#546d79"/><path d="m5.858 19-.858 1.544.595 1.071c.136.246.392.385.656.385.123 0 .248-.03.363-.094.362-.201.492-.658.291-1.02z" fill="#546d79"/><path d="m5.858 19h-1.716l-1.048 1.886c-.201.362-.071.819.291 1.02.116.064.241.094.364.094.264 0 .52-.139.656-.386l.595-1.07z" fill="#546d79"/><path d="m16.641 19h-3.281c.327.455.848.75 1.433.75h.416c.158 0 .292.172.292.375s-.135.375-.293.375h-1.458c-.414 0-.75.336-.75.75s.336.75.75.75h1.458c.988 0 1.792-.841 1.792-1.875 0-.422-.134-.811-.359-1.125z" fill="#546d79"/></svg>