<svg id="color" enable-background="new 0 0 24 24" height="512" viewBox="0 0 24 24" width="512" xmlns="http://www.w3.org/2000/svg"><path d="m16.75 10.5c-2.895 0-5.25-2.355-5.25-5.25s2.355-5.25 5.25-5.25 5.25 2.355 5.25 5.25-2.355 5.25-5.25 5.25zm0-8.5c-1.792 0-3.25 1.458-3.25 3.25s1.458 3.25 3.25 3.25 3.25-1.458 3.25-3.25-1.458-3.25-3.25-3.25z" fill="#546e7a"/><path d="m23 12.5c-.256 0-.512-.098-.707-.293l-3.25-3.25c-.391-.391-.391-1.023 0-1.414s1.023-.391 1.414 0l3.25 3.25c.391.391.391 1.023 0 1.414-.195.195-.451.293-.707.293z" fill="#546e7a"/><path d="m13.024 1.555c-.942.949-1.524 2.255-1.524 3.695 0 2.895 2.355 5.25 5.25 5.25 1.087 0 2.098-.332 2.936-.9l-.643-.643c-.368-.368-.389-.952-.063-1.345-.583.55-1.368.888-2.23.888-1.792 0-3.25-1.458-3.25-3.25 0-.888.358-1.694.938-2.282z" fill="#49606a"/><path d="m19.028 7.558c-.017.018-.033.036-.048.054-.326.393-.305.976.063 1.345l.643.643 2.607 2.607c.195.195.451.293.707.293.249 0 .498-.093.692-.278z" fill="#49606a"/><path d="m19.29 12.03c-.79.3-1.65.47-2.54.47-4 0-7.25-3.25-7.25-7.25 0-2.06.86-3.93 2.25-5.25h-9c-1.52 0-2.75 1.23-2.75 2.75v18.5c0 1.52 1.23 2.75 2.75 2.75h14.5c1.52 0 2.75-1.23 2.75-2.75v-8.51z" fill="#eceff1"/><path d="m10 0h-7.25c-1.52 0-2.75 1.23-2.75 2.75v18.5c0 1.52 1.23 2.75 2.75 2.75h7.25v-16.102c-.323-.821-.5-1.714-.5-2.648s.177-1.83.5-2.652z" fill="#cdd0d2"/><g fill="#607d8b"><path d="m11.25 22h-2.5c-.414 0-.75-.336-.75-.75v-4.5c0-.414.336-.75.75-.75s.75.336.75.75v3.75h1.75c.414 0 .75.336.75.75s-.336.75-.75.75z"/><path d="m6.251 22c-.264 0-.52-.139-.656-.386l-2.5-4.5c-.201-.362-.071-.819.291-1.02s.819-.07 1.02.292l2.5 4.5c.201.362.071.819-.291 1.02-.116.064-.241.094-.364.094z"/><path d="m3.749 22c-.123 0-.248-.03-.363-.094-.362-.201-.492-.658-.291-1.02l2.5-4.5c.2-.362.657-.493 1.02-.292s.492.658.291 1.02l-2.5 4.5c-.137.247-.393.386-.657.386z"/><path d="m15.208 22h-1.458c-.414 0-.75-.336-.75-.75s.336-.75.75-.75h1.458c.158 0 .292-.172.292-.375s-.134-.375-.292-.375h-.416c-.988 0-1.792-.841-1.792-1.875s.804-1.875 1.792-1.875h1.458c.414 0 .75.336.75.75s-.336.75-.75.75h-1.458c-.158 0-.292.172-.292.375s.134.375.292.375h.416c.988 0 1.792.841 1.792 1.875s-.804 1.875-1.792 1.875z"/></g><path d="m9.5 19h-1.5v2.25c0 .414.336.75.75.75h2.5c.414 0 .75-.336.75-.75s-.336-.75-.75-.75h-1.75z" fill="#546d79"/><path d="m5.858 19-.858 1.544.595 1.071c.136.246.392.385.656.385.123 0 .248-.03.363-.094.362-.201.492-.658.291-1.02z" fill="#546d79"/><path d="m5.858 19h-1.716l-1.048 1.886c-.201.362-.071.819.291 1.02.116.064.241.094.364.094.264 0 .52-.139.656-.386l.595-1.07z" fill="#546d79"/><path d="m16.641 19h-3.281c.327.455.848.75 1.433.75h.416c.158 0 .292.172.292.375s-.135.375-.293.375h-1.458c-.414 0-.75.336-.75.75s.336.75.75.75h1.458c.988 0 1.792-.841 1.792-1.875 0-.422-.134-.811-.359-1.125z" fill="#546d79"/></svg>