<svg id="color" enable-background="new 0 0 24 24" height="512" viewBox="0 0 24 24" width="512" xmlns="http://www.w3.org/2000/svg"><path d="m17.25 15.5c-4.82 0-8.75-3.93-8.75-8.75 0-2.71 1.24-5.14 3.19-6.75h-8.94c-1.52 0-2.75 1.23-2.75 2.75v18.5c0 1.52 1.23 2.75 2.75 2.75h14.5c1.52 0 2.75-1.23 2.75-2.75v-6.19c-.86.28-1.79.44-2.75.44z" fill="#eceff1"/><path d="m10 0h-7.25c-1.52 0-2.75 1.23-2.75 2.75v18.5c0 1.52 1.23 2.75 2.75 2.75h7.25v-12.36c-.946-1.398-1.5-3.081-1.5-4.89s.553-3.493 1.5-4.892z" fill="#cdd0d2"/><g fill="#607d8b"><path d="m9.5 22c-.414 0-.75-.336-.75-.75v-4.5c0-.414.336-.75.75-.75s.75.336.75.75v4.5c0 .414-.336.75-.75.75z"/><path d="m6.25 22h-2.5c-.266 0-.512-.141-.646-.37s-.139-.512-.009-.745l1.881-3.385h-1.226c-.414 0-.75-.336-.75-.75s.336-.75.75-.75h2.5c.266 0 .512.141.646.37s.139.512.009.745l-1.881 3.385h1.226c.414 0 .75.336.75.75s-.336.75-.75.75z"/><path d="m14 16h-1.25c-.41 0-.75.34-.75.75v4.5c0 .41.34.75.75.75s.75-.34.75-.75v-1.25h.88c.82 0 1.62-.99 1.62-2 0-1.1-.9-2-2-2zm.27 2.5h-.77v-1h.5c.28 0 .5.22.5.5 0 .23-.15.42-.23.5z"/></g><path d="m13.18 11.82c-.256 0-.512-.098-.707-.293-.391-.391-.391-1.023 0-1.414l8.141-8.14c.391-.391 1.023-.391 1.414 0s.391 1.023 0 1.414l-8.141 8.14c-.196.195-.451.293-.707.293z" fill="#f44336"/><path d="m17.25 13.5c-3.722 0-6.75-3.028-6.75-6.75s3.028-6.75 6.75-6.75 6.75 3.028 6.75 6.75-3.028 6.75-6.75 6.75zm0-11.5c-2.619 0-4.75 2.131-4.75 4.75s2.131 4.75 4.75 4.75 4.75-2.131 4.75-4.75-2.131-4.75-4.75-4.75z" fill="#f44336"/><path d="m12.377 11.416c.029.039.061.076.096.111s.072.067.111.096c-.071-.068-.14-.137-.207-.207zm4.873-6.08-3.99 3.989c.366.565.849 1.048 1.414 1.414l2.576-2.575z" fill="#d43a2f"/><path d="m17.25 0c-3.722 0-6.75 3.028-6.75 6.75 0 1.809.715 3.453 1.877 4.666.067.07.136.139.206.206 1.213 1.162 2.858 1.877 4.667 1.877v-2c-.949 0-1.833-.28-2.576-.761-.565-.366-1.048-.849-1.414-1.414-.481-.741-.76-1.626-.76-2.574 0-2.619 2.131-4.75 4.75-4.75z" fill="#d43a2f"/><path d="m10.25 19h-1.5v2.25c0 .414.336.75.75.75s.75-.336.75-.75z" fill="#546d79"/><path d="m5.858 19h-1.716l-1.048 1.886c-.13.232-.126.516.009.745.135.228.381.369.647.369h2.5c.414 0 .75-.336.75-.75s-.336-.75-.75-.75h-1.226z" fill="#546d79"/><path d="m15.746 19h-3.746v2.25c0 .41.34.75.75.75s.75-.34.75-.75v-1.25h.88c.537 0 1.065-.424 1.366-1z" fill="#546d79"/></svg>