<svg id="color" enable-background="new 0 0 24 24" height="512" viewBox="0 0 24 24" width="512" xmlns="http://www.w3.org/2000/svg"><path d="m19.25 24h-14.5c-1.517 0-2.75-1.233-2.75-2.75v-18.5c0-1.517 1.233-2.75 2.75-2.75h14.5c1.517 0 2.75 1.233 2.75 2.75v18.5c0 1.517-1.233 2.75-2.75 2.75z" fill="#eceff1"/><path d="m12 0h-7.25c-1.517 0-2.75 1.233-2.75 2.75v18.5c0 1.517 1.233 2.75 2.75 2.75h7.25z" fill="#cdd0d2"/><g fill="#607d8b"><path d="m13.25 17.75h-2.25c-.414 0-.75-.336-.75-.75s.336-.75.75-.75h2.25c.414 0 .75.336.75.75s-.336.75-.75.75z"/><path d="m13.25 20h-1.5c-.965 0-1.75-.785-1.75-1.75v-2.5c0-.965.785-1.75 1.75-1.75h1.5c.414 0 .75.336.75.75s-.336.75-.75.75h-1.5c-.138 0-.25.112-.25.25v2.5c0 .138.112.25.25.25h1.5c.414 0 .75.336.75.75s-.336.75-.75.75z"/><path d="m5.75 20c-.414 0-.75-.336-.75-.75v-4.5c0-.414.336-.75.75-.75s.75.336.75.75v4.5c0 .414-.336.75-.75.75z"/><path d="m8.001 20c-.207 0-.413-.085-.561-.252l-2-2.25c-.253-.284-.253-.712 0-.996l2-2.25c.275-.31.75-.337 1.059-.062.31.275.338.749.063 1.059l-1.559 1.751 1.557 1.752c.275.31.247.783-.063 1.059-.142.126-.32.189-.496.189z"/><path d="m17 17.75c-.272 0-.523-.147-.656-.386l-1.25-2.25c-.201-.362-.071-.819.292-1.02.359-.202.817-.071 1.02.291l.594 1.071.594-1.07c.201-.362.659-.493 1.02-.291.362.201.493.658.292 1.02l-1.25 2.25c-.133.238-.384.385-.656.385z"/><path d="m17 20c-.414 0-.75-.336-.75-.75v-2.25c0-.414.336-.75.75-.75s.75.336.75.75v2.25c0 .414-.336.75-.75.75z"/></g><path d="m14 16.994h-2.5v.756h1.75c.414 0 .75-.336.75-.75 0-.002 0-.004 0-.006z" fill="#546d79"/><path d="m11.5 16.994h-1.5v1.256c0 .965.785 1.75 1.75 1.75h1.5c.414 0 .75-.336.75-.75s-.336-.75-.75-.75h-1.5c-.138 0-.25-.112-.25-.25v-.5z" fill="#546d79"/><path d="m5.25 16.994h-.25v2.256c0 .414.336.75.75.75s.75-.336.75-.75v-.559l-1.06-1.193c-.128-.144-.191-.324-.19-.504z" fill="#546d79"/><path d="m7.009 16.994h-1.759c-.001.18.062.361.189.504l1.06 1.193.939 1.057c.149.167.356.252.563.252.177 0 .355-.062.498-.189.31-.275.338-.749.063-1.059l-1.559-1.752z" fill="#546d79"/><path d="m16.25 16.994h-.112l.112.201v-.195c0-.002 0-.004 0-.006zm1.612 0h-.112v.006.195z" fill="#546d79"/><path d="m17.75 16.994h-1.5v.006.195 2.055c0 .414.336.75.75.75s.75-.336.75-.75v-2.055-.195c0-.002 0-.004 0-.006z" fill="#546d79"/></svg>