<svg id="color" enable-background="new 0 0 24 24" height="512" viewBox="0 0 24 24" width="512" xmlns="http://www.w3.org/2000/svg"><path d="m19.25 24h-14.5c-1.517 0-2.75-1.233-2.75-2.75v-18.5c0-1.517 1.233-2.75 2.75-2.75h14.5c1.517 0 2.75 1.233 2.75 2.75v18.5c0 1.517-1.233 2.75-2.75 2.75z" fill="#eceff1"/><path d="m12 0h-7.25c-1.517 0-2.75 1.233-2.75 2.75v18.5c0 1.517 1.233 2.75 2.75 2.75h7.25z" fill="#cdd0d2"/><g fill="#607d8b"><path d="m5.75 20c-.414 0-.75-.336-.75-.75v-4.5c0-.414.336-.75.75-.75h1.25c1.103 0 2 .897 2 2s-.897 2-2 2h-.5v1.25c0 .414-.336.75-.75.75zm.75-3.5h.5c.276 0 .5-.224.5-.5s-.224-.5-.5-.5h-.5z"/><path d="m12.25 20h-1.5c-.414 0-.75-.336-.75-.75v-4.5c0-.414.336-.75.75-.75h1.5c.965 0 1.75.785 1.75 1.75v2.5c0 .965-.785 1.75-1.75 1.75zm-.75-1.5h.75c.138 0 .25-.112.25-.25v-2.5c0-.138-.112-.25-.25-.25h-.75z"/><path d="m15.75 20c-.414 0-.75-.336-.75-.75v-3.5c0-.965.785-1.75 1.75-1.75h1.5c.414 0 .75.336.75.75s-.336.75-.75.75h-1.5c-.138 0-.25.112-.25.25v3.5c0 .414-.336.75-.75.75z"/><path d="m18.25 18h-2.25c-.414 0-.75-.336-.75-.75s.336-.75.75-.75h2.25c.414 0 .75.336.75.75s-.336.75-.75.75z"/></g><path d="m12.5 16.994h-1v1.506h.75c.138 0 .25-.112.25-.25z" fill="#dedede"/><path d="m8.735 16.994h-3.735v2.256c0 .414.336.75.75.75s.75-.336.75-.75v-1.25h.5c.742 0 1.39-.405 1.735-1.006z" fill="#546d79"/><path d="m14 16.994h-1.5v1.256c0 .138-.112.25-.25.25h-.75v-1.506h-1.5v2.256c0 .414.336.75.75.75h1.5c.965 0 1.75-.785 1.75-1.75z" fill="#546d79"/><path d="m15.295 16.994h-.295v2.256c0 .414.336.75.75.75s.75-.336.75-.75v-1.25h-.5c-.414 0-.75-.336-.75-.75 0-.09.016-.176.045-.256z" fill="#546d79"/><path d="m18.955 16.994h-3.66c-.029.08-.045.166-.045.256 0 .414.336.75.75.75h.5 1.75c.414 0 .75-.336.75-.75 0-.09-.016-.176-.045-.256z" fill="#546d79"/></svg>