<svg id="color" enable-background="new 0 0 24 24" height="512" viewBox="0 0 24 24" width="512" xmlns="http://www.w3.org/2000/svg"><path d="m19.25 24h-14.5c-1.517 0-2.75-1.233-2.75-2.75v-18.5c0-1.517 1.233-2.75 2.75-2.75h14.5c1.517 0 2.75 1.233 2.75 2.75v18.5c0 1.517-1.233 2.75-2.75 2.75z" fill="#eceff1"/><path d="m12 0h-7.25c-1.517 0-2.75 1.233-2.75 2.75v18.5c0 1.517 1.233 2.75 2.75 2.75h7.25z" fill="#cdd0d2"/><g fill="#607d8b"><path d="m10.75 20c-.414 0-.75-.336-.75-.75v-4.5c0-.414.336-.75.75-.75h1.25c1.103 0 2 .897 2 2s-.897 2-2 2h-.5v1.25c0 .414-.336.75-.75.75zm.75-3.5h.5c.275 0 .5-.224.5-.5s-.225-.5-.5-.5h-.5z"/><path d="m5.75 20c-.414 0-.75-.336-.75-.75v-4.5c0-.414.336-.75.75-.75h1.25c1.102 0 2 .897 2 2s-.898 2-2 2h-.5v1.25c0 .414-.336.75-.75.75zm.75-3.5h.5c.275 0 .5-.224.5-.5s-.225-.5-.5-.5h-.5z"/><path d="m17.208 20h-1.458c-.414 0-.75-.336-.75-.75s.336-.75.75-.75h1.458c.158 0 .292-.172.292-.375s-.134-.375-.292-.375h-.416c-.988 0-1.792-.841-1.792-1.875s.804-1.875 1.792-1.875h1.458c.414 0 .75.336.75.75s-.336.75-.75.75h-1.458c-.158 0-.292.172-.292.375s.134.375.292.375h.416c.988 0 1.792.841 1.792 1.875s-.804 1.875-1.792 1.875z"/></g><path d="m13.735 16.994h-3.735v2.256c0 .414.336.75.75.75s.75-.336.75-.75v-1.25h.5c.741 0 1.39-.405 1.735-1.006z" fill="#546d79"/><path d="m8.735 16.994h-3.735v2.256c0 .414.336.75.75.75s.75-.336.75-.75v-1.25h.5c.741 0 1.39-.405 1.735-1.006z" fill="#546d79"/><path d="m18.636 16.994h-3.281c.327.459.849.756 1.437.756h.416c.158 0 .292.172.292.375s-.134.375-.292.375h-1.458c-.414 0-.75.336-.75.75s.336.75.75.75h1.458c.988 0 1.792-.841 1.792-1.875 0-.425-.136-.817-.364-1.131z" fill="#546d79"/></svg>