<svg id="color" enable-background="new 0 0 24 24" height="512" viewBox="0 0 24 24" width="512" xmlns="http://www.w3.org/2000/svg"><path d="m19.25 24h-14.5c-1.517 0-2.75-1.233-2.75-2.75v-18.5c0-1.517 1.233-2.75 2.75-2.75h14.5c1.517 0 2.75 1.233 2.75 2.75v18.5c0 1.517-1.233 2.75-2.75 2.75z" fill="#eceff1"/><path d="m12 0h-7.25c-1.517 0-2.75 1.233-2.75 2.75v18.5c0 1.517 1.233 2.75 2.75 2.75h7.25z" fill="#cdd0d2"/><g fill="#607d8b"><path d="m17 20c-.414 0-.75-.336-.75-.75v-4.25c0-.414.336-.75.75-.75s.75.336.75.75v4.25c0 .414-.336.75-.75.75z"/><path d="m18.25 15.5h-2.5c-.414 0-.75-.336-.75-.75s.336-.75.75-.75h2.5c.414 0 .75.336.75.75s-.336.75-.75.75z"/><path d="m5.75 20c-.414 0-.75-.336-.75-.75v-4.5c0-.414.336-.75.75-.75h1.25c1.103 0 2 .897 2 2s-.897 2-2 2h-.5v1.25c0 .414-.336.75-.75.75zm.75-3.5h.5c.276 0 .5-.224.5-.5s-.224-.5-.5-.5h-.5z"/><path d="m10.75 20c-.414 0-.75-.336-.75-.75v-4.5c0-.414.336-.75.75-.75h1.25c1.103 0 2 .897 2 2s-.897 2-2 2h-.5v1.25c0 .414-.336.75-.75.75zm.75-3.5h.5c.276 0 .5-.224.5-.5s-.224-.5-.5-.5h-.5z"/></g><path d="m17.75 16.994h-1.5v2.256c0 .414.336.75.75.75s.75-.336.75-.75z" fill="#546d79"/><path d="m8.735 16.994h-3.735v2.256c0 .414.336.75.75.75s.75-.336.75-.75v-1.25h.5c.742 0 1.39-.405 1.735-1.006z" fill="#546d79"/><path d="m13.735 16.994h-3.735v2.256c0 .414.336.75.75.75s.75-.336.75-.75v-1.25h.5c.742 0 1.39-.405 1.735-1.006z" fill="#546d79"/></svg>