<svg id="color" enable-background="new 0 0 24 24" height="512" viewBox="0 0 24 24" width="512" xmlns="http://www.w3.org/2000/svg"><path d="m19.25 24h-14.5c-1.517 0-2.75-1.233-2.75-2.75v-18.5c0-1.517 1.233-2.75 2.75-2.75h14.5c1.517 0 2.75 1.233 2.75 2.75v18.5c0 1.517-1.233 2.75-2.75 2.75z" fill="#eceff1"/><path d="m12 0h-7.25c-1.517 0-2.75 1.233-2.75 2.75v18.5c0 1.517 1.233 2.75 2.75 2.75h7.25z" fill="#cdd0d2"/><g fill="#607d8b"><path d="m13.25 20c-.414 0-.75-.336-.75-.75v-3.25c0-.276-.225-.5-.5-.5s-.5.224-.5.5v3.25c0 .414-.336.75-.75.75s-.75-.336-.75-.75v-3.25c0-1.103.897-2 2-2s2 .897 2 2v3.25c0 .414-.336.75-.75.75z"/><path d="m12.781 18h-1.563c-.414 0-.75-.336-.75-.75s.336-.75.75-.75h1.563c.414 0 .75.336.75.75s-.336.75-.75.75z"/><path d="m5.75 20c-.414 0-.75-.336-.75-.75v-4.5c0-.414.336-.75.75-.75h1.5c.965 0 1.75.785 1.75 1.75v.5c0 .965-.785 1.75-1.75 1.75h-.75v1.25c0 .414-.336.75-.75.75zm.75-3.5h.75c.138 0 .25-.112.25-.25v-.5c0-.138-.112-.25-.25-.25h-.75z"/><path d="m8.251 20c-.229 0-.454-.103-.601-.3l-1.25-1.666c-.249-.332-.182-.802.149-1.05.333-.249.804-.181 1.05.15l1.251 1.666c.249.332.182.802-.15 1.05-.135.101-.293.15-.449.15z"/><path d="m15.75 20c-.414 0-.75-.336-.75-.75v-4.5c0-.414.336-.75.75-.75h1.5c.965 0 1.75.785 1.75 1.75v.5c0 .965-.785 1.75-1.75 1.75h-.75v1.25c0 .414-.336.75-.75.75zm.75-3.5h.75c.138 0 .25-.112.25-.25v-.5c0-.138-.112-.25-.25-.25h-.75z"/><path d="m18.251 20c-.228 0-.454-.103-.601-.3l-1.25-1.667c-.249-.332-.182-.802.149-1.05.332-.249.804-.181 1.05.15l1.25 1.666c.249.332.182.802-.149 1.05-.135.102-.293.151-.449.151z"/></g><path d="m10.514 16.994h-.514v2.256c0 .414.336.75.75.75s.75-.336.75-.75v-1.25h-.281c-.414 0-.75-.336-.75-.75 0-.09.016-.176.045-.256zm3.486 0h-.514c.029.08.045.166.045.256 0 .414-.336.75-.75.75h-.281v1.25c0 .414.336.75.75.75s.75-.336.75-.75z" fill="#546d79"/><path d="m13.486 16.994h-2.972c-.029.08-.045.166-.045.256 0 .414.336.75.75.75h.281 1 .281c.414 0 .75-.336.75-.75 0-.09-.016-.176-.045-.256z" fill="#546d79"/><path d="m6.536 16.994h-1.536v2.256c0 .414.336.75.75.75s.75-.336.75-.75v-1.084l-.1-.133c-.245-.326-.183-.788.136-1.039zm2.298 0h-1.37c.05.04.096.086.136.14l.489.652c.324-.178.587-.456.745-.792z" fill="#546d79"/><path d="m7.464 16.994h-.928c-.319.251-.382.713-.136 1.04l.1.133 1.15 1.533c.147.197.372.3.601.3.156 0 .314-.049.449-.15.331-.249.399-.719.15-1.05l-.761-1.014-.489-.653c-.04-.053-.086-.1-.136-.139z" fill="#546d79"/><path d="m16.536 16.994h-1.536v2.256c0 .414.336.75.75.75s.75-.336.75-.75v-1.084l-.1-.133c-.245-.326-.183-.788.136-1.039zm2.298 0h-1.37c.05.04.096.086.136.14l.489.652c.324-.178.587-.456.745-.792z" fill="#546d79"/><path d="m17.464 16.994h-.928c-.32.251-.382.713-.136 1.04l.1.133 1.15 1.534c.147.196.372.3.601.3.156 0 .314-.049.449-.15.331-.249.398-.719.149-1.05l-.761-1.014-.488-.654c-.04-.053-.086-.1-.136-.139z" fill="#546d79"/></svg>