<svg id="color" enable-background="new 0 0 24 24" height="512" viewBox="0 0 24 24" width="512" xmlns="http://www.w3.org/2000/svg"><path d="m21.25 21h-18.5c-1.517 0-2.75-1.233-2.75-2.75v-12.5c0-1.517 1.233-2.75 2.75-2.75h5.25c.199 0 .39.079.53.22l1.781 1.78h10.94c1.516 0 2.749 1.233 2.749 2.75v10.5c0 1.517-1.233 2.75-2.75 2.75z" fill="#03a9f4"/><path d="m8 3h-5.25c-1.517 0-2.75 1.233-2.75 2.75v12.5c0 1.517 1.233 2.75 2.75 2.75h9.25v-16h-1.689l-1.781-1.78c-.14-.141-.331-.22-.53-.22z" fill="#0393d4"/><g fill="#fff"><path d="m13.25 16c-.414 0-.75-.336-.75-.75v-3.25c0-.275-.225-.5-.5-.5s-.5.225-.5.5v3.25c0 .414-.336.75-.75.75s-.75-.336-.75-.75v-3.25c0-1.102.897-2 2-2s2 .898 2 2v3.25c0 .414-.336.75-.75.75z"/><path d="m13.108 14h-2.217c-.414 0-.75-.336-.75-.75s.336-.75.75-.75h2.217c.414 0 .75.336.75.75s-.336.75-.75.75z"/><path d="m5.75 16c-.414 0-.75-.336-.75-.75v-4.5c0-.414.336-.75.75-.75h1.5c.965 0 1.75.785 1.75 1.75v.5c0 .965-.785 1.75-1.75 1.75h-.75v1.25c0 .414-.336.75-.75.75zm.75-3.5h.75c.138 0 .25-.112.25-.25v-.5c0-.138-.112-.25-.25-.25h-.75z"/><path d="m8.251 16c-.228 0-.454-.104-.601-.3l-1.25-1.667c-.249-.332-.182-.802.149-1.05.333-.249.804-.181 1.05.149l1.251 1.668c.249.332.182.802-.149 1.05-.136.101-.294.15-.45.15z"/><path d="m15.75 16c-.414 0-.75-.336-.75-.75v-4.5c0-.414.336-.75.75-.75h1.5c.965 0 1.75.785 1.75 1.75v.5c0 .965-.785 1.75-1.75 1.75h-.75v1.25c0 .414-.336.75-.75.75zm.75-3.5h.75c.138 0 .25-.112.25-.25v-.5c0-.138-.112-.25-.25-.25h-.75z"/><path d="m18.251 16c-.228 0-.454-.104-.601-.3l-1.25-1.667c-.249-.332-.182-.802.149-1.05.333-.249.804-.181 1.05.149l1.25 1.667c.249.332.182.802-.149 1.05-.135.102-.293.151-.449.151z"/></g><path d="m10.142 13.25h-.142v2c0 .414.336.75.75.75s.75-.336.75-.75v-1.25h-.608c-.414 0-.75-.336-.75-.75zm3.858 0h-.142c0 .414-.336.75-.75.75h-.608v1.25c0 .414.336.75.75.75s.75-.336.75-.75z" fill="#dedede"/><path d="m13.858 13.25h-3.717c0 .414.336.75.75.75h.609 1 .608c.414 0 .75-.336.75-.75z" fill="#dedede"/><path d="m6.328 13.25h-1.328v2c0 .414.336.75.75.75s.75-.336.75-.75v-1.084l-.1-.133c-.176-.234-.194-.538-.072-.783zm2.357 0h-.997l.401.535c.238-.13.442-.314.596-.535z" fill="#dedede"/><path d="m7.688 13.25h-1.36c-.121.245-.103.549.073.783l.1.133 1.149 1.534c.147.196.372.3.601.3.156 0 .314-.049.449-.15.331-.248.398-.718.149-1.05l-.761-1.014z" fill="#dedede"/><path d="m16.328 13.25h-1.328v2c0 .414.336.75.75.75s.75-.336.75-.75v-1.084l-.1-.133c-.176-.234-.194-.538-.072-.783zm2.357 0h-.998l.401.535c.239-.13.443-.314.597-.535z" fill="#dedede"/><path d="m17.687 13.25h-1.36c-.121.245-.103.549.073.783l.1.133 1.15 1.534c.146.196.372.3.601.3.156 0 .314-.049.449-.15.331-.248.398-.718.149-1.05l-.761-1.014z" fill="#dedede"/></svg>