<svg id="color" enable-background="new 0 0 24 24" height="512" viewBox="0 0 24 24" width="512" xmlns="http://www.w3.org/2000/svg"><path d="m19.25 24h-14.5c-1.517 0-2.75-1.233-2.75-2.75v-18.5c0-1.517 1.233-2.75 2.75-2.75h14.5c1.517 0 2.75 1.233 2.75 2.75v18.5c0 1.517-1.233 2.75-2.75 2.75z" fill="#eceff1"/><path d="m12 0h-7.25c-1.517 0-2.75 1.233-2.75 2.75v18.5c0 1.517 1.233 2.75 2.75 2.75h7.25z" fill="#cdd0d2"/><g fill="#607d8b"><path d="m5.75 20c-.414 0-.75-.336-.75-.75v-4.5c0-.414.336-.75.75-.75h1.5c.965 0 1.75.785 1.75 1.75v.5c0 .965-.785 1.75-1.75 1.75h-.75v1.25c0 .414-.336.75-.75.75zm.75-3.5h.75c.138 0 .25-.112.25-.25v-.5c0-.138-.112-.25-.25-.25h-.75z"/><path d="m8.251 20c-.229 0-.453-.103-.601-.3l-1.198-1.597c-.249-.332-.182-.802.149-1.05.332-.249.802-.181 1.05.15l1.199 1.597c.249.332.182.802-.15 1.05-.135.101-.293.15-.449.15z"/><path d="m12 20c-.414 0-.75-.336-.75-.75v-3.82c0-.414.336-.75.75-.75s.75.336.75.75v3.82c0 .414-.336.75-.75.75z"/><path d="m13.25 15.5h-2.5c-.414 0-.75-.336-.75-.75s.336-.75.75-.75h2.5c.414 0 .75.336.75.75s-.336.75-.75.75z"/><path d="m15.75 20c-.414 0-.75-.336-.75-.75v-3.5c0-.965.785-1.75 1.75-1.75h1.5c.414 0 .75.336.75.75s-.336.75-.75.75h-1.5c-.138 0-.25.112-.25.25v3.5c0 .414-.336.75-.75.75z"/><path d="m18.25 18h-2.16c-.414 0-.75-.336-.75-.75s.336-.75.75-.75h2.16c.414 0 .75.336.75.75s-.336.75-.75.75z"/></g><path d="m6.694 16.994h-1.694v2.256c0 .414.336.75.75.75s.75-.336.75-.75v-1.083l-.048-.064c-.249-.332-.182-.802.149-1.05.03-.022.061-.042.093-.059zm2.14 0h-1.424c.092.05.175.12.242.209l.437.583c.324-.178.587-.456.745-.792z" fill="#546d79"/><path d="m7.41 16.994h-.716c-.032.017-.062.037-.092.059-.331.249-.398.719-.149 1.05l.047.064 1.15 1.533c.148.197.372.3.601.3.156 0 .314-.049.449-.15.331-.249.399-.719.15-1.05l-.761-1.014-.437-.583c-.067-.089-.15-.159-.242-.209z" fill="#546d79"/><path d="m12.75 16.994h-1.5v2.256c0 .414.336.75.75.75s.75-.336.75-.75z" fill="#546d79"/><path d="m15.385 16.994h-.385v2.256c0 .414.336.75.75.75s.75-.336.75-.75v-1.25h-.41c-.414 0-.75-.336-.75-.75 0-.09.016-.176.045-.256z" fill="#546d79"/><path d="m18.955 16.994h-3.57c-.029.08-.045.166-.045.256 0 .414.336.75.75.75h.41 1.75c.414 0 .75-.336.75-.75 0-.09-.016-.176-.045-.256z" fill="#546d79"/></svg>