<svg id="color" enable-background="new 0 0 24 24" height="512" viewBox="0 0 24 24" width="512" xmlns="http://www.w3.org/2000/svg"><path d="m19.25 24h-14.5c-1.517 0-2.75-1.233-2.75-2.75v-18.5c0-1.517 1.233-2.75 2.75-2.75h14.5c1.517 0 2.75 1.233 2.75 2.75v18.5c0 1.517-1.233 2.75-2.75 2.75z" fill="#eceff1"/><path d="m12 0h-7.25c-1.517 0-2.75 1.233-2.75 2.75v18.5c0 1.517 1.233 2.75 2.75 2.75h7.25z" fill="#cdd0d2"/><path d="m12 19.25c-.552 0-1-.448-1-1v-2c0-.552.448-1 1-1s1 .448 1 1v2c0 .552-.448 1-1 1z" fill="#90caf9"/><path d="m14.5 21.25c-.219 0-.44-.072-.624-.219l-1.876-1.5-1.875 1.5c-.43.344-1.061.275-1.405-.156-.345-.431-.275-1.061.156-1.405l2.5-2c.365-.292.884-.292 1.249 0l2.5 2c.432.345.501.974.156 1.405-.198.247-.489.375-.781.375z" fill="#90caf9"/><path d="m18.25 17h-12.5c-.414 0-.75-.336-.75-.75v-7.5c0-.414.336-.75.75-.75h12.5c.414 0 .75.336.75.75v7.5c0 .414-.336.75-.75.75z" fill="#2196f3"/><path d="m12 17h-1v.77l.375-.3c.183-.146.404-.219.625-.219z" fill="#7db0d9"/><path d="m12 17.25c-.221 0-.442.073-.625.219l-.375.301-2.125 1.7c-.432.345-.501.974-.156 1.405.197.247.488.375.782.375.219 0 .44-.072.624-.219l1.875-1.5z" fill="#7db0d9"/><path d="m12 8h-6.25c-.414 0-.75.336-.75.75v7.5c0 .414.336.75.75.75h5.25 1z" fill="#1d83d4"/></svg>