<svg id="color" enable-background="new 0 0 24 24" height="512" viewBox="0 0 24 24" width="512" xmlns="http://www.w3.org/2000/svg"><path d="m21.25 5h-18.5c-1.52 0-2.75 1.23-2.75 2.75v13.5c0 1.519 1.23 2.75 2.75 2.75h14.75v-5.75c0-.41.34-.75.75-.75h5.75v-9.75c0-1.52-1.23-2.75-2.75-2.75z" fill="#1976d2"/><path d="m12 8c-.414 0-.75-.336-.75-.75v-3.75c0-.414.336-.75.75-.75s.75.336.75.75v3.75c0 .414-.336.75-.75.75z" fill="#ffc107"/><path d="m12 4c-1.103 0-2-.897-2-2 0-1.102.897-2 2-2s2 .898 2 2c0 1.103-.897 2-2 2z" fill="#ffc107"/><g fill="#fff"><path d="m19.25 12h-14.5c-.414 0-.75-.336-.75-.75s.336-.75.75-.75h14.5c.414 0 .75.336.75.75s-.336.75-.75.75z"/><path d="m19.25 16h-14.5c-.414 0-.75-.336-.75-.75s.336-.75.75-.75h14.5c.414 0 .75.336.75.75s-.336.75-.75.75z"/><path d="m14 20h-9.25c-.414 0-.75-.336-.75-.75s.336-.75.75-.75h9.25c.414 0 .75.336.75.75s-.336.75-.75.75z"/></g><path d="m11.25 5h-8.5c-1.52 0-2.75 1.23-2.75 2.75v13.5c0 1.519 1.23 2.75 2.75 2.75h9.25v-4h-7.25c-.414 0-.75-.336-.75-.75s.336-.75.75-.75h7.25v-2.5h-7.25c-.414 0-.75-.336-.75-.75s.336-.75.75-.75h7.25v-2.5h-7.25c-.414 0-.75-.336-.75-.75s.336-.75.75-.75h7.25v-2.5c-.414 0-.75-.336-.75-.75z" fill="#1667b7"/><path d="m11.25 3.854v1.146 2.25c0 .414.336.75.75.75v-4c-.265 0-.518-.052-.75-.146z" fill="#dea806"/><path d="m12 0c-1.103 0-2 .898-2 2 0 .838.518 1.557 1.25 1.854.232.094.485.146.75.146z" fill="#dea806"/><path d="m12 10.5h-7.25c-.414 0-.75.336-.75.75s.336.75.75.75h7.25z" fill="#dedede"/><path d="m12 14.5h-7.25c-.414 0-.75.336-.75.75s.336.75.75.75h7.25z" fill="#dedede"/><path d="m12 18.5h-7.25c-.414 0-.75.336-.75.75s.336.75.75.75h7.25z" fill="#dedede"/><path d="m24 17.5v.75c0 .2-.08.39-.22.53l-5 5c-.14.14-.33.22-.53.22h-.75v-5.75c0-.41.34-.75.75-.75z" fill="#2196f3"/><path d="m20.542 17.5h-2.292c-.41 0-.75.34-.75.75v5.75h.75c.2 0 .39-.08.53-.22l1.761-1.761v-4.519z" fill="#1d83d4"/></svg>