<svg id="color" enable-background="new 0 0 24 24" height="512" viewBox="0 0 24 24" width="512" xmlns="http://www.w3.org/2000/svg"><path d="m19.25 24h-14.5c-1.517 0-2.75-1.233-2.75-2.75v-18.5c0-1.517 1.233-2.75 2.75-2.75h14.5c1.517 0 2.75 1.233 2.75 2.75v18.5c0 1.517-1.233 2.75-2.75 2.75z" fill="#eceff1"/><path d="m12 0h-7.25c-1.517 0-2.75 1.233-2.75 2.75v18.5c0 1.517 1.233 2.75 2.75 2.75h7.25z" fill="#cdd0d2"/><path d="m19 12.75h-8.5v3.5h8.5z" fill="#90caf9"/><path d="m10.5 11.25h8.5v-2.5c0-.414-.336-.75-.75-.75h-7.75z" fill="#2196f3"/><path d="m10.5 17.75v3.25h7.75c.414 0 .75-.336.75-.75v-2.5z" fill="#2196f3"/><path d="m14.75 12.75h-4.25v3.5h4.25z" fill="#7db0d9"/><path d="m14.75 8h-4.25v3.25h4.25z" fill="#1d83d4"/><path d="m14.75 17.75h-4.25v3.25h4.25z" fill="#1d83d4"/><path d="m9 11.25v-3.25h-3.25c-.414 0-.75.336-.75.75v2.5z" fill="#2196f3"/><path d="m9 12.75h-4v3.5h4z" fill="#90caf9"/><path d="m9 17.75h-4v2.5c0 .414.336.75.75.75h3.25z" fill="#2196f3"/><path d="m7 8h-1.25c-.414 0-.75.336-.75.75v2.5h2z" fill="#1d83d4"/><path d="m7 12.75h-2v3.5h2z" fill="#7db0d9"/><path d="m7 17.75h-2v2.5c0 .414.336.75.75.75h1.25z" fill="#1d83d4"/></svg>