<svg id="color" enable-background="new 0 0 24 24" height="512" viewBox="0 0 24 24" width="512" xmlns="http://www.w3.org/2000/svg"><path d="m19.25 24h-14.5c-1.517 0-2.75-1.233-2.75-2.75v-18.5c0-1.517 1.233-2.75 2.75-2.75h14.5c1.517 0 2.75 1.233 2.75 2.75v18.5c0 1.517-1.233 2.75-2.75 2.75z" fill="#eceff1"/><path d="m12 0h-7.25c-1.517 0-2.75 1.233-2.75 2.75v18.5c0 1.517 1.233 2.75 2.75 2.75h7.25z" fill="#cdd0d2"/><path d="m18.25 18h-12.5c-.414 0-.75-.336-.75-.75s.336-.75.75-.75h12.5c.414 0 .75.336.75.75s-.336.75-.75.75z" fill="#90a4ae"/><path d="m18.25 21h-12.5c-.414 0-.75-.336-.75-.75s.336-.75.75-.75h12.5c.414 0 .75.336.75.75s-.336.75-.75.75z" fill="#90a4ae"/><path d="m12 16.5h-6.25c-.414 0-.75.336-.75.75s.336.75.75.75h6.25z" fill="#7d8f97"/><path d="m12 19.5h-6.25c-.414 0-.75.336-.75.75s.336.75.75.75h6.25z" fill="#7d8f97"/><g fill="#2196f3"><path d="m11.25 10.5c-.414 0-.75-.336-.75-.75v-.25h-4v.25c0 .414-.336.75-.75.75s-.75-.336-.75-.75v-1c0-.414.336-.75.75-.75h5.5c.414 0 .75.336.75.75v1c0 .414-.336.75-.75.75z"/><path d="m8.5 14.847c-.414 0-.75-.321-.75-.717v-5.26c0-.396.336-.717.75-.717s.75.321.75.717v5.26c0 .396-.336.717-.75.717z"/><path d="m9.25 15h-1.5c-.414 0-.75-.336-.75-.75s.336-.75.75-.75h1.5c.414 0 .75.336.75.75s-.336.75-.75.75z"/></g><path d="m8.5 8h-2.75c-.414 0-.75.336-.75.75v1c0 .414.336.75.75.75s.75-.336.75-.75v-.25h1.25v-.63c0-.396.336-.717.75-.717z" fill="#1d83d4"/><path d="m8.5 8.153c-.414 0-.75.321-.75.717v.63 4h.75z" fill="#1d83d4"/><path d="m8.5 13.5h-.75c-.414 0-.75.336-.75.75s.336.75.75.75h.75z" fill="#1d83d4"/><path d="m18.25 9.5h-3.5c-.414 0-.75-.336-.75-.75s.336-.75.75-.75h3.5c.414 0 .75.336.75.75s-.336.75-.75.75z" fill="#cfd8dc"/><path d="m18.25 12.25h-3.5c-.414 0-.75-.336-.75-.75s.336-.75.75-.75h3.5c.414 0 .75.336.75.75s-.336.75-.75.75z" fill="#cfd8dc"/><path d="m18.25 15h-3.5c-.414 0-.75-.336-.75-.75s.336-.75.75-.75h3.5c.414 0 .75.336.75.75s-.336.75-.75.75z" fill="#cfd8dc"/><path d="m16.5 8h-1.75c-.414 0-.75.336-.75.75s.336.75.75.75h1.75z" fill="#b4bcc0"/><path d="m16.5 10.75h-1.75c-.414 0-.75.336-.75.75s.336.75.75.75h1.75z" fill="#b4bcc0"/><path d="m16.5 13.5h-1.75c-.414 0-.75.336-.75.75s.336.75.75.75h1.75z" fill="#b4bcc0"/></svg>