<svg id="color" enable-background="new 0 0 24 24" height="512" viewBox="0 0 24 24" width="512" xmlns="http://www.w3.org/2000/svg"><path d="m5 12.85-2.28 2.32c-1.1 1.12-1.72 2.63-1.72 4.2v4.63h7.5v-1.13c.92-.55 1.71-1.8 1.73-2.87v-7.15z" fill="#ffcc80"/><path d="m8.5 22.87c.92-.55 1.71-1.8 1.73-2.87v-7.15h-2.887s1.628.19-.825 1.4c-3.431 1.692-3.084 3.821-3.084 3.821l2.438 5.929h2.628z" fill="#ffa726"/><path d="m19.25 20h-11.5c-1.517 0-2.75-1.233-2.75-2.75v-11.5c0-1.517 1.233-2.75 2.75-2.75h11.5c1.517 0 2.75 1.233 2.75 2.75v11.5c0 1.517-1.233 2.75-2.75 2.75z" fill="#2196f3"/><path d="m16.25 6.5h-5.5c-.965 0-1.75-.785-1.75-1.75v-2c0-.414.336-.75.75-.75h1.104c.327-1.152 1.39-2 2.646-2s2.319.848 2.646 2h1.104c.414 0 .75.336.75.75v2c0 .965-.785 1.75-1.75 1.75z" fill="#1976d2"/><g fill="#fff"><path d="m18.25 10.5h-9.5c-.414 0-.75-.336-.75-.75s.336-.75.75-.75h9.5c.414 0 .75.336.75.75s-.336.75-.75.75z"/><path d="m18.25 13.75h-9.5c-.414 0-.75-.336-.75-.75s.336-.75.75-.75h9.5c.414 0 .75.336.75.75s-.336.75-.75.75z"/><path d="m18.25 17h-9.5c-.414 0-.75-.336-.75-.75s.336-.75.75-.75h9.5c.414 0 .75.336.75.75s-.336.75-.75.75z"/></g><path d="m9 3h-1.25c-1.517 0-2.75 1.233-2.75 2.75v11.5c0 1.517 1.233 2.75 2.75 2.75h5.75v-3h-4.75c-.414 0-.75-.336-.75-.75s.336-.75.75-.75h4.75v-1.75h-4.75c-.414 0-.75-.336-.75-.75s.336-.75.75-.75h4.75v-1.75h-4.75c-.414 0-.75-.336-.75-.75s.336-.75.75-.75h4.75v-2.5h-2.75c-.965 0-1.75-.785-1.75-1.75z" fill="#1d83d4"/><path d="m13.5 0c-1.256 0-2.319.848-2.646 2h-1.104c-.414 0-.75.336-.75.75v.25 1.75c0 .965.785 1.75 1.75 1.75h2.75z" fill="#1667b7"/><path d="m13.5 9h-4.75c-.414 0-.75.336-.75.75s.336.75.75.75h4.75z" fill="#dedede"/><path d="m13.5 12.25h-4.75c-.414 0-.75.336-.75.75s.336.75.75.75h4.75z" fill="#dedede"/><path d="m13.5 15.5h-4.75c-.414 0-.75.336-.75.75s.336.75.75.75h4.75z" fill="#dedede"/><path d="m5.872 24v-1.996c.873-.877.873-2.299 0-3.176l1.842-2.467c.325-.435.377-1.016.135-1.502-.195-.391-.714-.476-1.022-.167l-5.827 5.842v3.466z" fill="#ffcc80"/></svg>