<svg id="color" enable-background="new 0 0 24 24" height="512" viewBox="0 0 24 24" width="512" xmlns="http://www.w3.org/2000/svg"><path d="m19.25 24h-14.5c-1.517 0-2.75-1.233-2.75-2.75v-18.5c0-1.517 1.233-2.75 2.75-2.75h14.5c1.517 0 2.75 1.233 2.75 2.75v18.5c0 1.517-1.233 2.75-2.75 2.75z" fill="#eceff1"/><path d="m12 0h-7.25c-1.517 0-2.75 1.233-2.75 2.75v18.5c0 1.517 1.233 2.75 2.75 2.75h7.25z" fill="#cdd0d2"/><g fill="#607d8b"><path d="m18.25 15.5h-2.5c-.414 0-.75-.336-.75-.75s.336-.75.75-.75h2.5c.414 0 .75.336.75.75s-.336.75-.75.75z"/><path d="m17 20c-.414 0-.75-.336-.75-.75v-4.25c0-.414.336-.75.75-.75s.75.336.75.75v4.25c0 .414-.336.75-.75.75z"/><path d="m7 20c-.414 0-.75-.336-.75-.75v-4.25c0-.414.336-.75.75-.75s.75.336.75.75v4.25c0 .414-.336.75-.75.75z"/><path d="m8.25 15.5h-2.5c-.414 0-.75-.336-.75-.75s.336-.75.75-.75h2.5c.414 0 .75.336.75.75s-.336.75-.75.75z"/><path d="m13.25 20c-.263 0-.519-.139-.656-.386l-2.5-4.5c-.201-.362-.071-.819.292-1.02.361-.202.818-.071 1.02.291l2.5 4.5c.201.362.071.819-.291 1.02-.116.065-.241.095-.365.095z"/><path d="m10.75 20c-.124 0-.249-.03-.364-.094-.362-.201-.493-.658-.292-1.02l2.5-4.5c.201-.362.659-.493 1.02-.291.362.201.493.658.291 1.02l-2.5 4.5c-.136.246-.392.385-.655.385z"/></g><path d="m17.75 16.994h-1.5v2.256c0 .414.336.75.75.75s.75-.336.75-.75z" fill="#546d79"/><path d="m7.75 16.994h-1.5v2.256c0 .414.336.75.75.75s.75-.336.75-.75z" fill="#546d79"/><path d="m12.858 17-.858 1.545.594 1.07c.137.246.393.385.656.385.124 0 .249-.03.364-.094.362-.201.493-.658.291-1.02zm-1.713-.006h-.007l.004.006z" fill="#546d79"/><path d="m12.862 16.994h-1.716l-.004.006-1.048 1.886c-.201.362-.071.819.292 1.02.115.064.24.094.364.094.263 0 .519-.139.656-.386l.594-1.069.858-1.545z" fill="#546d79"/></svg>