<svg id="color" enable-background="new 0 0 24 24" height="512" viewBox="0 0 24 24" width="512" xmlns="http://www.w3.org/2000/svg"><path d="m19.25 24h-14.5c-1.517 0-2.75-1.233-2.75-2.75v-18.5c0-1.517 1.233-2.75 2.75-2.75h14.5c1.517 0 2.75 1.233 2.75 2.75v18.5c0 1.517-1.233 2.75-2.75 2.75z" fill="#eceff1"/><path d="m12 0h-7.25c-1.517 0-2.75 1.233-2.75 2.75v18.5c0 1.517 1.233 2.75 2.75 2.75h7.25z" fill="#cdd0d2"/><g fill="#607d8b"><path d="m13.25 20h-2.5c-.414 0-.75-.336-.75-.75v-4.5c0-.414.336-.75.75-.75s.75.336.75.75v3.75h1.75c.414 0 .75.336.75.75s-.336.75-.75.75z"/><path d="m8.251 20c-.264 0-.52-.139-.656-.386l-2.5-4.5c-.201-.362-.071-.819.291-1.02s.819-.07 1.02.291l2.5 4.5c.201.362.071.819-.291 1.02-.116.065-.241.095-.364.095z"/><path d="m5.749 20c-.123 0-.248-.03-.363-.094-.362-.201-.492-.658-.291-1.02l2.5-4.5c.2-.362.657-.493 1.02-.291.362.201.492.658.291 1.02l-2.5 4.5c-.137.246-.393.385-.657.385z"/><path d="m17.208 20h-1.458c-.414 0-.75-.336-.75-.75s.336-.75.75-.75h1.458c.158 0 .292-.172.292-.375s-.134-.375-.292-.375h-.416c-.988 0-1.792-.841-1.792-1.875s.804-1.875 1.792-1.875h1.458c.414 0 .75.336.75.75s-.336.75-.75.75h-1.458c-.158 0-.292.172-.292.375s.134.375.292.375h.416c.988 0 1.792.841 1.792 1.875s-.804 1.875-1.792 1.875z"/></g><path d="m11.5 16.994h-1.5v2.256c0 .414.336.75.75.75h2.5c.414 0 .75-.336.75-.75s-.336-.75-.75-.75h-1.75z" fill="#546d79"/><path d="m7.858 17-.858 1.544.595 1.071c.136.246.392.385.656.385.123 0 .248-.03.363-.094.362-.201.492-.658.291-1.02zm-1.712-.006h-.007l.003.006z" fill="#546d79"/><path d="m7.861 16.994h-1.715l-.004.006-1.048 1.886c-.201.362-.071.819.291 1.02.116.064.241.094.364.094.264 0 .52-.139.656-.386l.595-1.07.858-1.544z" fill="#546d79"/><path d="m18.636 16.994h-3.281c.327.459.849.756 1.437.756h.416c.158 0 .292.172.292.375s-.134.375-.292.375h-1.458c-.414 0-.75.336-.75.75s.336.75.75.75h1.458c.988 0 1.792-.841 1.792-1.875 0-.425-.136-.817-.364-1.131z" fill="#546d79"/></svg>