<svg id="color" enable-background="new 0 0 24 24" height="512" viewBox="0 0 24 24" width="512" xmlns="http://www.w3.org/2000/svg"><path d="m19.25 24h-14.5c-1.517 0-2.75-1.233-2.75-2.75v-18.5c0-1.517 1.233-2.75 2.75-2.75h14.5c1.517 0 2.75 1.233 2.75 2.75v18.5c0 1.517-1.233 2.75-2.75 2.75z" fill="#eceff1"/><path d="m12 0h-7.25c-1.517 0-2.75 1.233-2.75 2.75v18.5c0 1.517 1.233 2.75 2.75 2.75h7.25z" fill="#cdd0d2"/><g fill="#607d8b"><path d="m11.5 20c-.414 0-.75-.336-.75-.75v-4.5c0-.414.336-.75.75-.75s.75.336.75.75v4.5c0 .414-.336.75-.75.75z"/><path d="m8.25 20h-2.5c-.266 0-.512-.141-.646-.37-.135-.229-.139-.512-.009-.745l1.881-3.385h-1.226c-.414 0-.75-.336-.75-.75s.336-.75.75-.75h2.5c.266 0 .512.141.646.37.135.229.139.512.009.745l-1.881 3.385h1.226c.414 0 .75.336.75.75s-.336.75-.75.75z"/><path d="m14.75 20c-.414 0-.75-.336-.75-.75v-4.5c0-.414.336-.75.75-.75h1.25c1.103 0 2 .897 2 2 0 1.009-.805 2-1.624 2h-.876v1.25c0 .414-.336.75-.75.75zm.75-3.5h.767c.088-.077.233-.274.233-.5 0-.276-.225-.5-.5-.5h-.5z"/></g><path d="m12.25 16.994h-1.5v2.256c0 .414.336.75.75.75s.75-.336.75-.75z" fill="#546d79"/><path d="m7.861 16.994h-1.715l-1.051 1.892c-.13.232-.126.516.009.745.134.228.38.369.646.369h2.5c.414 0 .75-.336.75-.75s-.336-.75-.75-.75h-1.226z" fill="#546d79"/><path d="m17.747 16.994h-3.747v2.256c0 .414.336.75.75.75s.75-.336.75-.75v-1.25h.876c.538 0 1.07-.427 1.371-1.006z" fill="#546d79"/></svg>