<svg id="color" enable-background="new 0 0 24 24" height="512" viewBox="0 0 24 24" width="512" xmlns="http://www.w3.org/2000/svg"><path d="m21.25 21h-18.5c-1.517 0-2.75-1.233-2.75-2.75v-12.5c0-1.517 1.233-2.75 2.75-2.75h5.25c.199 0 .39.079.53.22l1.781 1.78h10.939c1.517 0 2.75 1.233 2.75 2.75v10.5c0 1.517-1.233 2.75-2.75 2.75z" fill="#03a9f4"/><path d="m8 3h-5.25c-1.517 0-2.75 1.233-2.75 2.75v12.5c0 1.517 1.233 2.75 2.75 2.75h9.25v-16h-1.689l-1.781-1.78c-.14-.141-.331-.22-.53-.22z" fill="#0393d4"/><g fill="#fff"><path d="m11.5 16c-.414 0-.75-.336-.75-.75v-4.5c0-.414.336-.75.75-.75s.75.336.75.75v4.5c0 .414-.336.75-.75.75z"/><path d="m8.25 16h-2.5c-.266 0-.512-.141-.646-.37-.135-.229-.139-.512-.009-.744l1.881-3.386h-1.226c-.414 0-.75-.336-.75-.75s.336-.75.75-.75h2.5c.266 0 .512.141.646.37.135.229.139.512.009.744l-1.881 3.386h1.226c.414 0 .75.336.75.75s-.336.75-.75.75z"/><path d="m14.75 16c-.414 0-.75-.336-.75-.75v-4.5c0-.414.336-.75.75-.75h1.25c1.103 0 2 .897 2 2s-.897 2-2 2h-.5v1.25c0 .414-.336.75-.75.75zm.75-3.5h.5c.275 0 .5-.225.5-.5s-.225-.5-.5-.5h-.5z"/></g><path d="m12.25 13h-1.5v2.25c0 .414.336.75.75.75s.75-.336.75-.75z" fill="#dedede"/><path d="m7.858 13h-1.716l-1.048 1.886c-.13.233-.126.516.009.744.135.229.381.37.647.37h2.5c.414 0 .75-.336.75-.75s-.336-.75-.75-.75h-1.226z" fill="#dedede"/><path d="m17.732 13h-3.732v2.25c0 .414.336.75.75.75s.75-.336.75-.75v-1.25h.5c.739 0 1.385-.403 1.732-1z" fill="#dedede"/></svg>