<svg xmlns="http://www.w3.org/2000/svg" xmlns:xlink="http://www.w3.org/1999/xlink" baseProfile="tiny" height="34" version="1.1" width="34" xml:space="preserve" style=""><rect id="backgroundrect" width="100%" height="100%" x="0" y="0" fill="none" stroke="none" class="" style=""/><g class="currentLayer" style=""><title>Layer 1</title><g id="Guides__x26__Forms" class=""/><g id="Icons" class="" fill="#ffffff" fill-opacity="1"><path d="M24,23.543l-4.356-4.356c0.875-1.168,1.399-2.614,1.399-4.186c0-3.866-3.134-7-7-7s-7,3.134-7,7s3.134,7,7,7   c1.572,0,3.018-0.525,4.186-1.399l4.356,4.356L24,23.543z M9.043,15c0-2.757,2.243-5,5-5c2.757,0,5,2.243,5,5c0,2.757-2.243,5-5,5   C11.286,20,9.043,17.757,9.043,15z" id="svg_1" fill="#ffffff" fill-opacity="1"/></g></g></svg>