<svg xmlns="http://www.w3.org/2000/svg" xmlns:xlink="http://www.w3.org/1999/xlink" baseProfile="tiny" height="34" version="1.1" width="34" xml:space="preserve" style=""><rect id="backgroundrect" width="100%" height="100%" x="0" y="0" fill="none" stroke="none" class="" style=""/><g class="currentLayer" style=""><title>Layer 1</title><g id="Guides__x26__Forms" class=""/><g id="Icons" class="" fill="#ffffff" fill-opacity="1"><path d="M26.739726066589355,25.99695081994384 l-5.235743330955505,-5.235743330955505 c1.0517161190509798,-1.4038907737731936 1.6815438292026519,-3.141926783084869 1.6815438292026519,-5.031409913539886 c0,-4.6467823042869565 -3.7669466481208804,-8.413728952407837 -8.413728952407837,-8.413728952407837 s-8.413728952407837,3.7669466481208804 -8.413728952407837,8.413728952407837 s3.7669466481208804,8.413728952407837 8.413728952407837,8.413728952407837 c1.8894831304550173,0 3.627519139766693,-0.631029671430588 5.031409913539886,-1.6815438292026519 l5.235743330955505,5.235743330955505 L26.739726066589355,25.99695081994384 zM8.761991217851637,15.728595614169535 c0,-3.3138072459697723 2.695999148607254,-6.009806394577026 6.009806394577026,-6.009806394577026 c3.3138072459697723,0 6.009806394577026,2.695999148607254 6.009806394577026,6.009806394577026 c0,3.3138072459697723 -2.695999148607254,6.009806394577026 -6.009806394577026,6.009806394577026 C11.457990366458892,21.73840200874656 8.761991217851637,19.04240286013931 8.761991217851637,15.728595614169535 z" id="svg_1" fill="#ffffff" fill-opacity="1"/></g></g></svg>